<svg width="454" height="302" viewBox="0 0 454 302" fill="none" xmlns="http://www.w3.org/2000/svg">
<path d="M147.795 49.7262C148.116 49.6522 147.877 50.1329 147.877 50.1329C147.09 50.5021 133.231 55.2111 133.268 61.1631C133.281 63.2726 133.307 64.5953 135.211 66.1876C138.657 69.0693 144.753 68.3589 151.686 68.8284C159.541 69.3605 165.209 67.6195 172.94 68.3104C179.049 68.8563 184.153 68.5177 187.239 71.0981C189.611 73.0816 190.891 74.6902 189.396 77.4342C187.399 81.0988 182.761 83.1953 176.35 85.5042C171.547 87.2339 167.575 88.069 162.38 88.9562C135.638 93.5235 126.929 77.6372 100.412 83.4606C89.7807 85.7955 81.7174 86.7129 74.6619 92.1868C68.7189 96.7976 67.7591 99.8248 69.0552 104.366C70.4541 109.268 77.0049 110.184 83.2804 113.308C91.2083 117.254 99.5914 117.243 106.306 121.797C110.174 124.421 113.224 125.807 114.051 129.416C114.623 131.91 113.981 133.521 112.749 136.226C110.05 142.155 96.757 151.877 96.757 151.877L95.1419 150.788C95.1419 150.788 107.816 142.281 110.571 136.444C111.767 133.911 112.475 132.391 111.957 130.053C111.169 126.489 107.731 125.276 103.827 122.73C97.0109 118.285 88.9807 118.13 81.2286 114.155C74.8363 110.878 68.2558 109.83 66.8787 104.751C65.6213 100.112 67.1704 96.4513 73.1932 91.7485C80.2303 86.2537 89.5186 84.7105 101.057 82.24C127.611 76.5544 136.33 92.7258 163.024 87.7357C168.051 86.7959 171.168 86.4972 175.755 84.7501C181.308 82.6349 185.543 80.8738 187.218 77.6519C188.403 75.3715 187.815 74.0052 186.135 72.2439C183.357 69.3308 178.086 69.3752 171.664 68.7582C164.648 68.084 159.463 69.7461 152.202 69.3894C144.723 69.022 138.109 69.8845 134.403 66.8307C132.311 65.1068 132.346 63.6413 132.414 61.3342C132.589 55.326 145.394 50.6301 147.795 49.7262Z" fill="#DDDDDD"/>
<path d="M147.795 49.7262C147.485 49.8208 147.877 50.1329 147.877 50.1329C147.877 50.1329 171.908 40.8661 183.118 43.7234C187.091 44.7361 189.575 45.3825 191.669 47.416C195.461 51.0963 191.21 54.8429 188.787 59.7117C186.041 65.2283 180.051 68.1981 177.665 73.7065C175.778 78.0598 172.703 81.3184 176.098 84.614C178.708 87.1473 181.131 88.7707 187.021 89.0745C194.887 89.4803 201.056 87.3706 208.471 84.1734C214.027 81.7782 217.498 79.5139 221.652 76.4553C243.032 60.7102 217.221 47.3154 240.864 32.3188C250.343 26.3061 255.922 21.3399 269.616 19.2172C281.151 17.4291 287.319 18.2266 295.268 21.2562C303.847 24.526 302.449 29.3513 305.345 35.0425C309.004 42.2323 304.983 47.8445 310.369 54.5105C313.472 58.3512 314.632 61.054 321.044 63.3257C325.475 64.8956 328.822 65.232 334.513 65.694C346.986 66.7066 371.671 62.4262 371.671 62.4262L370.386 60.8254C370.386 60.8254 348.289 65.2696 335.963 64.3383C330.614 63.9342 327.409 63.6853 323.246 62.2262C316.899 60.0016 316.251 57.1209 313.312 53.2934C308.181 46.6114 311.72 41.1566 307.923 34.071C304.792 28.2283 305.957 23.3206 297.032 19.9806C288.882 16.9308 281.237 16.2268 269.49 18.0245C255.766 20.1249 248.421 25.6142 238.254 32.1696C214.853 47.2567 241.197 60.7943 219.042 76.3061C214.87 79.2272 212.818 81.1738 207.333 83.4157C200.692 86.13 195.348 88.1298 188.471 87.7189C183.603 87.428 181.307 86.3835 178.786 84.4199C174.617 81.1722 177.217 77.6616 179.118 73.0651C181.195 68.0429 186.806 65.3594 189.599 60.3248C192.476 55.1383 197.26 51.1174 193.268 47.1807C191.015 44.9585 188.233 44.2851 183.849 43.2324C172.431 40.4907 149.825 49.1083 147.795 49.7262Z" fill="#DDDDDD"/>
<path d="M369.119 74.9701C369.119 74.9701 374.822 77.4667 375.904 86.287C376.194 88.8805 374.91 90.7963 373.072 92.618C371.192 94.5579 368.407 94.5645 366.723 96.5493C367.887 94.6702 367.547 92.4335 369.536 90.934C366.567 91.8906 365.035 94.1977 364.637 97.2108C364.283 100.106 363 102.021 359.809 102.336C361.434 101.026 360.885 99.221 360.813 97.4289C360.638 99.5328 359.021 100.525 357.18 100.954C354.937 101.532 353.966 102.143 352.25 103.848C353.127 100.768 351.619 99.0978 355.357 97.6441C357.406 96.8623 359.672 95.4099 358.028 92.8605C357.473 97.3415 353.731 95.9306 350.71 97.3235C348.575 98.3417 349.009 100.024 347.813 101.624C346.617 103.224 344.542 103.487 342.672 103.478C345.798 102.605 345.015 99.084 345.757 96.5971C346.588 93.7147 350.385 93.0582 351.964 90.4739C350.552 88.1693 349.166 90.9576 348.585 91.8972C347.632 93.3442 346.402 94.7442 344.353 93.9744C349.168 92.4296 345.899 86.6153 349.38 84.3194C350.716 83.4394 354.102 84.8011 354.779 83.2276C355.837 80.8285 351.667 82.0719 350.775 82.6851C351.009 81.3784 352.037 80.0925 353.326 79.4897C354.978 78.6975 356.143 79.7624 357.583 79.4818C359.501 79.1342 359.684 76.7122 357.537 76.656C356.742 76.6352 355.076 77.984 354.113 78.277C355.291 75.8413 358.175 73.5697 360.816 73.0023C364.096 72.2925 366.365 73.7841 369.119 74.9701Z" fill="url(#paint0_linear_407_99)"/>
<path d="M370.707 78.0527C371.28 78.697 371.24 78.7352 371.766 79.5724C372.893 81.3248 373.116 83.8606 371.43 85.3125C370.467 86.1145 369.335 85.8898 368.304 86.4591C367.215 87.047 367.165 88.2455 366.585 89.1676C366.535 88.5096 366.537 87.9875 366.39 87.3477C366.329 86.9603 366.23 86.5338 366.381 86.1679C365.965 86.8597 365.893 87.6712 365.438 88.3626C364.861 89.2074 363.998 89.469 363.057 89.7685C362.096 90.0484 361.163 90.1545 360.118 90.1435C359.693 90.1389 359.136 90.0363 358.742 90.1869C358.23 90.4135 358.035 90.8949 357.634 91.2388C357.864 89.9068 357.95 89.2309 359.359 88.859C360.807 88.4876 360.879 87.2313 361.826 86.3324C361.011 86.8459 359.975 87.0864 359.42 86.0169C361.138 86.5765 361.849 85.3077 362.086 83.8211C362.339 82.3927 362.295 81.1352 363.459 80.1419C362.744 80.115 362.383 80.8654 361.94 81.2862C361.418 81.7448 360.829 81.9319 360.146 82.0601C360.227 81.9836 360.346 81.9075 360.388 81.8306C360.66 81.35 361.157 81.0265 361.429 80.5459C361.681 80.0844 361.835 79.6412 362.029 79.1598C362.418 78.197 363.42 77.3567 364.294 76.8245C365.744 75.9309 368.403 76.2298 370.129 77.5244L370.298 77.6616C370.448 77.7792 370.578 77.916 370.707 78.0527Z" fill="#FFC929"/>
<path d="M365.512 67.7431C364.682 69.1379 363.909 70.487 363.185 71.7806C362.461 73.0742 365.155 77.3605 367.938 80.286C370.699 83.1881 375.86 87.1975 377.191 86.5417C378.522 85.8859 379.908 85.1843 381.345 84.429L365.512 67.7431Z" fill="url(#paint1_linear_407_99)"/>
<path d="M406.284 70.215C423.238 59.349 440.233 44.9033 448.161 24.4326L428.93 4.16541C408.074 11.0103 392.754 27.2219 381.015 43.5852L369.745 60.7633C368.71 62.453 367.719 64.0853 366.756 65.6849L383.467 83.2961C385.113 82.4163 386.799 81.5135 388.538 80.5691L406.284 70.215ZM427.233 25.0344C429.418 27.4287 429.336 31.0985 427.017 33.299C424.701 35.4969 421.027 35.3911 418.751 33.083C416.565 30.6886 416.652 27.0146 418.969 24.8167C421.288 22.6162 424.956 22.7262 427.233 25.0344Z" fill="url(#paint2_linear_407_99)"/>
<path d="M390.24 85.2059L388.538 80.5698L406.283 70.2156C405.649 73.5888 404.634 86.9916 404.634 86.9916L384.455 103.864L380.746 99.9551L390.24 85.2059Z" fill="url(#paint3_linear_407_99)"/>
<path d="M364.176 44.354C364.176 44.354 377.611 44.0408 381.015 43.5856L369.745 60.7637L365.204 58.8211L349.977 67.5279L346.269 63.6202L364.176 44.354Z" fill="url(#paint4_linear_407_99)"/>
<path d="M449.028 21.9728C451.206 15.4507 453.765 0.244267 453.551 0.0193301C453.336 -0.207371 438.062 1.59812 431.435 3.43183L449.028 21.9728Z" fill="url(#paint5_linear_407_99)"/>
<path d="M9.94799 227.357L13.8148 228.86L26.2732 224.35C26.2732 224.35 28.8383 226.493 30.3545 228.001C31.4907 229.132 32.3756 229.604 33.147 231.009C33.4545 231.569 33.9871 231.904 33.7914 232.512C33.6269 233.023 33.217 233.174 32.7174 233.371C32.0932 233.618 31.6644 233.458 30.9989 233.371C29.4362 233.167 27.5621 231.653 26.9176 232.083C26.2732 232.512 26.2058 233.535 25.8436 234.875C25.4815 236.216 28.0583 239.906 26.9176 242.823C26.6031 243.627 26.6182 244.374 25.8436 244.756C25.2417 245.053 24.7693 244.944 24.1252 244.756C22.9282 244.406 22.7186 243.396 21.9771 242.393C20.5939 240.523 19.3994 237.023 19.3994 237.023C19.3994 237.023 20.2294 239.74 20.4735 241.534C20.6434 242.784 20.9974 243.533 20.6883 244.756C20.5317 245.375 20.579 245.911 20.0439 246.26C19.6856 246.493 19.3976 246.475 18.9698 246.475C18.5421 246.475 18.2845 246.438 17.8958 246.26C17.1931 245.937 17.0299 245.404 16.607 244.756C16.0106 243.843 15.9398 243.19 15.5329 242.178C14.6318 239.937 13.3849 236.379 13.3849 236.379C13.3849 236.379 13.8043 240.341 13.3849 242.823C13.256 243.585 13.6078 244.341 12.9553 244.756C12.6635 244.942 12.4419 244.971 12.096 244.971C11.7502 244.971 11.5494 244.904 11.2368 244.756C10.4168 244.368 10.3641 243.629 9.94799 242.823C9.30315 241.573 9.13179 240.768 8.87396 239.386C8.47406 237.242 8.34049 235.986 8.4445 233.801C8.50882 232.45 8.5549 231.679 8.87396 230.364C9.16812 229.152 9.94799 227.357 9.94799 227.357Z" fill="#C0C0C0"/>
<path d="M13.385 167.211C13.385 167.211 27.0391 152.497 38.3025 147.02C50.3313 141.17 71.8121 139.931 71.8121 139.931C71.8121 139.931 80.5318 152.562 84.7005 161.412C90.9662 174.714 95.4404 197.499 95.4404 197.499L48.398 225.209C48.398 225.209 35.6195 210.583 29.0658 200.077C21.5393 188.011 13.385 167.211 13.385 167.211Z" fill="#CACACA"/>
<path d="M30.1397 144.442C18.8763 149.92 5.22229 164.634 5.22229 164.634C5.22229 164.634 13.3765 185.433 20.9031 197.499C27.4568 208.005 40.2352 222.631 40.2352 222.631L48.3982 225.209C48.3982 225.209 35.6194 210.583 29.0657 200.077C21.5391 188.011 13.3849 167.211 13.3849 167.211C13.3849 167.211 27.0389 152.497 38.3024 147.02C50.3311 141.17 71.812 139.931 71.812 139.931C71.812 139.931 80.5318 152.561 84.7004 161.412C90.4884 173.699 94.7476 194.078 95.3635 197.116L95.4407 197.069C95.4407 197.069 92.6541 176.287 87.2781 164.204C82.7088 153.935 71.812 139.931 71.812 139.931L63.6494 137.353C63.6494 137.353 42.1684 138.592 30.1397 144.442Z" fill="#ACAAAA"/>
<path d="M5.22229 164.634C5.22229 164.634 13.3765 185.433 20.9031 197.499C27.4568 208.005 40.2352 222.631 40.2352 222.631L48.3982 225.209C48.3982 225.209 35.6194 210.583 29.0657 200.077C21.5391 188.011 13.3849 167.211 13.3849 167.211L5.22229 164.634Z" fill="#BBB8B8"/>
<path d="M19.3994 237.023C19.3994 237.023 20.5939 240.523 21.9771 242.394C22.7186 243.396 22.9282 244.407 24.1251 244.757C24.7693 244.945 25.2417 245.053 25.8436 244.757C26.4455 244.46 25.9899 243.829 25.6292 243.468C25.2684 243.107 24.7903 243.493 24.3404 243.253C23.5787 242.846 23.7211 242.054 23.2663 241.32C22.7272 240.449 22.2767 240.057 21.7627 239.172C21.3861 238.523 21.5018 237.906 20.9035 237.453C20.4163 237.085 19.3994 237.023 19.3994 237.023Z" fill="#D6D6D6"/>
<path d="M13.3843 236.379C13.3843 236.379 14.6312 239.938 15.5323 242.179C15.9392 243.19 16.01 243.843 16.6064 244.756C17.0293 245.404 17.1925 245.937 17.8952 246.26C18.2839 246.438 18.5415 246.475 18.9692 246.475C19.397 246.475 19.2083 245.961 19.1844 245.615C19.1393 244.962 19.3572 244.855 18.9696 244.327C18.391 243.538 18.0758 243.685 17.6137 242.823C17.0463 241.764 16.4843 240.468 15.9619 239.386C15.5541 238.542 15.9499 237.931 15.3179 237.238C14.9559 236.841 14.2059 236.467 13.3843 236.379Z" fill="#D6D6D6"/>
<path d="M8.87396 230.365C8.5549 231.679 8.50882 232.45 8.4445 233.801C8.34049 235.986 8.47406 237.242 8.87396 239.386C9.13179 240.769 9.30315 241.574 9.94799 242.823C10.3641 243.63 10.4168 244.368 11.2368 244.757C11.5494 244.905 11.7502 244.971 12.096 244.971C12.096 244.971 11.149 242.128 10.8075 240.246C10.5363 238.751 10.2817 237.895 10.3779 236.379C10.4706 234.917 10.6795 234.082 11.2368 232.727C11.9273 231.049 13.8148 228.861 13.8148 228.861L9.94799 227.357C9.94799 227.357 9.16812 229.153 8.87396 230.365Z" fill="#D6D6D6"/>
<path d="M26.5594 159.661C26.5161 159.346 26.7848 159.082 27.1009 159.111C28.7241 159.258 29.9979 159.224 31.8584 159.049C35.6673 158.689 37.7458 157.862 41.3099 156.471C43.0238 155.802 43.9664 155.372 45.606 154.538C48.6967 152.965 50.3407 151.881 53.1242 149.812C55.7802 147.839 57.4924 146.884 59.5243 144.343C59.6756 144.153 59.9421 144.092 60.1493 144.218C62.7936 145.82 62.8458 148.581 64.0793 150.671C64.0793 150.671 59.0031 152.555 56.1315 155.182C53.0216 158.028 50.8727 159.087 46.8948 160.767C43.1497 162.35 40.4028 163.049 36.3694 163.56C32.8582 164.005 29.066 166.137 29.066 166.137C27.7265 163.563 26.8876 162.046 26.5594 159.661Z" fill="url(#paint6_linear_407_99)"/>
<path d="M94.7966 256.141C94.9686 255.149 94.7966 253.564 94.7966 253.564L109.833 257.43L108.759 261.082C108.759 261.082 114.387 267.141 115.203 272.037C115.633 274.615 114.408 280.414 110.692 280.414C104.033 280.414 101.398 277.402 97.5891 272.896C94.1899 268.875 91.0006 265.504 92.4337 260.437C92.9549 258.595 94.4694 258.028 94.7966 256.141Z" fill="#C0C0C0"/>
<path d="M108.759 261.081L109.833 257.43H104.463C104.463 257.43 103.434 259.36 103.604 260.652C103.822 262.315 104.812 263.119 106.181 264.089C107.611 265.101 109.038 264.379 110.477 265.377C111.801 266.296 112.124 267.284 113.055 268.599C113.97 269.891 115.203 272.036 115.203 272.036C114.387 267.14 108.759 261.081 108.759 261.081Z" fill="#9C9C9C"/>
<path d="M94.7966 256.141C94.4694 258.028 92.9549 258.595 92.4337 260.437C91.0006 265.504 94.1899 268.875 97.5891 272.896C101.398 277.402 104.033 280.414 110.692 280.414C110.692 280.414 106.065 279.293 103.604 277.622C100.901 275.786 99.7504 274.163 98.0188 271.392C96.8854 269.579 96.0942 268.545 95.656 266.452C95.2778 264.646 95.0644 263.474 95.656 261.726C96.1035 260.404 97.0319 259.999 97.5891 258.719C98.1088 257.525 98.4484 255.497 98.4484 255.497L94.7966 253.564C94.7966 253.564 94.9686 255.149 94.7966 256.141Z" fill="#D6D6D6"/>
<path d="M26.7891 160.982C28.0772 161.412 30.8884 161.609 32.9763 161.412C36.7852 161.052 39.0346 160.44 42.5987 159.049C44.3126 158.38 45.2551 157.95 46.8948 157.115C49.9854 155.543 52.0591 154.243 54.8426 152.175C57.6106 150.118 60.8137 147.879 61.8884 145.731C62.318 146.16 62.7799 147.423 63.2639 149.168C63.2639 149.168 60.121 154.488 57.2493 157.115C54.1395 159.961 51.9906 161.02 48.0127 162.7C44.2675 164.283 41.5207 164.982 37.4872 165.493C33.9761 165.938 28.4654 164.634 28.4654 164.634C28.0349 164.634 27.003 162.271 26.7891 160.982Z" fill="url(#paint7_linear_407_99)"/>
<path d="M111.981 141.65C111.981 141.65 113.457 141.524 114.344 141.22C115.338 140.879 115.86 140.554 116.707 139.931C117.663 139.229 118.009 138.615 118.855 137.783C121.394 135.286 125.514 131.554 125.514 131.554C125.514 131.554 126.312 131.198 126.803 131.339C127.206 131.455 127.397 131.658 127.662 131.983C127.898 132.275 128.017 132.475 128.091 132.843C128.192 133.343 127.997 133.636 127.877 134.131C127.332 136.37 124.654 138.975 125.084 139.287L125.514 139.502C125.943 139.502 128 137.454 129.81 136.494C130.705 136.02 131.191 135.672 132.173 135.42C133.07 135.19 133.756 134.705 134.536 135.205C135.045 135.532 135.236 135.911 135.395 136.494C135.527 136.98 135.453 137.283 135.395 137.783C135.074 140.553 129.788 141.864 130.239 142.724C130.38 142.991 130.399 143.233 130.669 143.368C131.099 143.583 132.783 143.395 134.106 143.153C135.855 142.834 136.631 141.797 138.402 141.65C138.987 141.601 139.35 141.461 139.906 141.65C140.526 141.86 141.061 142.082 141.195 142.724C141.303 143.243 141.013 143.544 140.765 144.013C140.321 144.851 139.796 145.148 139.046 145.731C137.862 146.652 137 146.885 135.61 147.449C133.592 148.269 132.147 147.903 130.239 148.953C129.342 149.447 128.091 149.433 128.091 150.457C128.091 151.96 132.38 152.609 132.817 155.182C132.944 155.927 133.258 156.503 132.817 157.116C132.398 157.697 131.806 157.643 131.099 157.76C129.345 158.05 128.51 156.751 126.803 156.256C124.985 155.73 123.958 155.386 122.077 155.182C120.325 154.993 117.566 155.182 117.566 155.182L116.921 144.872L111.981 141.65Z" fill="#C0C0C0"/>
<path d="M138.402 141.65C136.63 141.797 135.854 142.834 134.106 143.153C133.676 143.368 133.675 143.369 133.461 143.583L133.461 143.583C133.247 143.797 132.972 143.931 133.032 144.227C133.091 144.524 133.391 144.555 133.676 144.657C134.327 144.89 134.748 144.475 135.394 144.227C135.92 144.026 136.147 143.753 136.683 143.583C137.17 143.429 137.467 143.443 137.972 143.368C138.641 143.269 139.028 143.291 139.691 143.153C140.288 143.029 141.328 143.365 141.194 142.724C141.061 142.082 140.526 141.86 139.905 141.65C139.349 141.461 138.987 141.601 138.402 141.65Z" fill="#D6D6D6"/>
<path d="M129.81 136.494C128.091 137.568 127.017 138.428 127.017 138.428C127.017 138.428 126.543 138.824 126.802 139.287C127.141 139.89 127.861 139.921 128.521 139.716C129.036 139.488 129.3 139.31 129.81 139.072C130.389 138.802 130.764 138.754 131.314 138.428C132.081 137.972 132.278 137.399 133.032 136.924C133.508 136.624 134.01 136.748 134.321 136.28C134.558 135.923 135.316 135.706 134.536 135.206C133.756 134.705 133.071 135.19 132.173 135.42C131.191 135.672 130.67 135.957 129.81 136.494Z" fill="#D6D6D6"/>
<path d="M114.344 141.22C113.457 141.524 112.777 141.153 111.981 141.65C110.027 142.869 114.65 145.252 116.922 144.872C118.184 144.66 118.549 143.685 119.714 143.153C120.366 142.856 120.853 142.931 121.432 142.509C121.962 142.123 122.289 141.838 122.506 141.22C122.852 140.242 121.703 139.668 121.862 138.642C122.055 137.399 123.048 137.077 123.795 136.065C124.473 135.147 124.722 134.524 125.514 133.702C126.259 132.928 127.926 132.309 127.662 131.983C127.397 131.658 127.206 131.455 126.803 131.339C126.312 131.198 125.514 131.554 125.514 131.554C125.514 131.554 121.394 135.286 118.855 137.783C118.009 138.615 117.663 139.229 116.707 139.931C115.86 140.554 115.338 140.879 114.344 141.22Z" fill="#D6D6D6"/>
<path d="M69.6161 281.405C70.3547 280.365 71.5807 278.795 71.5807 278.795L79.4392 280.1L84.4858 278.266L87.9524 270.748C87.9524 270.748 88.7894 272.855 89.2622 274.228C89.726 275.574 90.1365 276.3 90.3536 277.708C90.7859 280.51 90.2159 282.214 89.2622 284.885C87.8505 288.839 85.8805 290.588 82.9318 293.585C80.0789 296.484 74.6368 299.892 74.6368 299.892C74.6368 299.892 68.694 302.747 65.9052 300.762C64.4044 299.694 63.8226 298.605 63.2857 296.847C62.3705 293.851 63.8913 291.936 65.032 289.017C66.2946 285.787 67.6063 284.235 69.6161 281.405Z" fill="#C0C0C0"/>
<path d="M89.2621 274.228C88.7893 272.855 87.9524 270.748 87.9524 270.748C87.9524 270.748 83.3418 275.242 84.4857 278.266C85.0947 279.876 86.9049 279.87 87.4932 281.488C88.3912 283.957 86.7905 285.611 85.5599 287.932C84.5777 289.785 83.7417 290.67 82.3378 292.228C80.7475 293.993 80.0308 294.764 78.4713 296.31C77.0157 297.752 74.6367 299.892 74.6367 299.892C74.6367 299.892 80.0788 296.484 82.9317 293.585C85.8804 290.588 87.8504 288.839 89.2621 284.885C90.2158 282.214 90.7858 280.51 90.3536 277.708C90.1365 276.3 89.7259 275.574 89.2621 274.228Z" fill="#9C9C9C"/>
<path d="M69.6165 281.405C67.6066 284.235 66.2949 285.787 65.0324 289.018C63.8917 291.937 62.3721 293.851 63.2861 296.848C63.8227 298.607 64.7237 300.176 65.9056 300.763C65.7991 300.089 65.582 300.444 65.3685 299.102C65.1549 297.761 64.8627 296.48 65.0324 294.806C65.2373 292.785 65.8025 291.708 66.6573 289.866C67.5737 287.89 68.0422 286.644 69.6165 285.14C70.315 284.472 70.7848 284.183 71.5811 283.636C74.3546 281.73 79.9729 282.775 79.4395 280.1C78.8311 277.049 71.5811 278.795 71.5811 278.795C71.5811 278.795 70.3551 280.365 69.6165 281.405Z" fill="#D6D6D6"/>
<path d="M27.409 163.058C32.779 163.058 34.1788 163.108 38.3025 162.271C42.462 161.427 44.7939 160.685 48.6131 158.834C52.1099 157.139 54.0319 155.983 56.9905 153.464C59.5212 151.309 61.5015 149.168 62.7903 147.234C63.6495 148.308 63.6068 148.799 64.5087 149.383C64.8237 149.586 65.0114 149.695 65.368 149.812C66.9077 150.316 67.6619 148.698 69.2345 148.308C71.1954 147.822 72.3752 148.03 74.3898 147.879C78.7469 147.551 81.202 147.553 85.5597 147.234C89.4227 146.952 91.6223 147.025 95.4408 146.375C101.588 145.329 104.464 141.961 110.692 141.65C111.949 141.587 112.686 141.376 113.914 141.65C116.641 142.256 117.628 144.126 119.284 146.375C120.463 147.977 121.33 148.923 121.647 150.886C122.017 153.177 121.904 154.956 120.358 156.686C118.623 158.628 116.321 157.409 113.914 158.404C111.202 159.526 110.28 161.424 107.47 162.271C105.607 162.833 104.413 162.429 102.529 162.915C99.151 163.787 97.8235 165.707 94.5815 166.997C92.2891 167.909 90.992 168.476 88.567 168.93C86.8276 169.256 85.8222 169.249 84.0561 169.359C80.7071 169.568 80.4043 168.5 76.323 169.359C76.323 170.433 76.3462 170.822 76.9675 171.722C78.322 173.685 79.3678 174.568 80.834 176.448C86.1273 183.237 86.8001 188.81 92.8631 194.921C93.61 195.674 94.2299 195.922 94.8232 196.801C95.6452 198.019 95.1602 199.144 95.9241 200.399C97.1753 202.455 98.8626 202.782 100.985 203.916C102.56 204.758 103.664 204.786 105.188 205.715C107.008 206.826 107.777 207.816 109.296 209.313C110.553 210.553 111.104 211.397 112.357 212.643C114.117 214.393 115.627 214.861 117.136 216.832C118.46 218.559 119.083 219.689 119.714 221.772C120.23 223.475 120.453 224.506 120.358 226.283C120.247 228.377 119.434 229.423 118.855 231.438C117.556 235.957 117.233 238.617 115.632 243.038C114.035 247.451 112.035 249.496 110.692 253.993C110.051 256.138 110.979 257.988 109.403 259.578C107.983 261.01 106.479 261.044 104.463 261.081C102.469 261.118 101.303 260.69 99.5221 259.793C98.2855 259.169 97.5654 258.766 96.6222 257.752C95.4844 256.529 93.9213 255.651 93.7223 253.993C93.0779 248.623 94.0521 246.776 95.2259 242.393C95.8064 240.226 97.1684 239.265 97.2666 237.023C97.3455 235.223 97.0838 234.134 96.3 232.512C92.2186 230.149 89.8558 230.149 82.1228 228.646C81.6931 228.646 80.4043 228.646 79.5451 232.727C79.1155 235.52 79.8792 238.259 80.834 241.964C81.7174 245.392 81.9658 247.38 82.982 250.771C84.3461 255.323 85.6833 257.679 87.2781 262.155C88.0528 264.33 88.8892 265.455 89.2114 267.74C89.4456 269.402 89.4872 270.382 89.2114 272.037C88.718 274.997 88.0128 276.841 86.2041 279.34C85.2643 280.638 84.835 281.611 83.4116 282.347C81.84 283.161 80.6699 282.74 78.9007 282.777C77.2212 282.811 76.2549 282.875 74.6046 282.562C73.2231 282.3 72.3284 282.282 71.1677 281.488C70.0861 280.748 69.7964 279.966 69.0197 278.91C66.5954 275.616 65.6869 273.301 64.0791 269.459C62.0195 264.537 61.369 261.564 60.2126 256.356C59.7312 254.188 59.619 252.939 59.1386 250.771C58.1965 246.518 58.6232 245.585 56.5609 241.749C55.3651 239.524 53.3591 237.093 52.3722 234.768C51.4208 232.526 51.836 230.831 50.7612 228.646C49.3732 225.824 49.4723 228.646 46.2503 222.202C43.3606 216.422 39.8057 214.039 38.0876 207.81C37.7901 206.731 37.6745 206.112 37.4432 205.017C37.1611 203.681 37.064 202.92 36.7988 201.58C36.0637 197.867 35.7247 193.632 34.6508 192.129C34.2336 192.085 33.9956 192.108 33.5767 192.129C30.1398 192.303 32.9894 204.992 29.7102 212.321C29.0973 213.69 28.3934 214.312 27.9918 215.757C27.4305 217.778 28.433 219.077 27.9918 221.128C27.5024 223.402 26.9488 224.75 25.4141 226.498C24.063 228.037 23.065 228.87 21.118 229.505C19.0445 230.181 17.7039 229.716 15.5331 229.505C13.6661 229.324 12.4283 229.59 10.8073 228.646C9.42233 227.839 8.62823 227.119 8.01485 225.639C7.34064 224.011 8.20444 222.879 8.01485 221.128C7.83957 219.508 7.41425 218.654 7.15563 217.046C6.92764 215.629 6.53164 214.817 6.72602 213.395C6.86966 212.343 7.33772 211.849 7.58524 210.817C7.9591 209.258 7.98002 208.338 8.01485 206.736C8.05876 204.716 7.48546 203.598 7.58524 201.58C7.64794 200.312 7.85086 199.617 8.01485 198.358C8.46247 194.922 8.11631 192.877 9.08888 189.551C9.43893 188.354 9.62503 187.669 10.1629 186.544C10.7152 185.389 11.1709 184.817 11.8814 183.751C12.7472 182.453 13.3899 181.835 14.2442 180.529C16.0928 177.704 16.3252 175.662 18.1107 172.796C18.972 171.414 19.414 170.596 20.4736 169.359C22.2974 167.23 23.3368 165.521 26.0585 164.849C26.5539 164.726 26.9713 164.979 27.3474 164.634C27.7846 164.233 27.2482 163.629 27.409 163.058Z" fill="url(#paint8_linear_407_99)"/>
<path d="M94.8244 196.801C94.2311 195.922 93.6112 195.674 92.8643 194.921C86.8013 188.81 86.1285 183.237 80.8352 176.448C79.369 174.568 78.3232 173.685 76.9687 171.722C76.3474 170.822 76.3242 169.359 76.3242 169.359C76.3242 169.359 74.1736 168.9 73.1015 168.071C70.7036 166.216 71.5974 160.552 71.1683 160.552C66.6004 160.553 71.8417 167.66 72.6725 172.152C73.1723 174.854 73.3745 176.397 74.1762 179.026C75.6103 183.728 76.8661 186.29 79.5463 190.41C82.6229 195.141 84.2783 198.413 89.2126 201.151C93.3426 203.442 103.11 205.051 100.987 203.916C98.8638 202.782 97.1766 202.455 95.9253 200.399C95.1615 199.144 95.6465 198.019 94.8244 196.801Z" fill="url(#paint9_linear_407_99)"/>
<path d="M76.323 169.359C80.4043 168.5 80.7071 169.568 84.056 169.359C87.405 169.151 80.4148 168.509 78.4711 167.211C77.0394 166.256 76.3923 165.491 75.249 164.204C74.0117 162.812 71.1677 160.552 71.1677 160.552C71.1677 160.552 71.0796 162.957 71.3827 164.204C71.7339 165.649 71.5816 166.765 72.6716 167.856C73.7069 168.892 76.323 169.359 76.323 169.359Z" fill="url(#paint10_linear_407_99)"/>
<path d="M82.1233 228.646C89.8562 230.15 92.2191 230.15 96.3005 232.512C97.0843 234.135 97.3459 235.223 97.2671 237.023C97.1689 239.265 95.8069 240.226 95.2264 242.394C94.0526 246.776 93.0784 248.623 93.7228 253.993C93.9218 255.651 95.4848 256.529 96.6227 257.752C97.7605 258.975 98.2069 256.877 98.2337 255.926C98.2615 254.944 97.1091 254.847 96.6227 253.993C95.6156 252.225 95.7313 250.867 95.8708 248.838C96.0546 246.164 97.3825 244.935 98.2337 242.394C99.262 239.323 101.138 237.638 100.597 234.446C100.156 231.85 99.1475 230.372 97.1597 228.646C94.696 226.507 92.4728 225.954 89.2119 226.068C86.2681 226.172 82.7673 227.142 82.1233 228.646Z" fill="#B26F34"/>
<path d="M49.6746 178.596L50.5338 177.952C50.5338 177.952 50.8315 181.356 50.7486 183.537C50.6652 185.731 50.7266 187.016 50.1042 189.122C49.2843 191.896 47.5915 192.907 46.4525 195.566C45.7526 197.2 44.9489 199.862 44.9489 199.862C44.9489 199.862 43.6046 194.193 44.3045 192.559C45.4434 189.9 47.1362 188.888 47.9562 186.114C48.5785 184.009 48.5172 182.724 48.6006 180.53C49.6746 178.596 49.6746 178.596 49.6746 178.596Z" fill="#D18643"/>
<path d="M27.3474 164.634C26.9713 164.979 26.5539 164.726 26.0585 164.849C23.3368 165.521 22.2974 167.23 20.4736 169.359C19.414 170.596 18.9721 171.414 18.1107 172.796C16.3252 175.662 16.0928 177.704 14.2442 180.529C13.3899 181.835 12.7472 182.453 11.8814 183.751C11.1709 184.817 10.7152 185.389 10.1629 186.544C9.62503 187.669 9.43893 188.354 9.08888 189.551C8.11631 192.877 8.46247 194.922 8.01486 198.358C7.85086 199.617 7.64794 200.312 7.58524 201.58C7.48546 203.598 8.05876 204.716 8.01486 206.736C7.98002 208.338 7.9591 209.259 7.58524 210.817C7.33772 211.849 6.86966 212.343 6.72602 213.395C6.53164 214.817 6.92764 215.629 7.15563 217.046C7.41425 218.654 7.83957 219.508 8.01486 221.128C8.20444 222.879 7.34064 224.011 8.01486 225.639C8.62823 227.119 9.42233 227.839 10.8073 228.646C12.4283 229.59 13.6661 229.324 15.5331 229.505C17.4001 229.686 15.8397 220.957 16.607 215.543C17.5722 208.732 18.5989 204.977 20.4736 198.358C22.31 191.875 23.4666 188.253 26.0585 182.033C28.988 175.003 41.8959 167.562 34.8655 164.634H27.3474Z" fill="#E5A064"/>
<path d="M74.6047 282.562C76.255 282.875 78.9008 282.777 78.9008 282.777C83.1737 281.311 76.1812 276.27 74.6047 272.036C73.179 268.208 72.3435 266.068 71.1678 262.155C70.2193 258.999 70.5296 256.923 69.0198 253.993C67.8132 251.651 66.1732 250.949 64.9385 248.623C62.7714 244.539 63.0025 241.626 62.5756 237.023C62.2115 233.097 62.5756 230.87 62.5756 226.927C62.5756 223.823 62.8438 222.072 62.5756 218.979C62.348 216.355 63.2412 214.298 61.5016 212.32C60.1121 210.741 58.6617 196.802 56.561 196.686C54.1494 196.552 52.7057 197.401 50.7613 198.834C47.3464 201.35 43.0283 215.757 46.2504 222.202C49.4724 228.646 49.3733 225.824 50.7613 228.646C51.8361 230.831 51.4209 232.526 52.3723 234.768C53.3592 237.093 55.3652 239.524 56.561 241.749C58.6233 245.585 58.1966 246.518 59.1387 250.771C59.6191 252.939 59.7313 254.187 60.2127 256.356L60.2462 256.507C61.3818 261.622 62.0396 264.585 64.0792 269.459C65.687 273.301 66.5195 275.579 69.0198 278.91C69.8064 279.958 70.0862 280.748 71.1678 281.488C72.3285 282.282 73.2232 282.3 74.6047 282.562Z" fill="#E5A064"/>
<path d="M51.7848 163.785L52.5158 163.334C52.5158 163.334 56.3689 168.232 58.5325 171.581C62.5718 177.833 63.5325 182.075 67.1258 188.593C69.0707 192.121 70.3422 193.997 72.2816 197.528C75.1279 202.711 77.4668 205.352 79.1557 211.018C80.6726 216.107 80.8744 224.508 80.8744 224.508L80.1434 224.959C80.1434 224.959 79.9416 216.559 78.4246 211.47C76.7358 205.803 74.3969 203.162 71.5506 197.98C69.6112 194.449 68.3397 192.573 66.3947 189.044C62.8014 182.526 61.8407 178.284 57.8015 172.033C55.6379 168.684 51.7848 163.785 51.7848 163.785Z" fill="url(#paint11_linear_407_99)"/>
<path d="M64.0793 149.168C64.0793 149.168 64.7269 149.577 65.1533 149.726C66.0125 150.027 65.9788 149.897 66.4421 149.812C67.3014 149.597 67.6813 148.885 68.5902 148.523C69.1576 148.297 69.4961 148.219 70.0938 148.094C71.1644 147.87 71.7948 147.949 72.8863 147.879C74.8972 147.749 76.0286 147.754 78.0417 147.664C79.8035 147.585 80.7919 147.551 82.5526 147.449C84.9035 147.313 86.2171 147.169 88.5671 147.02C89.9928 146.929 92.2188 146.805 92.2188 146.805C92.6095 147.21 92.6942 147.557 92.8633 148.094C93.542 150.248 92.3301 151.885 90.7152 153.464C88.894 155.245 87.0163 155.106 84.4858 155.397C81.2091 155.774 79.3896 154.659 76.1084 154.323C70.1741 153.715 60.8572 153.464 60.8572 153.464L62.7904 151.316L64.0793 149.168Z" fill="#E49046"/>
<path d="M27.5624 164.204C27.5624 164.204 40.787 164.933 48.5053 161.841C55.9344 158.866 64.2076 149.168 64.2076 149.168C64.3996 149.319 64.5123 149.397 64.7231 149.524C64.7231 149.524 56.3493 159.38 49.043 162.486C41.1228 165.853 27.3472 164.634 27.3472 164.634C27.5001 164.491 27.5316 164.394 27.5624 164.204Z" fill="url(#paint12_linear_407_99)"/>
<path d="M27.5624 164.204C27.5624 164.204 40.787 164.933 48.5053 161.841C55.9344 158.866 64.2076 149.168 64.2076 149.168C64.3996 149.319 64.5123 149.397 64.7231 149.524C64.7231 149.524 56.3493 159.38 49.043 162.486C41.1228 165.853 27.3472 164.634 27.3472 164.634C27.5001 164.491 27.5316 164.394 27.5624 164.204Z" fill="url(#paint13_linear_407_99)"/>
<path d="M32.9327 177.952H33.3624C33.3624 177.952 35.2379 182.573 35.2956 185.685C35.3427 188.226 34.2216 192.103 34.2216 192.103C33.8052 192.117 33.9749 192.116 33.792 192.116C33.792 192.116 34.9472 188.098 34.866 185.47C34.7724 182.44 32.9327 177.952 32.9327 177.952Z" fill="url(#paint14_linear_407_99)"/>
<path d="M0.491503 123.433C1.08816 120.621 1.781 119.077 3.24829 116.559C4.63085 114.188 5.67855 112.981 7.61321 110.975C10.3439 108.143 12.188 106.754 15.6538 104.745C18.9985 102.806 21.0968 102.005 24.8432 100.879C28.9303 99.6497 31.3507 99.1057 35.6406 98.9454C39.0577 98.8177 41.0162 98.9666 44.3704 99.5898C46.377 99.9626 47.5386 100.137 49.4245 100.879C51.2403 101.592 52.2177 102.132 53.7894 103.242C57.801 106.075 58.8984 108.915 61.1409 113.123C62.3076 115.312 62.823 116.608 63.668 118.922C64.5398 121.311 65.0798 122.66 65.5058 125.152C66.1148 128.714 66.5107 130.906 65.5058 134.388C64.6905 137.214 63.6377 138.658 61.8301 141.047C60.2163 143.18 59.137 144.298 57.0057 145.988C54.365 148.081 52.4697 148.744 49.4245 150.284C45.6821 152.176 43.5961 153.361 39.546 154.58C33.6881 156.343 29.9296 157.77 23.9242 156.513C20.7858 155.857 19.0678 155.103 16.343 153.506C14.1824 152.239 13.119 151.3 11.2889 149.64C7.41204 146.122 5.42871 143.736 3.24829 139.114C0.5695 133.436 -0.800056 129.521 0.491503 123.433Z" fill="url(#paint15_linear_407_99)"/>
<path d="M4.32587 136.321L14.8512 153.506C14.8512 153.506 11.6837 153.663 9.91064 152.861C7.90991 151.957 7.11719 150.773 5.82933 148.995C4.5748 147.263 4.00004 146.126 3.46647 144.054C2.77583 141.374 4.32587 136.321 4.32587 136.321Z" fill="#B7B6B2"/>
<path d="M59.1389 114.584C59.1389 114.584 63.5113 116.114 64.6865 116.989C65.6869 117.734 66.1436 118.314 66.8346 119.352C67.9226 120.987 68.2665 122.135 68.553 124.078C68.7611 125.489 68.7611 126.319 68.553 127.729C68.2665 129.672 64.6865 135.635 64.6865 135.635L59.1389 114.584Z" fill="#B7B7C3"/>
<g filter="url(#filter0_f_407_99)">
<path d="M63.3979 118.953L64.3522 118.278C64.3522 118.278 65.2865 119.757 65.7836 120.753C66.4615 122.112 66.772 122.911 67.215 124.354C67.4288 125.05 67.8005 125.437 67.6921 126.154C67.5861 126.856 66.7379 127.729 66.7379 127.729C66.7379 127.729 66.253 125.509 65.7836 124.129C65.0698 122.03 63.3979 118.953 63.3979 118.953Z" fill="#62635E" fill-opacity="0.5"/>
</g>
<path d="M3.89633 126.87C4.45422 124.058 5.10205 122.514 6.474 119.996C7.76673 117.624 8.74636 116.418 10.5553 114.411C13.1086 111.58 14.8329 110.191 18.0735 108.182C21.2008 106.243 23.1628 105.442 26.6657 104.315C30.4873 103.087 32.7505 102.543 36.7616 102.382C39.9567 102.255 41.7879 102.403 44.9242 103.027C46.8004 103.399 47.8865 103.574 49.6499 104.315C51.3477 105.029 52.2616 105.568 53.7312 106.678C57.4822 109.511 58.5083 112.352 60.605 116.559C61.6959 118.748 62.1778 120.045 62.9679 122.359C63.7831 124.747 64.288 126.097 64.6863 128.589C65.2557 132.15 65.626 134.343 64.6863 137.825C63.924 140.651 62.9396 142.095 61.2494 144.484C59.7405 146.617 58.7314 147.735 56.7385 149.425C54.2694 151.518 52.4972 152.181 49.6499 153.721C46.1506 155.613 44.2002 156.798 40.4133 158.017C34.936 159.78 31.4216 161.207 25.8065 159.95C22.872 159.293 21.2657 158.54 18.7179 156.943C16.6977 155.676 15.7034 154.737 13.9922 153.076C10.3672 149.558 8.51275 147.173 6.474 142.551C3.96926 136.873 2.6887 132.957 3.89633 126.87Z" fill="url(#paint16_linear_407_99)"/>
<path d="M12.0592 130.737C13.9923 127.515 14.7534 126.41 16.9997 124.078C19.5722 121.407 21.3434 120.194 24.5179 118.278C27.6026 116.416 29.5091 115.643 32.8954 114.411C37.621 112.693 39.9838 112.263 43.8504 112.263C46.5829 112.263 48.4139 113.964 50.0798 116.13C52.2277 118.922 52.7142 119.562 54.3759 122.789C55.7025 125.365 57.1684 129.663 57.1684 129.663C57.1684 129.663 58.1773 133.314 57.1684 135.248C54.5907 140.188 50.0164 144.142 43.8504 147.706C37.4158 151.426 35.4729 152.862 25.592 152.432C20.8661 151.358 13.6423 144.396 12.0593 136.107C11.7273 134.369 11.1488 132.254 12.0592 130.737Z" fill="url(#paint17_linear_407_99)"/>
<path d="M21.2956 120.211C24.4073 117.892 26.5362 116.801 30.1027 115.271C33.5658 113.785 35.5994 112.941 39.3393 112.478C40.674 112.313 42.7762 112.264 42.7762 112.264C42.7762 112.264 34.7855 120.628 32.0359 127.3C29.0027 134.66 29.2434 147.492 29.2434 147.492L20.2216 148.351C20.2216 148.351 12.2301 134.634 13.5627 129.018C13.9922 127.209 15.2097 125.822 16.7847 124.078C18.3336 122.362 19.4424 121.593 21.2956 120.211Z" fill="url(#paint18_linear_407_99)"/>
<path fill-rule="evenodd" clip-rule="evenodd" d="M16.3427 123.723C14.0125 126.155 13.2229 127.306 11.218 130.666C10.378 132.073 10.7598 133.973 11.0967 135.651C11.1387 135.859 11.1798 136.065 11.218 136.266C12.86 144.909 20.3535 152.168 25.2558 153.288C35.0177 153.715 37.3101 152.377 43.2731 148.898L44.1957 148.36C50.5916 144.644 55.3366 140.521 58.0103 135.37C59.0571 133.353 58.0103 129.546 58.0103 129.546C58.0103 129.546 56.4899 125.065 55.1138 122.379C53.3899 119.014 52.8856 118.347 50.6574 115.436C48.9293 113.177 47.0301 111.404 44.1957 111.404C40.1844 111.404 37.7334 111.852 32.8315 113.644C29.3191 114.928 27.3414 115.734 24.1415 117.675C20.8485 119.674 19.0114 120.938 16.3427 123.723ZM16.9992 124.077C14.753 126.41 13.992 127.514 12.0587 130.736C11.2494 132.086 11.6169 133.907 11.9417 135.516C11.9819 135.716 12.0218 135.914 12.0587 136.107C13.6421 144.396 20.8657 151.358 25.5915 152.432C35.0022 152.841 37.2128 151.558 42.9609 148.222C43.2479 148.055 43.5437 147.883 43.8499 147.706C50.016 144.142 54.5902 140.188 57.1679 135.247C58.1769 133.314 57.1679 129.662 57.1679 129.662C57.1679 129.662 55.702 125.365 54.3754 122.789C52.7136 119.562 52.2274 118.922 50.0793 116.13C48.4133 113.964 46.5824 112.263 43.8499 112.263C39.9834 112.263 37.6206 112.693 32.8949 114.411C29.5087 115.643 27.6023 116.415 24.5174 118.278C21.3432 120.194 19.5719 121.407 16.9992 124.077Z" fill="url(#paint19_linear_407_99)"/>
<path d="M109.161 232.956C110.969 231.253 112.988 227.787 112.988 227.787C112.988 227.787 112.562 229.131 112.222 229.963C111.438 231.885 110.729 232.781 109.161 234.045C107.6 235.304 104.825 235.949 104.825 235.949C104.825 235.949 107.65 234.381 109.161 232.956Z" fill="#AC7341"/>
<defs>
<filter id="filter0_f_407_99" x="59.3979" y="114.278" width="12.3136" height="17.4515" filterUnits="userSpaceOnUse" color-interpolation-filters="sRGB">
<feFlood flood-opacity="0" result="BackgroundImageFix"/>
<feBlend mode="normal" in="SourceGraphic" in2="BackgroundImageFix" result="shape"/>
<feGaussianBlur stdDeviation="2" result="effect1_foregroundBlur_407_99"/>
</filter>
<linearGradient id="paint0_linear_407_99" x1="342.672" y1="103.486" x2="375.855" y2="72.5525" gradientUnits="userSpaceOnUse">
<stop stop-color="#F67C01"/>
<stop offset="1" stop-color="#BB5E00"/>
</linearGradient>
<linearGradient id="paint1_linear_407_99" x1="398.054" y1="22.852" x2="429.94" y2="56.4559" gradientUnits="userSpaceOnUse">
<stop offset="0.213542" stop-color="#D2CECE"/>
<stop offset="1" stop-color="#393535"/>
</linearGradient>
<linearGradient id="paint2_linear_407_99" x1="398.054" y1="22.852" x2="429.94" y2="56.4559" gradientUnits="userSpaceOnUse">
<stop offset="0.213542" stop-color="#D2CECE"/>
<stop offset="1" stop-color="#393535"/>
</linearGradient>
<linearGradient id="paint3_linear_407_99" x1="386.371" y1="77.8407" x2="401.65" y2="93.9426" gradientUnits="userSpaceOnUse">
<stop stop-color="#404040"/>
<stop offset="1"/>
</linearGradient>
<linearGradient id="paint4_linear_407_99" x1="372.421" y1="63.1389" x2="355.814" y2="45.6368" gradientUnits="userSpaceOnUse">
<stop/>
<stop offset="1" stop-color="#7A7A7A"/>
</linearGradient>
<linearGradient id="paint5_linear_407_99" x1="432.772" y1="0.553052" x2="453.364" y2="22.2556" gradientUnits="userSpaceOnUse">
<stop stop-color="#8C8B8B"/>
<stop offset="1"/>
</linearGradient>
<linearGradient id="paint6_linear_407_99" x1="55.4871" y1="146.59" x2="26.4883" y2="162.486" gradientUnits="userSpaceOnUse">
<stop stop-color="#778186"/>
<stop offset="1" stop-color="#474B4C"/>
</linearGradient>
<linearGradient id="paint7_linear_407_99" x1="55.9166" y1="147.879" x2="27.9918" y2="162.915" gradientUnits="userSpaceOnUse">
<stop stop-color="#C1C1C1"/>
<stop offset="1" stop-color="#929292"/>
</linearGradient>
<linearGradient id="paint8_linear_407_99" x1="84.9152" y1="146.805" x2="58.7089" y2="287.073" gradientUnits="userSpaceOnUse">
<stop stop-color="#D4853F"/>
<stop offset="1" stop-color="#D79962"/>
</linearGradient>
<linearGradient id="paint9_linear_407_99" x1="84.9154" y1="146.805" x2="58.7092" y2="287.073" gradientUnits="userSpaceOnUse">
<stop stop-color="#A25D21"/>
<stop offset="1" stop-color="#D79962"/>
</linearGradient>
<linearGradient id="paint10_linear_407_99" x1="84.9155" y1="146.805" x2="58.7092" y2="287.073" gradientUnits="userSpaceOnUse">
<stop stop-color="#995316"/>
<stop offset="1" stop-color="#D79962"/>
</linearGradient>
<linearGradient id="paint11_linear_407_99" x1="63.8643" y1="188.907" x2="67.7308" y2="186.974" gradientUnits="userSpaceOnUse">
<stop stop-color="#6A4222"/>
<stop offset="1" stop-color="#D58947"/>
</linearGradient>
<linearGradient id="paint12_linear_407_99" x1="42.384" y1="160.338" x2="43.6728" y2="164.419" gradientUnits="userSpaceOnUse">
<stop stop-color="#D48845"/>
<stop offset="1" stop-color="#4E3219"/>
</linearGradient>
<linearGradient id="paint13_linear_407_99" x1="61.5017" y1="151.101" x2="64.2942" y2="150.886" gradientUnits="userSpaceOnUse">
<stop stop-color="#D48641" stop-opacity="0"/>
<stop offset="1" stop-color="#4E3219"/>
</linearGradient>
<linearGradient id="paint14_linear_407_99" x1="33.1475" y1="178.596" x2="34.5826" y2="192.159" gradientUnits="userSpaceOnUse">
<stop stop-color="#D58A49"/>
<stop offset="1" stop-color="#281709"/>
</linearGradient>
<linearGradient id="paint15_linear_407_99" x1="2.57767" y1="119.954" x2="53.4866" y2="128.117" gradientUnits="userSpaceOnUse">
<stop stop-color="#9F9F9F"/>
<stop offset="1" stop-color="#787877"/>
</linearGradient>
<linearGradient id="paint16_linear_407_99" x1="3.43677" y1="127.687" x2="42.7462" y2="128.761" gradientUnits="userSpaceOnUse">
<stop stop-color="#CBCBCB"/>
<stop offset="1" stop-color="#828380"/>
</linearGradient>
<linearGradient id="paint17_linear_407_99" x1="12.9183" y1="132.885" x2="56.7387" y2="133.959" gradientUnits="userSpaceOnUse">
<stop stop-color="#1B0A5D"/>
<stop offset="0.390625" stop-color="#1B0A5D"/>
<stop offset="0.970597" stop-color="#010005"/>
</linearGradient>
<linearGradient id="paint18_linear_407_99" x1="42.991" y1="114.626" x2="19.792" y2="131.381" gradientUnits="userSpaceOnUse">
<stop stop-color="#FFF9FF" stop-opacity="0.36"/>
<stop offset="1" stop-color="#1B0A5D" stop-opacity="0"/>
</linearGradient>
<linearGradient id="paint19_linear_407_99" x1="10.7402" y1="132.413" x2="58.427" y2="132.413" gradientUnits="userSpaceOnUse">
<stop stop-color="#5B5C59"/>
<stop offset="1" stop-color="#3F403E"/>
</linearGradient>
</defs>
</svg>
