<svg width="570" height="386" viewBox="0 0 570 386" fill="none" xmlns="http://www.w3.org/2000/svg">
<path d="M264.232 49.7262C264.552 49.6522 264.313 50.1329 264.313 50.1329C263.526 50.5021 249.667 55.2111 249.704 61.1631C249.717 63.2726 249.743 64.5953 251.647 66.1876C255.093 69.0693 261.189 68.3589 268.122 68.8284C275.977 69.3605 281.646 67.6195 289.376 68.3104C295.485 68.8563 300.589 68.5177 303.675 71.0981C306.047 73.0816 307.327 74.6902 305.832 77.4342C303.835 81.0988 299.198 83.1953 292.786 85.5042C287.983 87.2339 284.011 88.069 278.816 88.9562C252.074 93.5235 243.365 77.6372 216.849 83.4606C206.217 85.7955 198.154 86.7129 191.098 92.1868C185.155 96.7976 184.195 99.8248 185.491 104.366C186.89 109.268 193.441 110.184 199.717 113.308C207.644 117.254 216.028 117.243 222.742 121.797C226.611 124.421 229.66 125.807 230.487 129.416C231.059 131.91 230.417 133.521 229.185 136.226C226.486 142.155 213.193 151.877 213.193 151.877L211.578 150.788C211.578 150.788 224.252 142.281 227.007 136.444C228.203 133.911 228.911 132.391 228.394 130.053C227.605 126.489 224.167 125.276 220.263 122.73C213.447 118.285 205.417 118.13 197.665 114.155C191.272 110.878 184.692 109.83 183.315 104.751C182.057 100.112 183.607 96.4513 189.629 91.7485C196.666 86.2537 205.955 84.7105 217.493 82.24C244.047 76.5544 252.766 92.7258 279.46 87.7357C284.487 86.7959 287.604 86.4972 292.191 84.7501C297.744 82.6349 301.979 80.8738 303.654 77.6519C304.84 75.3715 304.251 74.0052 302.571 72.2439C299.793 69.3308 294.522 69.3752 288.101 68.7582C281.084 68.084 275.899 69.7461 268.638 69.3894C261.159 69.022 254.545 69.8845 250.839 66.8307C248.747 65.1068 248.783 63.6413 248.85 61.3342C249.025 55.326 261.83 50.6301 264.232 49.7262Z" fill="#DDDDDD"/>
<path d="M264.232 49.7262C263.921 49.8208 264.313 50.1329 264.313 50.1329C264.313 50.1329 288.344 40.8661 299.555 43.7234C303.528 44.7361 306.011 45.3825 308.105 47.416C311.897 51.0963 307.647 54.8429 305.223 59.7117C302.477 65.2283 296.487 68.1981 294.101 73.7065C292.214 78.0598 289.139 81.3184 292.534 84.614C295.144 87.1473 297.567 88.7707 303.457 89.0745C311.323 89.4803 317.492 87.3706 324.907 84.1734C330.463 81.7782 333.935 79.5139 338.088 76.4553C359.468 60.7102 333.657 47.3154 357.3 32.3188C366.779 26.3061 372.358 21.3399 386.052 19.2172C397.587 17.4291 403.756 18.2266 411.704 21.2562C420.283 24.526 418.885 29.3513 421.781 35.0425C425.44 42.2323 421.42 47.8445 426.805 54.5105C429.908 58.3512 431.068 61.054 437.48 63.3257C441.911 64.8956 445.258 65.232 450.949 65.694C463.422 66.7066 488.107 62.4262 488.107 62.4262L486.822 60.8254C486.822 60.8254 464.725 65.2696 452.399 64.3383C447.05 63.9342 443.845 63.6853 439.682 62.2262C433.335 60.0016 432.687 57.1209 429.748 53.2934C424.617 46.6114 428.156 41.1566 424.359 34.071C421.228 28.2283 422.393 23.3206 413.468 19.9806C405.318 16.9308 397.673 16.2268 385.926 18.0245C372.202 20.1249 364.857 25.6142 354.69 32.1696C331.289 47.2567 357.633 60.7943 335.478 76.3061C331.306 79.2272 329.254 81.1738 323.769 83.4157C317.128 86.13 311.785 88.1298 304.907 87.7189C300.04 87.428 297.743 86.3835 295.222 84.4199C291.053 81.1722 293.653 77.6616 295.554 73.0651C297.632 68.0429 303.242 65.3594 306.035 60.3248C308.912 55.1383 313.696 51.1174 309.704 47.1807C307.451 44.9585 304.669 44.2851 300.285 43.2324C288.867 40.4907 266.261 49.1083 264.232 49.7262Z" fill="#DDDDDD"/>
<path d="M485.555 74.9701C485.555 74.9701 491.258 77.4667 492.34 86.287C492.63 88.8805 491.346 90.7963 489.508 92.618C487.628 94.5579 484.843 94.5645 483.16 96.5493C484.323 94.6702 483.983 92.4335 485.972 90.934C483.003 91.8906 481.471 94.1977 481.074 97.2108C480.719 100.106 479.436 102.021 476.245 102.336C477.871 101.026 477.321 99.221 477.249 97.4289C477.074 99.5328 475.457 100.525 473.616 100.954C471.373 101.532 470.402 102.143 468.686 103.848C469.563 100.768 468.055 99.0978 471.793 97.6441C473.842 96.8623 476.108 95.4099 474.464 92.8605C473.909 97.3415 470.167 95.9306 467.147 97.3235C465.011 98.3417 465.445 100.024 464.249 101.624C463.054 103.224 460.978 103.487 459.108 103.478C462.234 102.605 461.451 99.084 462.193 96.5971C463.024 93.7147 466.821 93.0582 468.4 90.4739C466.988 88.1693 465.603 90.9576 465.021 91.8972C464.068 93.3442 462.838 94.7442 460.789 93.9744C465.604 92.4296 462.335 86.6153 465.816 84.3194C467.152 83.4394 470.538 84.8011 471.216 83.2276C472.273 80.8285 468.103 82.0719 467.212 82.6851C467.445 81.3784 468.473 80.0925 469.762 79.4897C471.414 78.6975 472.579 79.7624 474.019 79.4818C475.938 79.1342 476.12 76.7122 473.973 76.656C473.178 76.6352 471.512 77.984 470.549 78.277C471.727 75.8413 474.611 73.5697 477.252 73.0023C480.533 72.2925 482.801 73.7841 485.555 74.9701Z" fill="url(#paint0_linear_411_312)"/>
<path d="M487.143 78.0527C487.717 78.697 487.676 78.7352 488.203 79.5724C489.329 81.3248 489.552 83.8606 487.866 85.3125C486.903 86.1145 485.771 85.8898 484.741 86.4591C483.651 87.047 483.601 88.2455 483.021 89.1676C482.971 88.5096 482.973 87.9875 482.826 87.3477C482.765 86.9603 482.666 86.5338 482.817 86.1679C482.401 86.8597 482.329 87.6712 481.874 88.3626C481.297 89.2074 480.434 89.469 479.493 89.7685C478.532 90.0484 477.599 90.1545 476.554 90.1435C476.129 90.1389 475.572 90.0363 475.178 90.1869C474.666 90.4135 474.471 90.8949 474.07 91.2388C474.3 89.9068 474.386 89.2309 475.795 88.859C477.243 88.4876 477.315 87.2313 478.262 86.3324C477.447 86.8459 476.411 87.0864 475.856 86.0169C477.574 86.5765 478.285 85.3077 478.522 83.8211C478.775 82.3927 478.731 81.1352 479.895 80.1419C479.18 80.115 478.819 80.8654 478.376 81.2862C477.854 81.7448 477.265 81.9319 476.582 82.0601C476.663 81.9836 476.782 81.9075 476.824 81.8306C477.096 81.35 477.593 81.0265 477.865 80.5459C478.117 80.0844 478.271 79.6412 478.465 79.1598C478.854 78.197 479.856 77.3567 480.73 76.8245C482.181 75.9309 484.839 76.2298 486.566 77.5244L486.734 77.6616C486.884 77.7792 487.014 77.916 487.143 78.0527Z" fill="#FFC929"/>
<path d="M481.949 67.7431C481.118 69.1379 480.345 70.487 479.621 71.7806C478.897 73.0742 481.592 77.3605 484.374 80.286C487.135 83.1881 492.297 87.1975 493.627 86.5417C494.958 85.8859 496.344 85.1843 497.781 84.429L481.949 67.7431Z" fill="url(#paint1_linear_411_312)"/>
<path d="M522.72 70.215C539.674 59.349 556.669 44.9033 564.597 24.4326L545.366 4.16541C524.511 11.0103 509.19 27.2219 497.452 43.5852L486.181 60.7633C485.146 62.453 484.155 64.0853 483.192 65.6849L499.903 83.2961C501.549 82.4163 503.235 81.5135 504.974 80.5691L522.72 70.215ZM543.67 25.0344C545.854 27.4287 545.773 31.0985 543.454 33.299C541.137 35.4969 537.463 35.3911 535.187 33.083C533.001 30.6886 533.089 27.0146 535.405 24.8167C537.724 22.6162 541.392 22.7262 543.67 25.0344Z" fill="url(#paint2_linear_411_312)"/>
<path d="M506.676 85.2059L504.974 80.5698L522.72 70.2156C522.085 73.5888 521.07 86.9916 521.07 86.9916L500.891 103.864L497.183 99.9551L506.676 85.2059Z" fill="url(#paint3_linear_411_312)"/>
<path d="M480.613 44.3541C480.613 44.3541 494.048 44.0409 497.451 43.5857L486.181 60.7638L481.64 58.8211L466.413 67.5279L462.706 63.6202L480.613 44.3541Z" fill="url(#paint4_linear_411_312)"/>
<path d="M565.464 21.9728C567.642 15.4507 570.201 0.244267 569.988 0.0193301C569.773 -0.207371 554.498 1.59812 547.872 3.43183L565.464 21.9728Z" fill="url(#paint5_linear_411_312)"/>
<path d="M545.366 4.16578L564.597 24.433L565.465 21.9732L547.872 3.43225L545.366 4.16578Z" fill="url(#paint6_linear_411_312)"/>
<path d="M77.9988 376.133V343.315H6.96819L0 325.557L51.0252 209.345H90.5865L46.08 310.272H77.9988V281.95L85.4166 261.495H116.886V310.272H131.946V337.246L116.886 343.315V376.133H77.9988Z" fill="#3E404E"/>
<path d="M275.522 264.504C294.614 308.151 274.708 359.01 231.062 378.101C187.415 397.192 136.556 377.287 117.465 333.64C98.3736 289.994 118.279 239.135 161.926 220.043C205.572 200.952 256.431 220.858 275.522 264.504Z" fill="url(#paint7_linear_411_312)"/>
<path d="M162.158 273.853C165.096 280.568 162.034 288.392 155.32 291.33C148.605 294.268 140.78 291.206 137.843 284.492C134.905 277.777 137.967 269.952 144.681 267.015C151.396 264.077 159.221 267.139 162.158 273.853Z" fill="url(#paint8_linear_411_312)"/>
<path d="M243.205 238.717C244.891 240.673 244.573 243.232 242.493 244.431C240.413 245.631 237.36 245.017 235.673 243.061C233.987 241.104 234.305 238.546 236.385 237.346C238.465 236.147 241.518 236.76 243.205 238.717Z" fill="url(#paint9_linear_411_312)"/>
<path d="M226.351 348.63C228.204 358.281 220.425 367.887 208.975 370.086C197.524 372.285 186.74 366.245 184.886 356.594C183.033 346.943 190.812 337.337 202.263 335.138C213.713 332.939 224.497 338.98 226.351 348.63Z" fill="url(#paint10_linear_411_312)"/>
<path d="M167.389 216.589C167.965 217.767 164.534 220.626 159.727 222.974C154.92 225.323 150.557 226.272 149.981 225.094C149.406 223.916 152.836 221.058 157.643 218.709C162.45 216.361 166.814 215.412 167.389 216.589Z" fill="#C00C14"/>
<path d="M168.145 218.137C169.138 220.169 166.046 223.72 161.239 226.069C156.432 228.418 151.73 228.674 150.737 226.642C149.744 224.609 152.836 221.058 157.643 218.71C162.45 216.361 167.152 216.105 168.145 218.137Z" fill="#C00C14"/>
<path d="M164.638 216.833C164.805 217.176 162.212 218.787 158.845 220.432C155.479 222.077 152.614 223.132 152.446 222.789C152.279 222.447 154.872 220.836 158.239 219.191C161.606 217.546 164.47 216.49 164.638 216.833Z" fill="#400003"/>
<path d="M107.249 311.788C109.289 311.167 112.999 317.415 115.536 325.744C118.072 334.073 118.474 341.329 116.433 341.95C114.392 342.572 110.682 336.323 108.146 327.994C105.61 319.665 105.208 312.41 107.249 311.788Z" fill="url(#paint11_linear_411_312)"/>
<path d="M109.929 310.972C113.45 309.899 118.361 315.782 120.897 324.111C123.433 332.44 122.635 340.061 119.113 341.133C115.592 342.206 110.682 336.323 108.145 327.994C105.609 319.665 106.408 312.044 109.929 310.972Z" fill="url(#paint12_linear_411_312)"/>
<path d="M106.932 316.272C107.526 316.091 109.447 320.673 111.223 326.506C112.999 332.34 113.958 337.215 113.364 337.396C112.771 337.577 110.849 332.994 109.073 327.161C107.297 321.328 106.338 316.452 106.932 316.272Z" fill="#400104"/>
<path d="M270.089 251.407C269.129 252.061 266.188 249.417 263.519 245.501C260.849 241.586 259.463 237.881 260.422 237.227C261.382 236.573 264.323 239.217 266.993 243.133C269.662 247.049 271.048 250.753 270.089 251.407Z" fill="url(#paint13_linear_411_312)"/>
<path d="M268.829 252.266C267.173 253.394 263.667 251.135 260.998 247.22C258.329 243.304 257.507 239.215 259.162 238.087C260.818 236.958 264.324 239.218 266.993 243.133C269.662 247.048 270.484 251.137 268.829 252.266Z" fill="url(#paint14_linear_411_312)"/>
<path d="M269.526 249.026C269.247 249.216 267.505 247.147 265.635 244.405C263.766 241.663 262.477 239.286 262.756 239.095C263.035 238.905 264.777 240.974 266.646 243.716C268.516 246.458 269.805 248.836 269.526 249.026Z" fill="#3D0002"/>
<path d="M216.353 287.466C216.353 292.047 212.64 295.761 208.059 295.761C203.478 295.761 199.765 292.047 199.765 287.466C199.765 282.886 203.478 279.172 208.059 279.172C212.64 279.172 216.353 282.886 216.353 287.466Z" fill="#91080D"/>
<path d="M144.692 348.07C142.61 349.863 138.498 348.504 135.509 345.034C132.519 341.563 131.783 337.296 133.865 335.502C135.948 333.708 140.059 335.067 143.049 338.538C146.039 342.008 146.775 346.276 144.692 348.07Z" fill="#79080D"/>
<path d="M209.718 231.067C209.718 233.815 206.005 236.043 201.424 236.043C196.844 236.043 193.13 233.815 193.13 231.067C193.13 228.318 196.844 226.09 201.424 226.09C206.005 226.09 209.718 228.318 209.718 231.067Z" fill="#BD0C14"/>
<path d="M258.665 336.004C260.472 338.075 259.139 342.195 255.687 345.207C252.235 348.218 247.972 348.981 246.165 346.91C244.358 344.839 245.692 340.719 249.143 337.707C252.595 334.696 256.858 333.933 258.665 336.004Z" fill="#580508"/>
<path d="M129.821 167.211C129.821 167.211 143.475 152.497 154.739 147.02C166.767 141.17 188.248 139.931 188.248 139.931C188.248 139.931 196.968 152.562 201.137 161.412C207.402 174.714 211.877 197.499 211.877 197.499L164.834 225.209C164.834 225.209 152.056 210.583 145.502 200.077C137.975 188.011 129.821 167.211 129.821 167.211Z" fill="#CACACA"/>
<path d="M146.576 144.442C135.312 149.92 121.658 164.634 121.658 164.634C121.658 164.634 129.813 185.433 137.339 197.499C143.893 208.005 156.671 222.631 156.671 222.631L164.834 225.209C164.834 225.209 152.056 210.583 145.502 200.077C137.975 188.011 129.821 167.211 129.821 167.211C129.821 167.211 143.475 152.497 154.739 147.02C166.767 141.17 188.248 139.931 188.248 139.931C188.248 139.931 196.968 152.561 201.137 161.412C206.925 173.699 211.184 194.078 211.8 197.116L211.877 197.069C211.877 197.069 209.09 176.287 203.714 164.204C199.145 153.935 188.248 139.931 188.248 139.931L180.086 137.353C180.086 137.353 158.605 138.592 146.576 144.442Z" fill="#ACAAAA"/>
<path d="M211.233 256.141C211.405 255.149 211.233 253.564 211.233 253.564L226.269 257.43L225.195 261.082C225.195 261.082 230.823 267.141 231.639 272.037C232.069 274.615 230.844 280.414 227.128 280.414C220.47 280.414 217.834 277.402 214.025 272.896C210.626 268.875 207.437 265.504 208.87 260.437C209.391 258.595 210.906 258.028 211.233 256.141Z" fill="#C0C0C0"/>
<path d="M211.233 256.141C210.906 258.028 209.391 258.595 208.87 260.437C207.437 265.504 210.626 268.875 214.025 272.896C217.834 277.402 220.47 280.414 227.128 280.414C227.128 280.414 222.501 279.293 220.04 277.622C217.337 275.786 216.187 274.163 214.455 271.392C213.322 269.579 212.53 268.545 212.092 266.452C211.714 264.646 211.501 263.474 212.092 261.726C212.54 260.404 213.468 259.999 214.025 258.719C214.545 257.525 214.885 255.497 214.885 255.497L211.233 253.564C211.233 253.564 211.405 255.149 211.233 256.141Z" fill="#D6D6D6"/>
<path d="M228.417 141.65C228.417 141.65 229.893 141.524 230.78 141.22C231.774 140.879 232.296 140.554 233.143 139.931C234.099 139.229 234.445 138.615 235.291 137.783C237.83 135.286 241.95 131.554 241.95 131.554C241.95 131.554 242.748 131.198 243.239 131.339C243.642 131.455 243.833 131.658 244.098 131.983C244.334 132.275 244.453 132.475 244.527 132.843C244.628 133.343 244.433 133.636 244.313 134.131C243.768 136.37 241.091 138.975 241.52 139.287L241.95 139.502C242.379 139.502 244.436 137.454 246.246 136.494C247.141 136.02 247.627 135.672 248.609 135.42C249.506 135.19 250.192 134.705 250.972 135.205C251.481 135.532 251.672 135.911 251.831 136.494C251.963 136.98 251.889 137.283 251.831 137.783C251.51 140.553 246.224 141.864 246.675 142.724C246.816 142.991 246.835 143.233 247.105 143.368C247.535 143.583 249.219 143.395 250.542 143.153C252.291 142.834 253.067 141.797 254.838 141.65C255.423 141.601 255.786 141.461 256.342 141.65C256.962 141.86 257.497 142.082 257.631 142.724C257.739 143.243 257.449 143.544 257.201 144.013C256.757 144.851 256.232 145.148 255.483 145.731C254.298 146.652 253.436 146.885 252.046 147.449C250.028 148.269 248.583 147.903 246.675 148.953C245.778 149.447 244.527 149.433 244.527 150.457C244.527 151.96 248.816 152.609 249.253 155.182C249.38 155.927 249.694 156.503 249.253 157.116C248.834 157.697 248.242 157.643 247.535 157.76C245.781 158.05 244.946 156.751 243.239 156.256C241.421 155.73 240.394 155.386 238.513 155.182C236.761 154.993 234.002 155.182 234.002 155.182L233.358 144.872L228.417 141.65Z" fill="#C0C0C0"/>
<path d="M186.052 281.405C186.791 280.365 188.017 278.795 188.017 278.795L195.875 280.1L200.922 278.266L204.389 270.748C204.389 270.748 205.226 272.855 205.698 274.228C206.162 275.574 206.573 276.3 206.79 277.708C207.222 280.51 206.652 282.214 205.698 284.885C204.287 288.839 202.317 290.588 199.368 293.585C196.515 296.484 191.073 299.892 191.073 299.892C191.073 299.892 185.13 302.747 182.341 300.762C180.841 299.694 180.259 298.605 179.722 296.847C178.807 293.851 180.328 291.936 181.468 289.017C182.731 285.787 184.042 284.235 186.052 281.405Z" fill="#C0C0C0"/>
<path d="M205.698 274.228C205.225 272.855 204.388 270.748 204.388 270.748C204.388 270.748 199.778 275.242 200.922 278.266C201.531 279.876 203.341 279.87 203.929 281.488C204.827 283.957 203.227 285.611 201.996 287.932C201.014 289.785 200.178 290.67 198.774 292.228C197.184 293.993 196.467 294.764 194.907 296.31C193.452 297.752 191.073 299.892 191.073 299.892C191.073 299.892 196.515 296.484 199.368 293.585C202.316 290.588 204.286 288.839 205.698 284.885C206.652 282.214 207.222 280.51 206.79 277.708C206.573 276.3 206.162 275.574 205.698 274.228Z" fill="#9C9C9C"/>
<path d="M143.845 163.058C149.215 163.058 150.615 163.108 154.739 162.271C158.898 161.427 161.23 160.685 165.049 158.834C168.546 157.139 170.468 155.983 173.427 153.464C175.957 151.309 177.938 149.168 179.226 147.234C180.086 148.308 180.043 148.799 180.945 149.383C181.26 149.586 181.448 149.695 181.804 149.812C183.344 150.316 184.098 148.698 185.671 148.308C187.632 147.822 188.811 148.03 190.826 147.879C195.183 147.551 197.638 147.553 201.996 147.234C205.859 146.952 208.058 147.025 211.877 146.375C218.024 145.329 220.901 141.961 227.128 141.65C228.385 141.587 229.122 141.376 230.35 141.65C233.077 142.256 234.064 144.126 235.72 146.375C236.899 147.977 237.766 148.923 238.083 150.886C238.453 153.177 238.341 154.956 236.794 156.686C235.059 158.628 232.757 157.409 230.35 158.404C227.638 159.526 226.716 161.424 223.906 162.271C222.043 162.833 220.849 162.429 218.965 162.915C215.587 163.787 214.26 165.707 211.018 166.997C208.725 167.909 207.428 168.476 205.003 168.93C203.264 169.256 202.258 169.249 200.492 169.359C197.143 169.568 196.84 168.5 192.759 169.359C192.759 170.433 192.782 170.822 193.404 171.722C194.758 173.685 195.804 174.568 197.27 176.448C202.563 183.237 203.236 188.81 209.299 194.921C210.046 195.674 210.666 195.922 211.259 196.801C212.081 198.019 211.596 199.144 212.36 200.399C213.611 202.455 215.299 202.782 217.422 203.916C218.996 204.758 220.1 204.786 221.624 205.715C223.444 206.826 224.213 207.816 225.732 209.313C226.989 210.553 227.54 211.397 228.793 212.643C230.553 214.393 232.063 214.861 233.572 216.832C234.896 218.559 235.519 219.689 236.15 221.772C236.666 223.475 236.889 224.506 236.794 226.283C236.683 228.377 235.87 229.423 235.291 231.438C233.992 235.957 233.669 238.617 232.069 243.038C230.471 247.451 228.471 249.496 227.128 253.993C226.487 256.138 227.415 257.988 225.839 259.578C224.419 261.01 222.915 261.044 220.899 261.081C218.905 261.118 217.739 260.69 215.958 259.793C214.722 259.169 214.002 258.766 213.058 257.752C211.921 256.529 210.357 255.651 210.158 253.993C209.514 248.623 210.488 246.776 211.662 242.393C212.243 240.226 213.605 239.265 213.703 237.023C213.782 235.223 213.52 234.134 212.736 232.512C208.655 230.149 206.292 230.149 198.559 228.646C198.129 228.646 196.84 228.646 195.981 232.727C195.552 235.52 196.315 238.259 197.27 241.964C198.154 245.392 198.402 247.38 199.418 250.771C200.782 255.323 202.119 257.679 203.714 262.155C204.489 264.33 205.325 265.455 205.648 267.74C205.882 269.402 205.923 270.382 205.648 272.037C205.154 274.997 204.449 276.841 202.64 279.34C201.7 280.638 201.271 281.611 199.848 282.347C198.276 283.161 197.106 282.74 195.337 282.777C193.657 282.811 192.691 282.875 191.041 282.562C189.659 282.3 188.765 282.282 187.604 281.488C186.522 280.748 186.233 279.966 185.456 278.91C183.032 275.616 182.123 273.301 180.515 269.459C178.456 264.537 177.805 261.564 176.649 256.356C176.167 254.188 176.055 252.939 175.575 250.771C174.633 246.518 175.059 245.585 172.997 241.749C171.801 239.524 169.795 237.093 168.808 234.768C167.857 232.526 168.272 230.831 167.197 228.646C165.809 225.824 165.909 228.646 162.686 222.202C159.797 216.422 156.242 214.039 154.524 207.81C154.226 206.731 154.111 206.112 153.879 205.017C153.597 203.681 153.5 202.92 153.235 201.58C152.5 197.867 152.161 193.632 151.087 192.129C150.67 192.085 150.432 192.108 150.013 192.129C146.576 192.303 149.426 204.992 146.146 212.321C145.533 213.69 144.83 214.312 144.428 215.757C143.867 217.778 144.869 219.077 144.428 221.128C143.939 223.402 143.385 224.75 141.85 226.498C140.499 228.037 139.501 228.87 137.554 229.505C135.481 230.181 134.14 229.716 131.969 229.505C130.102 229.324 128.865 229.59 127.243 228.646C125.858 227.839 125.064 227.119 124.451 225.639C123.777 224.011 124.641 222.879 124.451 221.128C124.276 219.508 123.85 218.654 123.592 217.046C123.364 215.629 122.968 214.817 123.162 213.395C123.306 212.343 123.774 211.849 124.021 210.817C124.395 209.258 124.416 208.338 124.451 206.736C124.495 204.716 123.922 203.598 124.021 201.58C124.084 200.312 124.287 199.617 124.451 198.358C124.899 194.922 124.552 192.877 125.525 189.551C125.875 188.354 126.061 187.669 126.599 186.544C127.151 185.389 127.607 184.817 128.318 183.751C129.183 182.453 129.826 181.835 130.68 180.529C132.529 177.704 132.761 175.662 134.547 172.796C135.408 171.414 135.85 170.596 136.91 169.359C138.734 167.23 139.773 165.521 142.495 164.849C142.99 164.726 143.407 164.979 143.784 164.634C144.221 164.233 143.684 163.629 143.845 163.058Z" fill="url(#paint15_linear_411_312)"/>
<path d="M211.261 196.801C210.667 195.922 210.047 195.674 209.301 194.921C203.238 188.81 202.565 183.237 197.271 176.448C195.805 174.568 194.759 173.685 193.405 171.722C192.784 170.822 192.76 169.359 192.76 169.359C192.76 169.359 190.61 168.9 189.538 168.071C187.14 166.216 188.034 160.552 187.605 160.552C183.037 160.553 188.278 167.66 189.109 172.152C189.609 174.854 189.811 176.397 190.612 179.026C192.047 183.728 193.302 186.29 195.983 190.41C199.059 195.141 200.715 198.413 205.649 201.151C209.779 203.442 219.546 205.051 217.423 203.916C215.3 202.782 213.613 202.455 212.362 200.399C211.598 199.144 212.083 198.019 211.261 196.801Z" fill="url(#paint16_linear_411_312)"/>
<path d="M198.559 228.646C206.292 230.15 208.655 230.15 212.736 232.512C213.52 234.135 213.782 235.223 213.703 237.023C213.605 239.265 212.243 240.226 211.662 242.394C210.489 246.776 209.514 248.623 210.159 253.993C210.358 255.651 211.921 256.529 213.059 257.752C214.197 258.975 214.643 256.877 214.67 255.926C214.697 254.944 213.545 254.847 213.059 253.993C212.052 252.225 212.167 250.867 212.307 248.838C212.491 246.164 213.819 244.935 214.67 242.394C215.698 239.323 217.574 237.638 217.033 234.446C216.592 231.85 215.584 230.372 213.596 228.646C211.132 226.507 208.909 225.954 205.648 226.068C202.704 226.172 199.203 227.142 198.559 228.646Z" fill="#B26F34"/>
<path d="M166.111 178.596L166.97 177.952C166.97 177.952 167.268 181.356 167.185 183.537C167.101 185.731 167.163 187.016 166.54 189.122C165.72 191.896 164.028 192.907 162.889 195.566C162.189 197.2 161.385 199.862 161.385 199.862C161.385 199.862 160.041 194.193 160.741 192.559C161.88 189.9 163.572 188.888 164.392 186.114C165.015 184.009 164.953 182.724 165.037 180.53C166.111 178.596 166.111 178.596 166.111 178.596Z" fill="#D18643"/>
<path d="M143.784 164.634C143.407 164.979 142.99 164.726 142.495 164.849C139.773 165.521 138.734 167.23 136.91 169.359C135.85 170.596 135.408 171.414 134.547 172.796C132.761 175.662 132.529 177.704 130.68 180.529C129.826 181.835 129.183 182.453 128.318 183.751C127.607 184.817 127.151 185.389 126.599 186.544C126.061 187.669 125.875 188.354 125.525 189.551C124.552 192.877 124.899 194.922 124.451 198.358C124.287 199.617 124.084 200.312 124.021 201.58C123.922 203.598 124.495 204.716 124.451 206.736C124.416 208.338 124.395 209.259 124.021 210.817C123.774 211.849 123.306 212.343 123.162 213.395C122.968 214.817 123.364 215.629 123.592 217.046C123.85 218.654 124.276 219.508 124.451 221.128C124.641 222.879 123.777 224.011 124.451 225.639C125.064 227.119 125.858 227.839 127.243 228.646C128.865 229.59 130.102 229.324 131.969 229.505C133.836 229.686 132.276 220.957 133.043 215.543C134.008 208.732 135.035 204.977 136.91 198.358C138.746 191.875 139.903 188.253 142.495 182.033C145.424 175.003 158.332 167.562 151.302 164.634H143.784Z" fill="#E5A064"/>
<path d="M191.041 282.562C192.691 282.875 195.337 282.777 195.337 282.777C199.61 281.311 192.617 276.27 191.041 272.036C189.615 268.208 188.78 266.068 187.604 262.155C186.655 258.999 186.966 256.923 185.456 253.993C184.249 251.651 182.609 250.949 181.375 248.623C179.208 244.539 179.439 241.626 179.012 237.023C178.648 233.097 179.012 230.87 179.012 226.927C179.012 223.823 179.28 222.072 179.012 218.979C178.784 216.355 179.677 214.298 177.938 212.32C176.548 210.741 175.098 196.802 172.997 196.686C170.586 196.552 169.142 197.401 167.197 198.834C163.783 201.35 159.464 215.757 162.687 222.202C165.909 228.646 165.809 225.824 167.197 228.646C168.272 230.831 167.857 232.526 168.808 234.768C169.795 237.093 171.801 239.524 172.997 241.749C175.06 245.585 174.633 246.518 175.575 250.771C176.055 252.939 176.168 254.187 176.649 256.356L176.682 256.507C177.818 261.622 178.476 264.585 180.515 269.459C182.123 273.301 182.956 275.579 185.456 278.91C186.243 279.958 186.522 280.748 187.604 281.488C188.765 282.282 189.659 282.3 191.041 282.562Z" fill="#E5A064"/>
<path d="M168.221 163.785L168.952 163.334C168.952 163.334 172.805 168.232 174.969 171.581C179.008 177.833 179.969 182.075 183.562 188.593C185.507 192.121 186.778 193.997 188.718 197.528C191.564 202.711 193.903 205.352 195.592 211.018C197.109 216.107 197.311 224.508 197.311 224.508L196.58 224.959C196.58 224.959 196.378 216.559 194.861 211.47C193.172 205.803 190.833 203.162 187.987 197.98C186.047 194.449 184.776 192.573 182.831 189.044C179.238 182.526 178.277 178.284 174.238 172.033C172.074 168.684 168.221 163.785 168.221 163.785Z" fill="url(#paint17_linear_411_312)"/>
<path d="M180.516 149.168C180.516 149.168 181.163 149.577 181.59 149.726C182.449 150.027 182.415 149.897 182.878 149.812C183.738 149.597 184.118 148.885 185.026 148.523C185.594 148.297 185.932 148.219 186.53 148.094C187.601 147.87 188.231 147.949 189.323 147.879C191.333 147.749 192.465 147.754 194.478 147.664C196.24 147.585 197.228 147.551 198.989 147.449C201.34 147.313 202.653 147.169 205.003 147.02C206.429 146.929 208.655 146.805 208.655 146.805C209.046 147.21 209.13 147.557 209.3 148.094C209.978 150.248 208.766 151.885 207.151 153.464C205.33 155.245 203.453 155.106 200.922 155.397C197.645 155.774 195.826 154.659 192.545 154.323C186.61 153.715 177.293 153.464 177.293 153.464L179.227 151.316L180.516 149.168Z" fill="#E49046"/>
<path d="M143.999 164.204C143.999 164.204 157.223 164.933 164.941 161.841C172.371 158.866 180.644 149.168 180.644 149.168C180.836 149.319 180.948 149.397 181.159 149.524C181.159 149.524 172.785 159.38 165.479 162.486C157.559 165.853 143.783 164.634 143.783 164.634C143.936 164.491 143.968 164.394 143.999 164.204Z" fill="url(#paint18_linear_411_312)"/>
<path d="M116.928 123.433C117.524 120.621 118.217 119.077 119.684 116.559C121.067 114.188 122.115 112.981 124.049 110.975C126.78 108.143 128.624 106.754 132.09 104.745C135.435 102.806 137.533 102.005 141.279 100.879C145.366 99.6497 147.787 99.1057 152.077 98.9454C155.494 98.8177 157.452 98.9666 160.807 99.5898C162.813 99.9626 163.975 100.137 165.861 100.879C167.676 101.592 168.654 102.132 170.226 103.242C174.237 106.075 175.335 108.915 177.577 113.123C178.744 115.312 179.259 116.608 180.104 118.922C180.976 121.311 181.516 122.66 181.942 125.152C182.551 128.714 182.947 130.906 181.942 134.388C181.127 137.214 180.074 138.658 178.266 141.047C176.652 143.18 175.573 144.298 173.442 145.988C170.801 148.081 168.906 148.744 165.861 150.284C162.118 152.176 160.032 153.361 155.982 154.58C150.124 156.343 146.366 157.77 140.36 156.513C137.222 155.857 135.504 155.103 132.779 153.506C130.619 152.239 129.555 151.3 127.725 149.64C123.848 146.122 121.865 143.736 119.684 139.114C117.006 133.436 115.636 129.521 116.928 123.433Z" fill="url(#paint19_linear_411_312)"/>
<path d="M120.762 136.321L131.287 153.506C131.287 153.506 128.12 153.663 126.347 152.861C124.346 151.957 123.553 150.773 122.265 148.995C121.011 147.263 120.436 146.126 119.903 144.054C119.212 141.374 120.762 136.321 120.762 136.321Z" fill="#B7B6B2"/>
<g filter="url(#filter0_f_411_312)">
<path d="M179.834 118.953L180.788 118.278C180.788 118.278 181.723 119.757 182.22 120.753C182.898 122.112 183.208 122.911 183.651 124.354C183.865 125.05 184.237 125.437 184.128 126.154C184.022 126.856 183.174 127.729 183.174 127.729C183.174 127.729 182.689 125.509 182.22 124.129C181.506 122.03 179.834 118.953 179.834 118.953Z" fill="#62635E" fill-opacity="0.5"/>
</g>
<path d="M120.332 126.87C120.89 124.058 121.538 122.514 122.91 119.996C124.203 117.624 125.183 116.418 126.991 114.411C129.545 111.58 131.269 110.191 134.51 108.182C137.637 106.243 139.599 105.442 143.102 104.315C146.923 103.087 149.187 102.543 153.198 102.382C156.393 102.255 158.224 102.403 161.36 103.027C163.237 103.399 164.323 103.574 166.086 104.315C167.784 105.029 168.698 105.568 170.167 106.678C173.918 109.511 174.944 112.352 177.041 116.559C178.132 118.748 178.614 120.045 179.404 122.359C180.219 124.747 180.724 126.097 181.122 128.589C181.692 132.15 182.062 134.343 181.122 137.825C180.36 140.651 179.376 142.095 177.686 144.484C176.177 146.617 175.168 147.735 173.175 149.425C170.706 151.518 168.933 152.181 166.086 153.721C162.587 155.613 160.636 156.798 156.849 158.017C151.372 159.78 147.858 161.207 142.243 159.95C139.308 159.293 137.702 158.54 135.154 156.943C133.134 155.676 132.14 154.737 130.428 153.076C126.803 149.558 124.949 147.173 122.91 142.551C120.405 136.873 119.125 132.957 120.332 126.87Z" fill="url(#paint20_linear_411_312)"/>
<path d="M128.495 130.737C130.428 127.515 131.19 126.41 133.436 124.078C136.008 121.407 137.78 120.194 140.954 118.278C144.039 116.416 145.945 115.643 149.332 114.411C154.057 112.693 156.42 112.263 160.287 112.263C163.019 112.263 164.85 113.964 166.516 116.13C168.664 118.922 169.15 119.562 170.812 122.789C172.139 125.365 173.605 129.663 173.605 129.663C173.605 129.663 174.613 133.314 173.605 135.248C171.027 140.188 166.453 144.142 160.287 147.706C153.852 151.426 151.909 152.862 142.028 152.432C137.302 151.358 130.078 144.396 128.495 136.107C128.163 134.369 127.585 132.254 128.495 130.737Z" fill="url(#paint21_linear_411_312)"/>
<path d="M137.732 120.211C140.843 117.892 142.972 116.801 146.539 115.271C150.002 113.785 152.036 112.941 155.775 112.478C157.11 112.313 159.212 112.264 159.212 112.264C159.212 112.264 151.222 120.628 148.472 127.3C145.439 134.66 145.68 147.492 145.68 147.492L136.658 148.351C136.658 148.351 128.666 134.634 129.999 129.018C130.428 127.209 131.646 125.822 133.221 124.078C134.77 122.362 135.879 121.593 137.732 120.211Z" fill="url(#paint22_linear_411_312)"/>
<path d="M225.598 232.956C227.405 231.253 229.424 227.787 229.424 227.787C229.424 227.787 228.999 229.131 228.659 229.963C227.874 231.885 227.165 232.781 225.598 234.045C224.037 235.304 221.261 235.949 221.261 235.949C221.261 235.949 224.086 234.381 225.598 232.956Z" fill="#AC7341"/>
<g filter="url(#filter1_d_411_312)">
<path d="M338.744 376.133V343.315H267.714L260.745 325.557L311.771 209.345H351.332L306.825 310.272H338.744V281.95L346.162 261.495H377.631V310.272H392.691V337.246L377.631 343.315V376.133H338.744Z" fill="#3E404E"/>
</g>
<defs>
<filter id="filter0_f_411_312" x="175.834" y="114.278" width="12.3135" height="17.4515" filterUnits="userSpaceOnUse" color-interpolation-filters="sRGB">
<feFlood flood-opacity="0" result="BackgroundImageFix"/>
<feBlend mode="normal" in="SourceGraphic" in2="BackgroundImageFix" result="shape"/>
<feGaussianBlur stdDeviation="2" result="effect1_foregroundBlur_411_312"/>
</filter>
<filter id="filter1_d_411_312" x="249.745" y="205.345" width="142.946" height="174.787" filterUnits="userSpaceOnUse" color-interpolation-filters="sRGB">
<feFlood flood-opacity="0" result="BackgroundImageFix"/>
<feColorMatrix in="SourceAlpha" type="matrix" values="0 0 0 0 0 0 0 0 0 0 0 0 0 0 0 0 0 0 127 0" result="hardAlpha"/>
<feOffset dx="-7"/>
<feGaussianBlur stdDeviation="2"/>
<feColorMatrix type="matrix" values="0 0 0 0 0 0 0 0 0 0 0 0 0 0 0 0 0 0 0.4 0"/>
<feBlend mode="normal" in2="BackgroundImageFix" result="effect1_dropShadow_411_312"/>
<feBlend mode="normal" in="SourceGraphic" in2="effect1_dropShadow_411_312" result="shape"/>
</filter>
<linearGradient id="paint0_linear_411_312" x1="459.108" y1="103.486" x2="492.291" y2="72.5525" gradientUnits="userSpaceOnUse">
<stop stop-color="#F67C01"/>
<stop offset="1" stop-color="#BB5E00"/>
</linearGradient>
<linearGradient id="paint1_linear_411_312" x1="514.49" y1="22.852" x2="546.376" y2="56.4559" gradientUnits="userSpaceOnUse">
<stop offset="0.213542" stop-color="#D2CECE"/>
<stop offset="1" stop-color="#393535"/>
</linearGradient>
<linearGradient id="paint2_linear_411_312" x1="514.49" y1="22.852" x2="546.376" y2="56.4559" gradientUnits="userSpaceOnUse">
<stop offset="0.213542" stop-color="#D2CECE"/>
<stop offset="1" stop-color="#393535"/>
</linearGradient>
<linearGradient id="paint3_linear_411_312" x1="502.807" y1="77.8407" x2="518.086" y2="93.9426" gradientUnits="userSpaceOnUse">
<stop stop-color="#404040"/>
<stop offset="1"/>
</linearGradient>
<linearGradient id="paint4_linear_411_312" x1="488.857" y1="63.139" x2="472.25" y2="45.6369" gradientUnits="userSpaceOnUse">
<stop/>
<stop offset="1" stop-color="#7A7A7A"/>
</linearGradient>
<linearGradient id="paint5_linear_411_312" x1="549.208" y1="0.553052" x2="569.8" y2="22.2556" gradientUnits="userSpaceOnUse">
<stop stop-color="#8C8B8B"/>
<stop offset="1"/>
</linearGradient>
<linearGradient id="paint6_linear_411_312" x1="543.086" y1="-0.290321" x2="570.986" y2="29.1131" gradientUnits="userSpaceOnUse">
<stop offset="0.135417" stop-color="white"/>
<stop offset="1" stop-color="#393535"/>
</linearGradient>
<linearGradient id="paint7_linear_411_312" x1="161.926" y1="220.044" x2="231.062" y2="378.101" gradientUnits="userSpaceOnUse">
<stop stop-color="#C50D15"/>
<stop offset="1" stop-color="#280001"/>
</linearGradient>
<linearGradient id="paint8_linear_411_312" x1="144.681" y1="267.015" x2="155.32" y2="291.33" gradientUnits="userSpaceOnUse">
<stop stop-color="#1F0406"/>
<stop offset="1" stop-color="#A8111A"/>
</linearGradient>
<linearGradient id="paint9_linear_411_312" x1="236.385" y1="237.346" x2="240.976" y2="245.306" gradientUnits="userSpaceOnUse">
<stop stop-color="#190306"/>
<stop offset="1" stop-color="#E0131F"/>
</linearGradient>
<linearGradient id="paint10_linear_411_312" x1="202.263" y1="335.138" x2="208.975" y2="370.086" gradientUnits="userSpaceOnUse">
<stop stop-color="#150305"/>
<stop offset="1" stop-color="#70090F"/>
</linearGradient>
<linearGradient id="paint11_linear_411_312" x1="116.824" y1="342.207" x2="108.53" y2="310.689" gradientUnits="userSpaceOnUse">
<stop stop-color="#6F060A"/>
<stop offset="1" stop-color="#8C080E"/>
</linearGradient>
<linearGradient id="paint12_linear_411_312" x1="119.713" y1="341.327" x2="110.909" y2="309.931" gradientUnits="userSpaceOnUse">
<stop stop-color="#6F060A"/>
<stop offset="1" stop-color="#8C080E"/>
</linearGradient>
<linearGradient id="paint13_linear_411_312" x1="259.482" y1="236.043" x2="271.094" y2="250.972" gradientUnits="userSpaceOnUse">
<stop stop-color="#92090E"/>
<stop offset="1" stop-color="#82070C"/>
</linearGradient>
<linearGradient id="paint14_linear_411_312" x1="258.157" y1="236.947" x2="269.386" y2="252.197" gradientUnits="userSpaceOnUse">
<stop stop-color="#92090E"/>
<stop offset="1" stop-color="#82070C"/>
</linearGradient>
<linearGradient id="paint15_linear_411_312" x1="201.351" y1="146.805" x2="175.145" y2="287.073" gradientUnits="userSpaceOnUse">
<stop stop-color="#D4853F"/>
<stop offset="1" stop-color="#D79962"/>
</linearGradient>
<linearGradient id="paint16_linear_411_312" x1="201.352" y1="146.805" x2="175.145" y2="287.073" gradientUnits="userSpaceOnUse">
<stop stop-color="#A25D21"/>
<stop offset="1" stop-color="#D79962"/>
</linearGradient>
<linearGradient id="paint17_linear_411_312" x1="180.3" y1="188.907" x2="184.167" y2="186.974" gradientUnits="userSpaceOnUse">
<stop stop-color="#6A4222"/>
<stop offset="1" stop-color="#D58947"/>
</linearGradient>
<linearGradient id="paint18_linear_411_312" x1="177.938" y1="151.101" x2="180.73" y2="150.886" gradientUnits="userSpaceOnUse">
<stop stop-color="#D48641" stop-opacity="0"/>
<stop offset="1" stop-color="#4E3219"/>
</linearGradient>
<linearGradient id="paint19_linear_411_312" x1="119.014" y1="119.954" x2="169.923" y2="128.117" gradientUnits="userSpaceOnUse">
<stop stop-color="#9F9F9F"/>
<stop offset="1" stop-color="#787877"/>
</linearGradient>
<linearGradient id="paint20_linear_411_312" x1="119.873" y1="127.687" x2="159.182" y2="128.761" gradientUnits="userSpaceOnUse">
<stop stop-color="#CBCBCB"/>
<stop offset="1" stop-color="#828380"/>
</linearGradient>
<linearGradient id="paint21_linear_411_312" x1="129.354" y1="132.885" x2="173.175" y2="133.959" gradientUnits="userSpaceOnUse">
<stop stop-color="#1B0A5D"/>
<stop offset="0.390625" stop-color="#1B0A5D"/>
<stop offset="0.970597" stop-color="#010005"/>
</linearGradient>
<linearGradient id="paint22_linear_411_312" x1="159.427" y1="114.626" x2="136.228" y2="131.381" gradientUnits="userSpaceOnUse">
<stop stop-color="#FFF9FF" stop-opacity="0.36"/>
<stop offset="1" stop-color="#1B0A5D" stop-opacity="0"/>
</linearGradient>
</defs>
</svg>
