<svg width="189" height="182" viewBox="0 0 189 182" fill="none" xmlns="http://www.w3.org/2000/svg">
<g filter="url(#filter0_d_201_1954)">
<path d="M181.522 56.5043C200.614 100.151 180.708 151.01 137.062 170.101C93.4152 189.192 42.5562 169.287 23.4649 125.64C4.37358 81.9938 24.2794 31.1348 67.9258 12.0434C111.572 -7.04791 162.431 12.8579 181.522 56.5043Z" fill="url(#paint0_linear_201_1954)"/>
<path d="M68.1584 65.8531C71.0961 72.5677 68.0343 80.3924 61.3197 83.3301C54.6052 86.2678 46.7804 83.2061 43.8427 76.4915C40.905 69.7769 43.9668 61.9522 50.6813 59.0145C57.3959 56.0768 65.2206 59.1386 68.1584 65.8531Z" fill="url(#paint1_linear_201_1954)"/>
<path d="M149.205 30.717C150.891 32.6735 150.573 35.2319 148.493 36.4314C146.413 37.631 143.36 37.0173 141.673 35.0608C139.987 33.1043 140.305 30.5459 142.385 29.3463C144.465 28.1468 147.518 28.7605 149.205 30.717Z" fill="url(#paint2_linear_201_1954)"/>
<path d="M179.681 92.7125C182.307 93.6266 183.41 97.3123 182.145 100.945C180.881 104.577 177.727 106.781 175.101 105.866C172.476 104.952 171.373 101.267 172.637 97.6342C173.902 94.0019 177.056 91.7983 179.681 92.7125Z" fill="url(#paint3_linear_201_1954)"/>
<path d="M99.9744 7.93239C100.144 9.4132 97.1834 10.9681 93.362 11.4053C89.5407 11.8426 86.3055 10.9966 86.1361 9.51581C85.9666 8.035 88.9271 6.4801 92.7484 6.04286C96.5698 5.60561 99.8049 6.45158 99.9744 7.93239Z" fill="url(#paint4_linear_201_1954)"/>
<path d="M132.351 140.63C134.204 150.281 126.425 159.887 114.975 162.086C103.524 164.285 92.7398 158.245 90.8863 148.594C89.0328 138.943 96.8125 129.337 108.263 127.138C119.713 124.939 130.497 130.98 132.351 140.63Z" fill="url(#paint5_linear_201_1954)"/>
<path d="M73.3891 8.5893C73.9645 9.76702 70.5342 12.6256 65.7272 14.9742C60.9202 17.3227 56.5569 18.2719 55.9815 17.0942C55.4061 15.9164 58.8364 13.0578 63.6434 10.7093C68.4504 8.36073 72.8137 7.41158 73.3891 8.5893Z" fill="#C00C14"/>
<path d="M74.1451 10.1368C75.1381 12.1691 72.0461 15.7204 67.2391 18.069C62.4321 20.4175 57.7303 20.6739 56.7374 18.6417C55.7445 16.6094 58.8364 13.0581 63.6434 10.7095C68.4504 8.36096 73.1522 8.10456 74.1451 10.1368Z" fill="#C00C14"/>
<path d="M70.6379 8.83298C70.8053 9.17565 68.2118 10.7868 64.8452 12.4317C61.4785 14.0765 58.6136 15.1321 58.4461 14.7894C58.2787 14.4468 60.8722 12.8356 64.2389 11.1907C67.6055 9.54592 70.4704 8.49031 70.6379 8.83298Z" fill="#400003"/>
<path d="M13.2486 103.788C15.2892 103.167 18.9995 109.415 21.5357 117.744C24.0719 126.073 24.4736 133.329 22.433 133.95C20.3924 134.572 16.6821 128.323 14.146 119.994C11.6098 111.665 11.208 104.41 13.2486 103.788Z" fill="url(#paint6_linear_201_1954)"/>
<path d="M15.929 102.972C19.4503 101.899 24.3608 107.782 26.897 116.111C29.4332 124.44 28.6347 132.061 25.1134 133.133C21.5921 134.206 16.6816 128.323 14.1454 119.994C11.6092 111.665 12.4078 104.044 15.929 102.972Z" fill="url(#paint7_linear_201_1954)"/>
<path d="M12.9318 108.272C13.5256 108.091 15.4469 112.673 17.2231 118.506C18.9994 124.34 19.958 129.215 19.3643 129.396C18.7705 129.577 16.8493 124.994 15.073 119.161C13.2967 113.328 12.3381 108.452 12.9318 108.272Z" fill="#400104"/>
<path d="M86.0037 174.329C86.0836 173.2 93.2015 172.424 101.902 172.597C110.602 172.77 117.591 173.825 117.511 174.955C117.431 176.085 110.313 176.86 101.613 176.688C92.9122 176.515 85.9238 175.459 86.0037 174.329Z" fill="url(#paint8_linear_201_1954)"/>
<path d="M86.1092 172.845C86.2471 170.896 93.4119 169.455 102.112 169.628C110.813 169.801 117.754 171.521 117.616 173.471C117.478 175.42 110.313 176.86 101.613 176.688C92.9127 176.515 85.9713 174.794 86.1092 172.845Z" fill="url(#paint9_linear_201_1954)"/>
<path d="M90.1364 175.265C90.1597 174.936 95.1183 174.768 101.212 174.889C107.305 175.01 112.226 175.375 112.203 175.703C112.18 176.032 107.221 176.2 101.128 176.079C95.0341 175.958 90.1132 175.594 90.1364 175.265Z" fill="#150303"/>
<path d="M175.63 139.47C173.934 138.698 175.114 132.461 178.267 125.539C181.419 118.618 185.349 113.632 187.045 114.405C188.741 115.177 187.56 121.414 184.408 128.336C181.256 135.258 177.326 140.243 175.63 139.47Z" fill="url(#paint10_linear_201_1954)"/>
<path d="M173.401 138.457C170.475 137.124 170.658 130.433 173.81 123.511C176.962 116.589 181.89 112.058 184.816 113.391C187.742 114.724 187.559 121.415 184.407 128.337C181.255 135.258 176.327 139.789 173.401 138.457Z" fill="url(#paint11_linear_201_1954)"/>
<path d="M178.427 136.718C177.934 136.493 179.324 132.381 181.531 127.533C183.739 122.685 185.929 118.938 186.422 119.162C186.916 119.387 185.526 123.499 183.318 128.347C181.111 133.195 178.921 136.942 178.427 136.718Z" fill="#130406"/>
<path d="M176.089 43.4069C175.129 44.0609 172.188 41.4169 169.519 37.5013C166.849 33.5857 165.463 29.8813 166.422 29.2274C167.382 28.5734 170.323 31.2174 172.993 35.133C175.662 39.0486 177.048 42.7529 176.089 43.4069Z" fill="url(#paint12_linear_201_1954)"/>
<path d="M174.829 44.2658C173.173 45.3943 169.667 43.135 166.998 39.2196C164.329 35.3041 163.507 31.2151 165.162 30.0867C166.818 28.9582 170.324 31.2175 172.993 35.133C175.662 39.0484 176.484 43.1374 174.829 44.2658Z" fill="url(#paint13_linear_201_1954)"/>
<path d="M175.526 41.0259C175.247 41.2161 173.505 39.1474 171.635 36.4051C169.766 33.6629 168.477 31.2856 168.756 31.0953C169.035 30.905 170.777 32.9738 172.646 35.716C174.516 38.4583 175.805 40.8356 175.526 41.0259Z" fill="#3D0002"/>
<path d="M122.353 79.4665C122.353 84.0472 118.64 87.7605 114.059 87.7605C109.478 87.7605 105.765 84.0472 105.765 79.4665C105.765 74.8858 109.478 71.1724 114.059 71.1724C118.64 71.1724 122.353 74.8858 122.353 79.4665Z" fill="#91080D"/>
<path d="M50.6924 140.07C48.6101 141.864 44.4984 140.504 41.5086 137.034C38.5188 133.563 37.7831 129.296 39.8654 127.502C41.9477 125.708 46.0594 127.067 49.0492 130.538C52.039 134.008 52.7747 138.276 50.6924 140.07Z" fill="#79080D"/>
<path d="M115.718 23.0669C115.718 25.8152 112.005 28.0433 107.424 28.0433C102.844 28.0433 99.1301 25.8152 99.1301 23.0669C99.1301 20.3185 102.844 18.0905 107.424 18.0905C112.005 18.0905 115.718 20.3185 115.718 23.0669Z" fill="#BD0C14"/>
<path d="M164.665 128.004C166.472 130.075 165.139 134.195 161.687 137.207C158.235 140.218 153.972 140.981 152.165 138.91C150.358 136.839 151.692 132.719 155.143 129.707C158.595 126.696 162.858 125.933 164.665 128.004Z" fill="#580508"/>
</g>
<defs>
<filter id="filter0_d_201_1954" x="0.946533" y="0.792141" width="187.827" height="180.56" filterUnits="userSpaceOnUse" color-interpolation-filters="sRGB">
<feFlood flood-opacity="0" result="BackgroundImageFix"/>
<feColorMatrix in="SourceAlpha" type="matrix" values="0 0 0 0 0 0 0 0 0 0 0 0 0 0 0 0 0 0 127 0" result="hardAlpha"/>
<feOffset dx="-7"/>
<feGaussianBlur stdDeviation="2"/>
<feColorMatrix type="matrix" values="0 0 0 0 0 0 0 0 0 0 0 0 0 0 0 0 0 0 0.4 0"/>
<feBlend mode="normal" in2="BackgroundImageFix" result="effect1_dropShadow_201_1954"/>
<feBlend mode="normal" in="SourceGraphic" in2="effect1_dropShadow_201_1954" result="shape"/>
</filter>
<linearGradient id="paint0_linear_201_1954" x1="67.9258" y1="12.0436" x2="137.062" y2="170.101" gradientUnits="userSpaceOnUse">
<stop stop-color="#C50D15"/>
<stop offset="1" stop-color="#280001"/>
</linearGradient>
<linearGradient id="paint1_linear_201_1954" x1="50.6813" y1="59.0145" x2="61.3197" y2="83.3301" gradientUnits="userSpaceOnUse">
<stop stop-color="#1F0406"/>
<stop offset="1" stop-color="#A8111A"/>
</linearGradient>
<linearGradient id="paint2_linear_201_1954" x1="142.385" y1="29.3462" x2="146.976" y2="37.3063" gradientUnits="userSpaceOnUse">
<stop stop-color="#190306"/>
<stop offset="1" stop-color="#E0131F"/>
</linearGradient>
<linearGradient id="paint3_linear_201_1954" x1="172.637" y1="97.6342" x2="182.145" y2="100.945" gradientUnits="userSpaceOnUse">
<stop stop-color="#2E0508"/>
<stop offset="1" stop-color="#7D060D"/>
</linearGradient>
<linearGradient id="paint4_linear_201_1954" x1="92.7485" y1="6.04271" x2="93.3621" y2="11.4052" gradientUnits="userSpaceOnUse">
<stop stop-color="#420609"/>
<stop offset="1" stop-color="#DF131E"/>
</linearGradient>
<linearGradient id="paint5_linear_201_1954" x1="108.263" y1="127.138" x2="114.975" y2="162.086" gradientUnits="userSpaceOnUse">
<stop stop-color="#150305"/>
<stop offset="1" stop-color="#70090F"/>
</linearGradient>
<linearGradient id="paint6_linear_201_1954" x1="22.8244" y1="134.207" x2="14.5303" y2="102.689" gradientUnits="userSpaceOnUse">
<stop stop-color="#6F060A"/>
<stop offset="1" stop-color="#8C080E"/>
</linearGradient>
<linearGradient id="paint7_linear_201_1954" x1="25.7126" y1="133.327" x2="16.9085" y2="101.931" gradientUnits="userSpaceOnUse">
<stop stop-color="#6F060A"/>
<stop offset="1" stop-color="#8C080E"/>
</linearGradient>
<linearGradient id="paint8_linear_201_1954" x1="119.035" y1="174.292" x2="85.9444" y2="175.973" gradientUnits="userSpaceOnUse">
<stop stop-color="#2A0001"/>
<stop offset="1" stop-color="#360103"/>
</linearGradient>
<linearGradient id="paint9_linear_201_1954" x1="119.176" y1="172.305" x2="85.9664" y2="172.298" gradientUnits="userSpaceOnUse">
<stop stop-color="#2A0001"/>
<stop offset="1" stop-color="#360103"/>
</linearGradient>
<linearGradient id="paint10_linear_201_1954" x1="175.436" y1="139.183" x2="187.047" y2="114.3" gradientUnits="userSpaceOnUse">
<stop stop-color="#380103"/>
<stop offset="1" stop-color="#470205"/>
</linearGradient>
<linearGradient id="paint11_linear_201_1954" x1="173.012" y1="138.08" x2="184.526" y2="113.152" gradientUnits="userSpaceOnUse">
<stop stop-color="#380103"/>
<stop offset="1" stop-color="#470205"/>
</linearGradient>
<linearGradient id="paint12_linear_201_1954" x1="165.482" y1="28.043" x2="177.094" y2="42.9723" gradientUnits="userSpaceOnUse">
<stop stop-color="#92090E"/>
<stop offset="1" stop-color="#82070C"/>
</linearGradient>
<linearGradient id="paint13_linear_201_1954" x1="164.157" y1="28.9473" x2="175.386" y2="44.1969" gradientUnits="userSpaceOnUse">
<stop stop-color="#92090E"/>
<stop offset="1" stop-color="#82070C"/>
</linearGradient>
</defs>
</svg>
