<svg width="1600" height="952" viewBox="0 0 1600 952" fill="none" xmlns="http://www.w3.org/2000/svg">
<ellipse cx="30.3559" cy="0.560165" rx="0.528289" ry="0.560165" fill="white"/>
<ellipse cx="109.599" cy="0.560165" rx="0.528289" ry="0.560165" fill="white"/>
<ellipse cx="188.843" cy="0.560165" rx="0.528281" ry="0.560165" fill="white"/>
<ellipse cx="268.086" cy="0.560165" rx="0.528289" ry="0.560165" fill="white"/>
<ellipse cx="347.329" cy="0.560165" rx="0.528289" ry="0.560165" fill="white"/>
<ellipse cx="426.573" cy="0.560165" rx="0.52823" ry="0.560165" fill="white"/>
<ellipse cx="505.816" cy="0.560165" rx="0.528274" ry="0.560165" fill="white"/>
<ellipse cx="585.06" cy="0.560165" rx="0.528303" ry="0.560165" fill="white"/>
<ellipse cx="664.303" cy="0.560165" rx="0.528303" ry="0.560165" fill="white"/>
<ellipse cx="67.3362" cy="56.5764" rx="0.528299" ry="0.560165" fill="white"/>
<ellipse cx="146.58" cy="56.5764" rx="0.528289" ry="0.560165" fill="white"/>
<ellipse cx="225.823" cy="56.5764" rx="0.528274" ry="0.560165" fill="white"/>
<ellipse cx="305.066" cy="56.5764" rx="0.528303" ry="0.560165" fill="white"/>
<ellipse cx="384.31" cy="56.5764" rx="0.528289" ry="0.560165" fill="white"/>
<ellipse cx="463.553" cy="56.5764" rx="0.528303" ry="0.560165" fill="white"/>
<ellipse cx="542.796" cy="56.5764" rx="0.528274" ry="0.560165" fill="white"/>
<ellipse cx="622.04" cy="56.5764" rx="0.528303" ry="0.560165" fill="white"/>
<ellipse cx="701.283" cy="56.5764" rx="0.528303" ry="0.560165" fill="white"/>
<ellipse cx="51.4875" cy="112.593" rx="0.528289" ry="0.560165" fill="white"/>
<ellipse cx="130.731" cy="112.593" rx="0.528289" ry="0.560165" fill="white"/>
<ellipse cx="209.974" cy="112.593" rx="0.528303" ry="0.560165" fill="white"/>
<ellipse cx="289.218" cy="112.593" rx="0.528289" ry="0.560165" fill="white"/>
<ellipse cx="368.461" cy="112.593" rx="0.528289" ry="0.560165" fill="white"/>
<ellipse cx="447.704" cy="112.593" rx="0.528274" ry="0.560165" fill="white"/>
<ellipse cx="526.948" cy="112.593" rx="0.528303" ry="0.560165" fill="white"/>
<ellipse cx="606.191" cy="112.593" rx="0.528303" ry="0.560165" fill="white"/>
<ellipse cx="685.435" cy="112.593" rx="0.528274" ry="0.560165" fill="white"/>
<ellipse cx="67.3362" cy="168.609" rx="0.528299" ry="0.560165" fill="white"/>
<ellipse cx="146.58" cy="168.609" rx="0.528289" ry="0.560165" fill="white"/>
<ellipse cx="225.823" cy="168.609" rx="0.528274" ry="0.560165" fill="white"/>
<ellipse cx="305.066" cy="168.609" rx="0.528303" ry="0.560165" fill="white"/>
<ellipse cx="384.31" cy="168.609" rx="0.528289" ry="0.560165" fill="white"/>
<ellipse cx="463.553" cy="168.609" rx="0.528303" ry="0.560165" fill="white"/>
<ellipse cx="542.796" cy="168.609" rx="0.528274" ry="0.560165" fill="white"/>
<ellipse cx="622.04" cy="168.609" rx="0.528303" ry="0.560165" fill="white"/>
<ellipse cx="701.283" cy="168.609" rx="0.528303" ry="0.560165" fill="white"/>
<ellipse cx="40.9216" cy="225.746" rx="0.528289" ry="0.560165" fill="white"/>
<ellipse cx="120.165" cy="225.746" rx="0.528281" ry="0.560165" fill="white"/>
<ellipse cx="199.408" cy="225.746" rx="0.52831" ry="0.560165" fill="white"/>
<ellipse cx="278.652" cy="225.746" rx="0.528289" ry="0.560165" fill="white"/>
<ellipse cx="357.895" cy="225.746" rx="0.528289" ry="0.560165" fill="white"/>
<ellipse cx="437.139" cy="225.746" rx="0.528332" ry="0.560165" fill="white"/>
<ellipse cx="516.382" cy="225.746" rx="0.528274" ry="0.560165" fill="white"/>
<ellipse cx="595.625" cy="225.746" rx="0.528303" ry="0.560165" fill="white"/>
<ellipse cx="674.869" cy="225.746" rx="0.528274" ry="0.560165" fill="white"/>
<ellipse cx="72.619" cy="281.762" rx="0.528289" ry="0.560165" fill="white"/>
<ellipse cx="151.862" cy="281.762" rx="0.52831" ry="0.560165" fill="white"/>
<ellipse cx="231.106" cy="281.762" rx="0.528289" ry="0.560165" fill="white"/>
<ellipse cx="310.349" cy="281.762" rx="0.528289" ry="0.560165" fill="white"/>
<ellipse cx="389.593" cy="281.762" rx="0.528332" ry="0.560165" fill="white"/>
<ellipse cx="468.836" cy="281.762" rx="0.528216" ry="0.560165" fill="white"/>
<ellipse cx="548.079" cy="281.762" rx="0.528303" ry="0.560165" fill="white"/>
<ellipse cx="627.323" cy="281.762" rx="0.528274" ry="0.560165" fill="white"/>
<ellipse cx="62.0532" cy="337.778" rx="0.528274" ry="0.560165" fill="white"/>
<ellipse cx="141.297" cy="337.778" rx="0.528289" ry="0.560165" fill="white"/>
<ellipse cx="220.54" cy="337.778" rx="0.528318" ry="0.560165" fill="white"/>
<ellipse cx="299.783" cy="337.778" rx="0.528289" ry="0.560165" fill="white"/>
<ellipse cx="379.027" cy="337.778" rx="0.52823" ry="0.560165" fill="white"/>
<ellipse cx="458.27" cy="337.778" rx="0.528332" ry="0.560165" fill="white"/>
<ellipse cx="537.514" cy="337.778" rx="0.528303" ry="0.560165" fill="white"/>
<ellipse cx="616.757" cy="337.778" rx="0.528303" ry="0.560165" fill="white"/>
<ellipse cx="696" cy="337.778" rx="0.528274" ry="0.560165" fill="white"/>
<ellipse cx="14.5072" cy="393.795" rx="0.528292" ry="0.56015" fill="white"/>
<ellipse cx="93.7505" cy="393.795" rx="0.528289" ry="0.56015" fill="white"/>
<ellipse cx="172.994" cy="393.795" rx="0.52831" ry="0.56015" fill="white"/>
<ellipse cx="252.237" cy="393.795" rx="0.528289" ry="0.56015" fill="white"/>
<ellipse cx="331.481" cy="393.795" rx="0.528274" ry="0.56015" fill="white"/>
<ellipse cx="410.724" cy="393.795" rx="0.528332" ry="0.56015" fill="white"/>
<ellipse cx="489.967" cy="393.795" rx="0.528303" ry="0.56015" fill="white"/>
<ellipse cx="569.211" cy="393.795" rx="0.528303" ry="0.56015" fill="white"/>
<ellipse cx="648.454" cy="393.795" rx="0.528274" ry="0.56015" fill="white"/>
<ellipse cx="727.698" cy="393.795" rx="0.528477" ry="0.56015" fill="white"/>
<ellipse cx="51.4875" cy="449.811" rx="0.528289" ry="0.56015" fill="white"/>
<ellipse cx="130.731" cy="449.811" rx="0.528289" ry="0.56015" fill="white"/>
<ellipse cx="209.974" cy="449.811" rx="0.528303" ry="0.56015" fill="white"/>
<ellipse cx="289.218" cy="449.811" rx="0.528289" ry="0.56015" fill="white"/>
<ellipse cx="368.461" cy="449.811" rx="0.528289" ry="0.56015" fill="white"/>
<ellipse cx="447.704" cy="449.811" rx="0.528274" ry="0.56015" fill="white"/>
<ellipse cx="526.948" cy="449.811" rx="0.528303" ry="0.56015" fill="white"/>
<ellipse cx="606.191" cy="449.811" rx="0.528303" ry="0.56015" fill="white"/>
<ellipse cx="685.435" cy="449.811" rx="0.528274" ry="0.56015" fill="white"/>
<ellipse cx="67.3362" cy="505.827" rx="0.528299" ry="0.56015" fill="white"/>
<ellipse cx="146.58" cy="505.827" rx="0.528289" ry="0.56015" fill="white"/>
<ellipse cx="225.823" cy="505.827" rx="0.528274" ry="0.56015" fill="white"/>
<ellipse cx="305.066" cy="505.827" rx="0.528303" ry="0.56015" fill="white"/>
<ellipse cx="384.31" cy="505.827" rx="0.528289" ry="0.56015" fill="white"/>
<ellipse cx="463.553" cy="505.827" rx="0.528303" ry="0.56015" fill="white"/>
<ellipse cx="542.796" cy="505.827" rx="0.528274" ry="0.56015" fill="white"/>
<ellipse cx="622.04" cy="505.827" rx="0.528303" ry="0.56015" fill="white"/>
<ellipse cx="701.283" cy="505.827" rx="0.528303" ry="0.56015" fill="white"/>
<ellipse cx="25.073" cy="567.445" rx="0.528285" ry="0.56015" fill="white"/>
<ellipse cx="104.316" cy="567.445" rx="0.528289" ry="0.56015" fill="white"/>
<ellipse cx="183.56" cy="567.445" rx="0.528281" ry="0.56015" fill="white"/>
<ellipse cx="262.803" cy="567.445" rx="0.528289" ry="0.56015" fill="white"/>
<ellipse cx="342.047" cy="567.445" rx="0.528332" ry="0.56015" fill="white"/>
<ellipse cx="421.29" cy="567.445" rx="0.52823" ry="0.56015" fill="white"/>
<ellipse cx="500.533" cy="567.445" rx="0.528303" ry="0.56015" fill="white"/>
<ellipse cx="579.777" cy="567.445" rx="0.528274" ry="0.56015" fill="white"/>
<ellipse cx="659.02" cy="567.445" rx="0.528274" ry="0.56015" fill="white"/>
<ellipse cx="738.264" cy="567.445" rx="0.528303" ry="0.56015" fill="white"/>
<ellipse cx="72.619" cy="629.063" rx="0.528289" ry="0.560181" fill="white"/>
<ellipse cx="151.862" cy="629.063" rx="0.52831" ry="0.560181" fill="white"/>
<ellipse cx="231.106" cy="629.063" rx="0.528289" ry="0.560181" fill="white"/>
<ellipse cx="310.349" cy="629.063" rx="0.528289" ry="0.560181" fill="white"/>
<ellipse cx="389.593" cy="629.063" rx="0.528332" ry="0.560181" fill="white"/>
<ellipse cx="468.836" cy="629.063" rx="0.528216" ry="0.560181" fill="white"/>
<ellipse cx="548.079" cy="629.063" rx="0.528303" ry="0.560181" fill="white"/>
<ellipse cx="627.323" cy="629.063" rx="0.528274" ry="0.560181" fill="white"/>
<ellipse cx="706.566" cy="629.063" rx="0.528274" ry="0.560181" fill="white"/>
<ellipse cx="35.6387" cy="689.561" rx="0.528285" ry="0.560181" fill="white"/>
<ellipse cx="114.882" cy="689.561" rx="0.528281" ry="0.560181" fill="white"/>
<ellipse cx="194.125" cy="689.561" rx="0.52831" ry="0.560181" fill="white"/>
<ellipse cx="273.369" cy="689.561" rx="0.528274" ry="0.560181" fill="white"/>
<ellipse cx="352.612" cy="689.561" rx="0.528274" ry="0.560181" fill="white"/>
<ellipse cx="431.856" cy="689.561" rx="0.528289" ry="0.560181" fill="white"/>
<ellipse cx="511.099" cy="689.561" rx="0.528303" ry="0.560181" fill="white"/>
<ellipse cx="590.342" cy="689.561" rx="0.528274" ry="0.560181" fill="white"/>
<ellipse cx="669.586" cy="689.561" rx="0.528303" ry="0.560181" fill="white"/>
<ellipse cx="3.94143" cy="751.179" rx="0.528287" ry="0.560181" fill="white"/>
<ellipse cx="83.1847" cy="751.179" rx="0.528289" ry="0.560181" fill="white"/>
<ellipse cx="162.428" cy="751.179" rx="0.528296" ry="0.560181" fill="white"/>
<ellipse cx="241.672" cy="751.179" rx="0.528289" ry="0.560181" fill="white"/>
<ellipse cx="320.915" cy="751.179" rx="0.528274" ry="0.560181" fill="white"/>
<ellipse cx="400.158" cy="751.179" rx="0.528274" ry="0.560181" fill="white"/>
<ellipse cx="479.402" cy="751.179" rx="0.528303" ry="0.560181" fill="white"/>
<ellipse cx="558.645" cy="751.179" rx="0.528303" ry="0.560181" fill="white"/>
<ellipse cx="637.888" cy="751.179" rx="0.528274" ry="0.560181" fill="white"/>
<ellipse cx="717.132" cy="751.179" rx="0.528303" ry="0.560181" fill="white"/>
<ellipse cx="51.4875" cy="812.797" rx="0.528289" ry="0.56015" fill="white"/>
<ellipse cx="130.731" cy="812.797" rx="0.528289" ry="0.56015" fill="white"/>
<ellipse cx="209.974" cy="812.797" rx="0.528303" ry="0.56015" fill="white"/>
<ellipse cx="289.218" cy="812.797" rx="0.528289" ry="0.56015" fill="white"/>
<ellipse cx="368.461" cy="812.797" rx="0.528289" ry="0.56015" fill="white"/>
<ellipse cx="447.704" cy="812.797" rx="0.528274" ry="0.56015" fill="white"/>
<ellipse cx="526.948" cy="812.797" rx="0.528303" ry="0.56015" fill="white"/>
<ellipse cx="606.191" cy="812.797" rx="0.528303" ry="0.56015" fill="white"/>
<ellipse cx="685.435" cy="812.797" rx="0.528274" ry="0.56015" fill="white"/>
<ellipse cx="3.94143" cy="874.415" rx="0.528287" ry="0.56015" fill="white"/>
<ellipse cx="83.1847" cy="874.415" rx="0.528289" ry="0.56015" fill="white"/>
<ellipse cx="162.428" cy="874.415" rx="0.528296" ry="0.56015" fill="white"/>
<ellipse cx="241.672" cy="874.415" rx="0.528289" ry="0.56015" fill="white"/>
<ellipse cx="320.915" cy="874.415" rx="0.528274" ry="0.56015" fill="white"/>
<ellipse cx="400.158" cy="874.415" rx="0.528274" ry="0.56015" fill="white"/>
<ellipse cx="479.402" cy="874.415" rx="0.528303" ry="0.56015" fill="white"/>
<ellipse cx="558.645" cy="874.415" rx="0.528303" ry="0.56015" fill="white"/>
<ellipse cx="637.888" cy="874.415" rx="0.528274" ry="0.56015" fill="white"/>
<ellipse cx="62.0532" cy="930.431" rx="0.528274" ry="0.56015" fill="white"/>
<ellipse cx="141.297" cy="930.431" rx="0.528289" ry="0.56015" fill="white"/>
<ellipse cx="220.54" cy="930.431" rx="0.528318" ry="0.56015" fill="white"/>
<ellipse cx="299.783" cy="930.431" rx="0.528289" ry="0.56015" fill="white"/>
<ellipse cx="379.027" cy="930.431" rx="0.52823" ry="0.56015" fill="white"/>
<ellipse cx="458.27" cy="930.431" rx="0.528332" ry="0.56015" fill="white"/>
<ellipse cx="537.514" cy="930.431" rx="0.528303" ry="0.56015" fill="white"/>
<ellipse cx="616.757" cy="930.431" rx="0.528303" ry="0.56015" fill="white"/>
<ellipse cx="616.757" cy="930.431" rx="0.528303" ry="0.56015" fill="white"/>
<ellipse cx="717.132" cy="874.415" rx="0.528303" ry="0.56015" fill="white"/>
<ellipse cx="56.7704" cy="6.16173" rx="0.528289" ry="0.560165" fill="white"/>
<ellipse cx="136.014" cy="6.16173" rx="0.528281" ry="0.560165" fill="white"/>
<ellipse cx="215.257" cy="6.16173" rx="0.528259" ry="0.560165" fill="white"/>
<ellipse cx="294.501" cy="6.16173" rx="0.528289" ry="0.560165" fill="white"/>
<ellipse cx="373.744" cy="6.16173" rx="0.52823" ry="0.560165" fill="white"/>
<ellipse cx="452.987" cy="6.16173" rx="0.528303" ry="0.560165" fill="white"/>
<ellipse cx="532.231" cy="6.16173" rx="0.528274" ry="0.560165" fill="white"/>
<ellipse cx="611.474" cy="6.16173" rx="0.528274" ry="0.560165" fill="white"/>
<ellipse cx="690.718" cy="6.16173" rx="0.528303" ry="0.560165" fill="white"/>
<ellipse cx="14.5072" cy="62.1781" rx="0.528292" ry="0.560165" fill="white"/>
<ellipse cx="93.7505" cy="62.1781" rx="0.528289" ry="0.560165" fill="white"/>
<ellipse cx="172.994" cy="62.1781" rx="0.52831" ry="0.560165" fill="white"/>
<ellipse cx="252.237" cy="62.1781" rx="0.528289" ry="0.560165" fill="white"/>
<ellipse cx="331.481" cy="62.1781" rx="0.528274" ry="0.560165" fill="white"/>
<ellipse cx="410.724" cy="62.1781" rx="0.528332" ry="0.560165" fill="white"/>
<ellipse cx="489.967" cy="62.1781" rx="0.528303" ry="0.560165" fill="white"/>
<ellipse cx="569.211" cy="62.1781" rx="0.528303" ry="0.560165" fill="white"/>
<ellipse cx="648.454" cy="62.1781" rx="0.528274" ry="0.560165" fill="white"/>
<ellipse cx="727.698" cy="62.1781" rx="0.528477" ry="0.560165" fill="white"/>
<ellipse cx="77.9019" cy="118.194" rx="0.528289" ry="0.560165" fill="white"/>
<ellipse cx="157.145" cy="118.194" rx="0.528267" ry="0.560165" fill="white"/>
<ellipse cx="236.389" cy="118.194" rx="0.528274" ry="0.560165" fill="white"/>
<ellipse cx="315.632" cy="118.194" rx="0.528289" ry="0.560165" fill="white"/>
<ellipse cx="394.875" cy="118.194" rx="0.528289" ry="0.560165" fill="white"/>
<ellipse cx="474.119" cy="118.194" rx="0.528245" ry="0.560165" fill="white"/>
<ellipse cx="553.362" cy="118.194" rx="0.528274" ry="0.560165" fill="white"/>
<ellipse cx="632.606" cy="118.194" rx="0.528303" ry="0.560165" fill="white"/>
<ellipse cx="711.849" cy="118.194" rx="0.528303" ry="0.560165" fill="white"/>
<ellipse cx="14.5072" cy="174.211" rx="0.528292" ry="0.560165" fill="white"/>
<ellipse cx="93.7505" cy="174.211" rx="0.528289" ry="0.560165" fill="white"/>
<ellipse cx="172.994" cy="174.211" rx="0.52831" ry="0.560165" fill="white"/>
<ellipse cx="252.237" cy="174.211" rx="0.528289" ry="0.560165" fill="white"/>
<ellipse cx="331.481" cy="174.211" rx="0.528274" ry="0.560165" fill="white"/>
<ellipse cx="410.724" cy="174.211" rx="0.528332" ry="0.560165" fill="white"/>
<ellipse cx="489.967" cy="174.211" rx="0.528303" ry="0.560165" fill="white"/>
<ellipse cx="569.211" cy="174.211" rx="0.528303" ry="0.560165" fill="white"/>
<ellipse cx="648.454" cy="174.211" rx="0.528274" ry="0.560165" fill="white"/>
<ellipse cx="727.698" cy="174.211" rx="0.528477" ry="0.560165" fill="white"/>
<ellipse cx="67.3362" cy="231.347" rx="0.528299" ry="0.560165" fill="white"/>
<ellipse cx="146.58" cy="231.347" rx="0.528289" ry="0.560165" fill="white"/>
<ellipse cx="225.823" cy="231.347" rx="0.528274" ry="0.560165" fill="white"/>
<ellipse cx="305.066" cy="231.347" rx="0.528303" ry="0.560165" fill="white"/>
<ellipse cx="384.31" cy="231.347" rx="0.528289" ry="0.560165" fill="white"/>
<ellipse cx="463.553" cy="231.347" rx="0.528303" ry="0.560165" fill="white"/>
<ellipse cx="542.796" cy="231.347" rx="0.528274" ry="0.560165" fill="white"/>
<ellipse cx="622.04" cy="231.347" rx="0.528303" ry="0.560165" fill="white"/>
<ellipse cx="701.283" cy="231.347" rx="0.528303" ry="0.560165" fill="white"/>
<ellipse cx="19.7901" cy="287.364" rx="0.528289" ry="0.560165" fill="white"/>
<ellipse cx="99.0335" cy="287.364" rx="0.528289" ry="0.560165" fill="white"/>
<ellipse cx="178.277" cy="287.364" rx="0.528281" ry="0.560165" fill="white"/>
<ellipse cx="257.52" cy="287.364" rx="0.528303" ry="0.560165" fill="white"/>
<ellipse cx="336.764" cy="287.364" rx="0.528289" ry="0.560165" fill="white"/>
<ellipse cx="416.007" cy="287.364" rx="0.528289" ry="0.560165" fill="white"/>
<ellipse cx="495.25" cy="287.364" rx="0.528274" ry="0.560165" fill="white"/>
<ellipse cx="574.494" cy="287.364" rx="0.528303" ry="0.560165" fill="white"/>
<ellipse cx="653.737" cy="287.364" rx="0.528303" ry="0.560165" fill="white"/>
<ellipse cx="9.22427" cy="343.38" rx="0.528281" ry="0.560165" fill="white"/>
<ellipse cx="88.4676" cy="343.38" rx="0.528296" ry="0.560165" fill="white"/>
<ellipse cx="167.711" cy="343.38" rx="0.528259" ry="0.560165" fill="white"/>
<ellipse cx="246.954" cy="343.38" rx="0.528289" ry="0.560165" fill="white"/>
<ellipse cx="326.198" cy="343.38" rx="0.528289" ry="0.560165" fill="white"/>
<ellipse cx="405.441" cy="343.38" rx="0.528289" ry="0.560165" fill="white"/>
<ellipse cx="484.685" cy="343.38" rx="0.528332" ry="0.560165" fill="white"/>
<ellipse cx="563.928" cy="343.38" rx="0.528274" ry="0.560165" fill="white"/>
<ellipse cx="643.171" cy="343.38" rx="0.528303" ry="0.560165" fill="white"/>
<ellipse cx="722.415" cy="343.38" rx="0.528187" ry="0.560165" fill="white"/>
<ellipse cx="40.9216" cy="399.396" rx="0.528289" ry="0.56015" fill="white"/>
<ellipse cx="120.165" cy="399.396" rx="0.528281" ry="0.56015" fill="white"/>
<ellipse cx="199.408" cy="399.396" rx="0.52831" ry="0.56015" fill="white"/>
<ellipse cx="278.652" cy="399.396" rx="0.528289" ry="0.56015" fill="white"/>
<ellipse cx="357.895" cy="399.396" rx="0.528289" ry="0.56015" fill="white"/>
<ellipse cx="437.139" cy="399.396" rx="0.528332" ry="0.56015" fill="white"/>
<ellipse cx="516.382" cy="399.396" rx="0.528274" ry="0.56015" fill="white"/>
<ellipse cx="595.625" cy="399.396" rx="0.528303" ry="0.56015" fill="white"/>
<ellipse cx="674.869" cy="399.396" rx="0.528274" ry="0.56015" fill="white"/>
<ellipse cx="754.112" cy="398.276" rx="0.528158" ry="0.56015" fill="white"/>
<ellipse cx="77.9019" cy="455.413" rx="0.528289" ry="0.560181" fill="white"/>
<ellipse cx="157.145" cy="455.413" rx="0.528267" ry="0.560181" fill="white"/>
<ellipse cx="236.389" cy="455.413" rx="0.528274" ry="0.560181" fill="white"/>
<ellipse cx="315.632" cy="455.413" rx="0.528289" ry="0.560181" fill="white"/>
<ellipse cx="394.875" cy="455.413" rx="0.528289" ry="0.560181" fill="white"/>
<ellipse cx="474.119" cy="455.413" rx="0.528245" ry="0.560181" fill="white"/>
<ellipse cx="553.362" cy="455.413" rx="0.528274" ry="0.560181" fill="white"/>
<ellipse cx="632.606" cy="455.413" rx="0.528303" ry="0.560181" fill="white"/>
<ellipse cx="711.849" cy="455.413" rx="0.528303" ry="0.560181" fill="white"/>
<ellipse cx="14.5072" cy="511.429" rx="0.528292" ry="0.560181" fill="white"/>
<ellipse cx="93.7505" cy="511.429" rx="0.528289" ry="0.560181" fill="white"/>
<ellipse cx="172.994" cy="511.429" rx="0.52831" ry="0.560181" fill="white"/>
<ellipse cx="252.237" cy="511.429" rx="0.528289" ry="0.560181" fill="white"/>
<ellipse cx="331.481" cy="511.429" rx="0.528274" ry="0.560181" fill="white"/>
<ellipse cx="410.724" cy="511.429" rx="0.528332" ry="0.560181" fill="white"/>
<ellipse cx="489.967" cy="511.429" rx="0.528303" ry="0.560181" fill="white"/>
<ellipse cx="569.211" cy="511.429" rx="0.528303" ry="0.560181" fill="white"/>
<ellipse cx="648.454" cy="511.429" rx="0.528274" ry="0.560181" fill="white"/>
<ellipse cx="727.698" cy="511.429" rx="0.528477" ry="0.560181" fill="white"/>
<ellipse cx="51.4875" cy="573.047" rx="0.528289" ry="0.56015" fill="white"/>
<ellipse cx="130.731" cy="573.047" rx="0.528289" ry="0.56015" fill="white"/>
<ellipse cx="209.974" cy="573.047" rx="0.528303" ry="0.56015" fill="white"/>
<ellipse cx="289.218" cy="573.047" rx="0.528289" ry="0.56015" fill="white"/>
<ellipse cx="368.461" cy="573.047" rx="0.528289" ry="0.56015" fill="white"/>
<ellipse cx="447.704" cy="573.047" rx="0.528274" ry="0.56015" fill="white"/>
<ellipse cx="526.948" cy="573.047" rx="0.528303" ry="0.56015" fill="white"/>
<ellipse cx="606.191" cy="573.047" rx="0.528303" ry="0.56015" fill="white"/>
<ellipse cx="685.435" cy="573.047" rx="0.528274" ry="0.56015" fill="white"/>
<ellipse cx="764.678" cy="571.927" rx="0.528303" ry="0.560181" fill="white"/>
<ellipse cx="19.7901" cy="634.665" rx="0.528289" ry="0.56015" fill="white"/>
<ellipse cx="99.0335" cy="634.665" rx="0.528289" ry="0.56015" fill="white"/>
<ellipse cx="178.277" cy="634.665" rx="0.528281" ry="0.56015" fill="white"/>
<ellipse cx="257.52" cy="634.665" rx="0.528303" ry="0.56015" fill="white"/>
<ellipse cx="336.764" cy="634.665" rx="0.528289" ry="0.56015" fill="white"/>
<ellipse cx="416.007" cy="634.665" rx="0.528289" ry="0.56015" fill="white"/>
<ellipse cx="495.25" cy="634.665" rx="0.528274" ry="0.56015" fill="white"/>
<ellipse cx="574.494" cy="634.665" rx="0.528303" ry="0.56015" fill="white"/>
<ellipse cx="653.737" cy="634.665" rx="0.528303" ry="0.56015" fill="white"/>
<ellipse cx="732.98" cy="634.665" rx="0.528303" ry="0.56015" fill="white"/>
<ellipse cx="62.0532" cy="695.163" rx="0.528274" ry="0.56015" fill="white"/>
<ellipse cx="141.297" cy="695.163" rx="0.528289" ry="0.56015" fill="white"/>
<ellipse cx="220.54" cy="695.163" rx="0.528318" ry="0.56015" fill="white"/>
<ellipse cx="299.783" cy="695.163" rx="0.528289" ry="0.56015" fill="white"/>
<ellipse cx="379.027" cy="695.163" rx="0.52823" ry="0.56015" fill="white"/>
<ellipse cx="458.27" cy="695.163" rx="0.528332" ry="0.56015" fill="white"/>
<ellipse cx="537.514" cy="695.163" rx="0.528303" ry="0.56015" fill="white"/>
<ellipse cx="616.757" cy="695.163" rx="0.528303" ry="0.56015" fill="white"/>
<ellipse cx="696" cy="695.163" rx="0.528274" ry="0.56015" fill="white"/>
<ellipse cx="30.3559" cy="756.781" rx="0.528289" ry="0.560181" fill="white"/>
<ellipse cx="109.599" cy="756.781" rx="0.528289" ry="0.560181" fill="white"/>
<ellipse cx="188.843" cy="756.781" rx="0.528281" ry="0.560181" fill="white"/>
<ellipse cx="268.086" cy="756.781" rx="0.528289" ry="0.560181" fill="white"/>
<ellipse cx="347.329" cy="756.781" rx="0.528289" ry="0.560181" fill="white"/>
<ellipse cx="426.573" cy="756.781" rx="0.52823" ry="0.560181" fill="white"/>
<ellipse cx="505.816" cy="756.781" rx="0.528274" ry="0.560181" fill="white"/>
<ellipse cx="585.06" cy="756.781" rx="0.528303" ry="0.560181" fill="white"/>
<ellipse cx="664.303" cy="756.781" rx="0.528303" ry="0.560181" fill="white"/>
<ellipse cx="743.546" cy="756.781" rx="0.528303" ry="0.560181" fill="white"/>
<ellipse cx="77.9019" cy="818.399" rx="0.528289" ry="0.560181" fill="white"/>
<ellipse cx="157.145" cy="818.399" rx="0.528267" ry="0.560181" fill="white"/>
<ellipse cx="236.389" cy="818.399" rx="0.528274" ry="0.560181" fill="white"/>
<ellipse cx="315.632" cy="818.399" rx="0.528289" ry="0.560181" fill="white"/>
<ellipse cx="394.875" cy="818.399" rx="0.528289" ry="0.560181" fill="white"/>
<ellipse cx="474.119" cy="818.399" rx="0.528245" ry="0.560181" fill="white"/>
<ellipse cx="553.362" cy="818.399" rx="0.528274" ry="0.560181" fill="white"/>
<ellipse cx="632.606" cy="818.399" rx="0.528303" ry="0.560181" fill="white"/>
<ellipse cx="711.849" cy="818.399" rx="0.528303" ry="0.560181" fill="white"/>
<ellipse cx="30.3559" cy="880.017" rx="0.528289" ry="0.56015" fill="white"/>
<ellipse cx="109.599" cy="880.017" rx="0.528289" ry="0.56015" fill="white"/>
<ellipse cx="188.843" cy="880.017" rx="0.528281" ry="0.56015" fill="white"/>
<ellipse cx="268.086" cy="880.017" rx="0.528289" ry="0.56015" fill="white"/>
<ellipse cx="347.329" cy="880.017" rx="0.528289" ry="0.56015" fill="white"/>
<ellipse cx="426.573" cy="880.017" rx="0.52823" ry="0.56015" fill="white"/>
<ellipse cx="505.816" cy="880.017" rx="0.528274" ry="0.56015" fill="white"/>
<ellipse cx="585.06" cy="880.017" rx="0.528303" ry="0.56015" fill="white"/>
<ellipse cx="664.303" cy="880.017" rx="0.528303" ry="0.56015" fill="white"/>
<ellipse cx="9.22427" cy="936.033" rx="0.528281" ry="0.56015" fill="white"/>
<ellipse cx="88.4676" cy="936.033" rx="0.528296" ry="0.56015" fill="white"/>
<ellipse cx="167.711" cy="936.033" rx="0.528259" ry="0.56015" fill="white"/>
<ellipse cx="246.954" cy="936.033" rx="0.528289" ry="0.56015" fill="white"/>
<ellipse cx="326.198" cy="936.033" rx="0.528289" ry="0.56015" fill="white"/>
<ellipse cx="405.441" cy="936.033" rx="0.528289" ry="0.56015" fill="white"/>
<ellipse cx="484.685" cy="936.033" rx="0.528332" ry="0.56015" fill="white"/>
<ellipse cx="563.928" cy="936.033" rx="0.528274" ry="0.56015" fill="white"/>
<ellipse cx="643.171" cy="936.033" rx="0.528303" ry="0.56015" fill="white"/>
<ellipse cx="643.171" cy="936.033" rx="0.528303" ry="0.56015" fill="white"/>
<ellipse cx="743.546" cy="880.017" rx="0.528303" ry="0.56015" fill="white"/>
<ellipse cx="0.771634" cy="28.5684" rx="0.528287" ry="0.560165" fill="white"/>
<ellipse cx="80.0151" cy="28.5684" rx="0.528303" ry="0.560165" fill="white"/>
<ellipse cx="159.258" cy="28.5684" rx="0.528267" ry="0.560165" fill="white"/>
<ellipse cx="238.502" cy="28.5684" rx="0.528289" ry="0.560165" fill="white"/>
<ellipse cx="317.745" cy="28.5684" rx="0.528289" ry="0.560165" fill="white"/>
<ellipse cx="396.989" cy="28.5684" rx="0.528332" ry="0.560165" fill="white"/>
<ellipse cx="476.232" cy="28.5684" rx="0.528303" ry="0.560165" fill="white"/>
<ellipse cx="555.475" cy="28.5684" rx="0.528274" ry="0.560165" fill="white"/>
<ellipse cx="634.719" cy="28.5684" rx="0.528274" ry="0.560165" fill="white"/>
<ellipse cx="37.7519" cy="84.5846" rx="0.528289" ry="0.560165" fill="white"/>
<ellipse cx="116.995" cy="84.5846" rx="0.528289" ry="0.560165" fill="white"/>
<ellipse cx="196.239" cy="84.5846" rx="0.528267" ry="0.560165" fill="white"/>
<ellipse cx="275.482" cy="84.5846" rx="0.528274" ry="0.560165" fill="white"/>
<ellipse cx="354.725" cy="84.5846" rx="0.528303" ry="0.560165" fill="white"/>
<ellipse cx="433.969" cy="84.5846" rx="0.528332" ry="0.560165" fill="white"/>
<ellipse cx="513.212" cy="84.5846" rx="0.528274" ry="0.560165" fill="white"/>
<ellipse cx="592.456" cy="84.5846" rx="0.528303" ry="0.560165" fill="white"/>
<ellipse cx="671.699" cy="84.5846" rx="0.528274" ry="0.560165" fill="white"/>
<ellipse cx="21.9033" cy="140.601" rx="0.528289" ry="0.560165" fill="white"/>
<ellipse cx="101.147" cy="140.601" rx="0.528289" ry="0.560165" fill="white"/>
<ellipse cx="180.39" cy="140.601" rx="0.528281" ry="0.560165" fill="white"/>
<ellipse cx="259.633" cy="140.601" rx="0.528289" ry="0.560165" fill="white"/>
<ellipse cx="338.877" cy="140.601" rx="0.528332" ry="0.560165" fill="white"/>
<ellipse cx="418.12" cy="140.601" rx="0.528289" ry="0.560165" fill="white"/>
<ellipse cx="497.364" cy="140.601" rx="0.528303" ry="0.560165" fill="white"/>
<ellipse cx="576.607" cy="140.601" rx="0.528274" ry="0.560165" fill="white"/>
<ellipse cx="655.85" cy="140.601" rx="0.528274" ry="0.560165" fill="white"/>
<ellipse cx="37.7519" cy="196.617" rx="0.528289" ry="0.560165" fill="white"/>
<ellipse cx="116.995" cy="196.617" rx="0.528289" ry="0.560165" fill="white"/>
<ellipse cx="196.239" cy="196.617" rx="0.528267" ry="0.560165" fill="white"/>
<ellipse cx="275.482" cy="196.617" rx="0.528274" ry="0.560165" fill="white"/>
<ellipse cx="354.725" cy="196.617" rx="0.528303" ry="0.560165" fill="white"/>
<ellipse cx="433.969" cy="196.617" rx="0.528332" ry="0.560165" fill="white"/>
<ellipse cx="513.212" cy="196.617" rx="0.528274" ry="0.560165" fill="white"/>
<ellipse cx="592.456" cy="196.617" rx="0.528303" ry="0.560165" fill="white"/>
<ellipse cx="671.699" cy="196.617" rx="0.528274" ry="0.560165" fill="white"/>
<ellipse cx="11.3374" cy="253.754" rx="0.528279" ry="0.560165" fill="white"/>
<ellipse cx="90.5808" cy="253.754" rx="0.528289" ry="0.560165" fill="white"/>
<ellipse cx="169.824" cy="253.754" rx="0.528289" ry="0.560165" fill="white"/>
<ellipse cx="249.068" cy="253.754" rx="0.528289" ry="0.560165" fill="white"/>
<ellipse cx="328.311" cy="253.754" rx="0.528289" ry="0.560165" fill="white"/>
<ellipse cx="407.554" cy="253.754" rx="0.52823" ry="0.560165" fill="white"/>
<ellipse cx="486.798" cy="253.754" rx="0.528274" ry="0.560165" fill="white"/>
<ellipse cx="566.041" cy="253.754" rx="0.528274" ry="0.560165" fill="white"/>
<ellipse cx="645.284" cy="253.754" rx="0.528303" ry="0.560165" fill="white"/>
<ellipse cx="43.0348" cy="309.77" rx="0.528289" ry="0.560165" fill="white"/>
<ellipse cx="122.278" cy="309.77" rx="0.528289" ry="0.560165" fill="white"/>
<ellipse cx="201.522" cy="309.77" rx="0.528289" ry="0.560165" fill="white"/>
<ellipse cx="280.765" cy="309.77" rx="0.528289" ry="0.560165" fill="white"/>
<ellipse cx="360.008" cy="309.77" rx="0.52823" ry="0.560165" fill="white"/>
<ellipse cx="439.252" cy="309.77" rx="0.528289" ry="0.560165" fill="white"/>
<ellipse cx="518.495" cy="309.77" rx="0.528274" ry="0.560165" fill="white"/>
<ellipse cx="597.739" cy="309.77" rx="0.528303" ry="0.560165" fill="white"/>
<ellipse cx="32.4691" cy="365.786" rx="0.528289" ry="0.56015" fill="white"/>
<ellipse cx="111.712" cy="365.786" rx="0.528289" ry="0.56015" fill="white"/>
<ellipse cx="190.956" cy="365.786" rx="0.528267" ry="0.56015" fill="white"/>
<ellipse cx="270.199" cy="365.786" rx="0.528289" ry="0.56015" fill="white"/>
<ellipse cx="349.443" cy="365.786" rx="0.528332" ry="0.56015" fill="white"/>
<ellipse cx="428.686" cy="365.786" rx="0.528289" ry="0.56015" fill="white"/>
<ellipse cx="507.929" cy="365.786" rx="0.528274" ry="0.56015" fill="white"/>
<ellipse cx="587.173" cy="365.786" rx="0.528274" ry="0.56015" fill="white"/>
<ellipse cx="666.416" cy="365.786" rx="0.528303" ry="0.56015" fill="white"/>
<ellipse cx="64.1664" cy="421.803" rx="0.528289" ry="0.560181" fill="white"/>
<ellipse cx="143.41" cy="421.803" rx="0.528289" ry="0.560181" fill="white"/>
<ellipse cx="222.653" cy="421.803" rx="0.528289" ry="0.560181" fill="white"/>
<ellipse cx="301.897" cy="421.803" rx="0.528289" ry="0.560181" fill="white"/>
<ellipse cx="381.14" cy="421.803" rx="0.528289" ry="0.560181" fill="white"/>
<ellipse cx="460.383" cy="421.803" rx="0.528216" ry="0.560181" fill="white"/>
<ellipse cx="539.627" cy="421.803" rx="0.528274" ry="0.560181" fill="white"/>
<ellipse cx="618.87" cy="421.803" rx="0.528303" ry="0.560181" fill="white"/>
<ellipse cx="698.113" cy="421.803" rx="0.528274" ry="0.560181" fill="white"/>
<ellipse cx="21.9033" cy="477.819" rx="0.528289" ry="0.56015" fill="white"/>
<ellipse cx="101.147" cy="477.819" rx="0.528289" ry="0.56015" fill="white"/>
<ellipse cx="180.39" cy="477.819" rx="0.528281" ry="0.56015" fill="white"/>
<ellipse cx="259.633" cy="477.819" rx="0.528289" ry="0.56015" fill="white"/>
<ellipse cx="338.877" cy="477.819" rx="0.528332" ry="0.56015" fill="white"/>
<ellipse cx="418.12" cy="477.819" rx="0.528289" ry="0.56015" fill="white"/>
<ellipse cx="497.364" cy="477.819" rx="0.528303" ry="0.56015" fill="white"/>
<ellipse cx="576.607" cy="477.819" rx="0.528274" ry="0.56015" fill="white"/>
<ellipse cx="655.85" cy="477.819" rx="0.528274" ry="0.56015" fill="white"/>
<ellipse cx="37.7519" cy="533.836" rx="0.528289" ry="0.560181" fill="white"/>
<ellipse cx="116.995" cy="533.836" rx="0.528289" ry="0.560181" fill="white"/>
<ellipse cx="196.239" cy="533.836" rx="0.528267" ry="0.560181" fill="white"/>
<ellipse cx="275.482" cy="533.836" rx="0.528274" ry="0.560181" fill="white"/>
<ellipse cx="354.725" cy="533.836" rx="0.528303" ry="0.560181" fill="white"/>
<ellipse cx="433.969" cy="533.836" rx="0.528332" ry="0.560181" fill="white"/>
<ellipse cx="513.212" cy="533.836" rx="0.528274" ry="0.560181" fill="white"/>
<ellipse cx="592.456" cy="533.836" rx="0.528303" ry="0.560181" fill="white"/>
<ellipse cx="671.699" cy="533.836" rx="0.528274" ry="0.560181" fill="white"/>
<ellipse cx="74.7322" cy="595.453" rx="0.528274" ry="0.56015" fill="white"/>
<ellipse cx="153.976" cy="595.453" rx="0.528296" ry="0.56015" fill="white"/>
<ellipse cx="233.219" cy="595.453" rx="0.528289" ry="0.56015" fill="white"/>
<ellipse cx="312.462" cy="595.453" rx="0.528274" ry="0.56015" fill="white"/>
<ellipse cx="391.706" cy="595.453" rx="0.528289" ry="0.56015" fill="white"/>
<ellipse cx="470.949" cy="595.453" rx="0.528332" ry="0.56015" fill="white"/>
<ellipse cx="550.193" cy="595.453" rx="0.528303" ry="0.56015" fill="white"/>
<ellipse cx="629.436" cy="595.453" rx="0.528274" ry="0.56015" fill="white"/>
<ellipse cx="708.679" cy="595.453" rx="0.528274" ry="0.56015" fill="white"/>
<ellipse cx="43.0348" cy="657.071" rx="0.528289" ry="0.560181" fill="white"/>
<ellipse cx="122.278" cy="657.071" rx="0.528289" ry="0.560181" fill="white"/>
<ellipse cx="201.522" cy="657.071" rx="0.528289" ry="0.560181" fill="white"/>
<ellipse cx="280.765" cy="657.071" rx="0.528289" ry="0.560181" fill="white"/>
<ellipse cx="360.008" cy="657.071" rx="0.52823" ry="0.560181" fill="white"/>
<ellipse cx="439.252" cy="657.071" rx="0.528289" ry="0.560181" fill="white"/>
<ellipse cx="518.495" cy="657.071" rx="0.528274" ry="0.560181" fill="white"/>
<ellipse cx="597.739" cy="657.071" rx="0.528303" ry="0.560181" fill="white"/>
<ellipse cx="676.982" cy="657.071" rx="0.528274" ry="0.560181" fill="white"/>
<ellipse cx="6.0546" cy="717.569" rx="0.528292" ry="0.560119" fill="white"/>
<ellipse cx="85.2979" cy="717.569" rx="0.528274" ry="0.560119" fill="white"/>
<ellipse cx="164.541" cy="717.569" rx="0.528318" ry="0.560119" fill="white"/>
<ellipse cx="243.785" cy="717.569" rx="0.528289" ry="0.560119" fill="white"/>
<ellipse cx="323.028" cy="717.569" rx="0.528274" ry="0.560119" fill="white"/>
<ellipse cx="402.272" cy="717.569" rx="0.528303" ry="0.560119" fill="white"/>
<ellipse cx="481.515" cy="717.569" rx="0.528332" ry="0.560119" fill="white"/>
<ellipse cx="560.758" cy="717.569" rx="0.528274" ry="0.560119" fill="white"/>
<ellipse cx="640.002" cy="717.569" rx="0.528303" ry="0.560119" fill="white"/>
<ellipse cx="53.6006" cy="779.187" rx="0.528274" ry="0.560181" fill="white"/>
<ellipse cx="132.844" cy="779.187" rx="0.528289" ry="0.560181" fill="white"/>
<ellipse cx="212.088" cy="779.187" rx="0.528318" ry="0.560181" fill="white"/>
<ellipse cx="291.331" cy="779.187" rx="0.528289" ry="0.560181" fill="white"/>
<ellipse cx="370.574" cy="779.187" rx="0.528289" ry="0.560181" fill="white"/>
<ellipse cx="449.818" cy="779.187" rx="0.528303" ry="0.560181" fill="white"/>
<ellipse cx="529.061" cy="779.187" rx="0.528274" ry="0.560181" fill="white"/>
<ellipse cx="608.304" cy="779.187" rx="0.528274" ry="0.560181" fill="white"/>
<ellipse cx="687.548" cy="779.187" rx="0.528303" ry="0.560181" fill="white"/>
<ellipse cx="21.9033" cy="840.805" rx="0.528289" ry="0.56015" fill="white"/>
<ellipse cx="101.147" cy="840.805" rx="0.528289" ry="0.56015" fill="white"/>
<ellipse cx="180.39" cy="840.805" rx="0.528281" ry="0.56015" fill="white"/>
<ellipse cx="259.633" cy="840.805" rx="0.528289" ry="0.56015" fill="white"/>
<ellipse cx="338.877" cy="840.805" rx="0.528332" ry="0.56015" fill="white"/>
<ellipse cx="418.12" cy="840.805" rx="0.528289" ry="0.56015" fill="white"/>
<ellipse cx="497.364" cy="840.805" rx="0.528303" ry="0.56015" fill="white"/>
<ellipse cx="576.607" cy="840.805" rx="0.528274" ry="0.56015" fill="white"/>
<ellipse cx="655.85" cy="840.805" rx="0.528274" ry="0.56015" fill="white"/>
<ellipse cx="53.6006" cy="902.423" rx="0.528274" ry="0.560088" fill="white"/>
<ellipse cx="132.844" cy="902.423" rx="0.528289" ry="0.560088" fill="white"/>
<ellipse cx="212.088" cy="902.423" rx="0.528318" ry="0.560088" fill="white"/>
<ellipse cx="291.331" cy="902.423" rx="0.528289" ry="0.560088" fill="white"/>
<ellipse cx="370.574" cy="902.423" rx="0.528289" ry="0.560088" fill="white"/>
<ellipse cx="449.818" cy="902.423" rx="0.528303" ry="0.560088" fill="white"/>
<ellipse cx="529.061" cy="902.423" rx="0.528274" ry="0.560088" fill="white"/>
<ellipse cx="608.304" cy="902.423" rx="0.528274" ry="0.560088" fill="white"/>
<ellipse cx="687.548" cy="902.423" rx="0.528303" ry="0.560088" fill="white"/>
<ellipse cx="119.108" cy="85.1448" rx="1.05658" ry="1.12032" fill="white"/>
<ellipse cx="277.595" cy="79.5433" rx="1.05658" ry="1.12033" fill="white"/>
<ellipse cx="436.082" cy="73.9416" rx="1.05654" ry="1.12032" fill="white"/>
<ellipse cx="594.569" cy="79.5433" rx="1.05658" ry="1.12033" fill="white"/>
<ellipse cx="753.055" cy="85.1448" rx="1.05647" ry="1.12032" fill="white"/>
<ellipse cx="24.0164" cy="191.576" rx="1.05657" ry="1.12033" fill="white"/>
<ellipse cx="182.503" cy="197.178" rx="1.05655" ry="1.12033" fill="white"/>
<ellipse cx="340.99" cy="191.576" rx="1.05654" ry="1.12033" fill="white"/>
<ellipse cx="499.477" cy="185.974" rx="1.05658" ry="1.12033" fill="white"/>
<ellipse cx="657.964" cy="191.576" rx="1.05655" ry="1.12033" fill="white"/>
<ellipse cx="816.45" cy="197.178" rx="1.05658" ry="1.12033" fill="white"/>
<ellipse cx="156.089" cy="310.33" rx="1.05658" ry="1.12033" fill="white"/>
<ellipse cx="314.576" cy="304.729" rx="1.05658" ry="1.12033" fill="white"/>
<ellipse cx="473.062" cy="299.127" rx="1.05661" ry="1.12031" fill="white"/>
<ellipse cx="631.549" cy="304.729" rx="1.05655" ry="1.12033" fill="white"/>
<ellipse cx="790.036" cy="309.21" rx="1.05658" ry="1.12033" fill="white"/>
<ellipse cx="129.674" cy="422.363" rx="1.05657" ry="1.12033" fill="white"/>
<ellipse cx="288.161" cy="416.762" rx="1.05657" ry="1.12033" fill="white"/>
<ellipse cx="446.648" cy="411.16" rx="1.05664" ry="1.12033" fill="white"/>
<ellipse cx="605.135" cy="416.762" rx="1.05658" ry="1.12033" fill="white"/>
<ellipse cx="763.621" cy="421.243" rx="1.05647" ry="1.12033" fill="white"/>
<ellipse cx="55.7139" cy="528.794" rx="1.05659" ry="1.12033" fill="white"/>
<ellipse cx="214.201" cy="534.396" rx="1.05658" ry="1.12036" fill="white"/>
<ellipse cx="372.687" cy="528.794" rx="1.05657" ry="1.12033" fill="white"/>
<ellipse cx="531.174" cy="523.192" rx="1.05658" ry="1.12033" fill="white"/>
<ellipse cx="689.661" cy="528.794" rx="1.05658" ry="1.12033" fill="white"/>
<ellipse cx="848.148" cy="533.276" rx="1.05647" ry="1.12033" fill="white"/>
<ellipse cx="115.41" cy="646.428" rx="1.05657" ry="1.12033" fill="white"/>
<ellipse cx="273.897" cy="640.827" rx="1.05658" ry="1.12033" fill="white"/>
<ellipse cx="432.384" cy="635.225" rx="1.05658" ry="1.12033" fill="white"/>
<ellipse cx="590.871" cy="640.827" rx="1.05658" ry="1.12033" fill="white"/>
<ellipse cx="749.358" cy="645.308" rx="1.05649" ry="1.12036" fill="white"/>
<ellipse cx="127.561" cy="742.777" rx="1.05658" ry="1.12033" fill="white"/>
<ellipse cx="286.048" cy="737.175" rx="1.05658" ry="1.12033" fill="white"/>
<ellipse cx="444.535" cy="731.573" rx="1.05655" ry="1.12033" fill="white"/>
<ellipse cx="603.021" cy="737.175" rx="1.05658" ry="1.12033" fill="white"/>
<ellipse cx="761.508" cy="742.777" rx="1.05658" ry="1.12033" fill="white"/>
<ellipse cx="7.63946" cy="857.05" rx="1.05658" ry="1.12033" fill="white"/>
<ellipse cx="166.126" cy="862.652" rx="1.05655" ry="1.1203" fill="white"/>
<ellipse cx="324.613" cy="857.05" rx="1.05658" ry="1.12033" fill="white"/>
<ellipse cx="483.1" cy="851.449" rx="1.05652" ry="1.12033" fill="white"/>
<ellipse cx="641.586" cy="857.05" rx="1.05655" ry="1.12033" fill="white"/>
<ellipse cx="800.073" cy="862.652" rx="1.05661" ry="1.1203" fill="white"/>
<ellipse cx="76.8453" cy="34.7301" rx="1.05657" ry="1.12032" fill="white"/>
<ellipse cx="235.332" cy="29.1286" rx="1.05657" ry="1.12032" fill="white"/>
<ellipse cx="393.819" cy="23.5269" rx="1.05657" ry="1.12033" fill="white"/>
<ellipse cx="552.306" cy="29.1286" rx="1.05658" ry="1.12032" fill="white"/>
<ellipse cx="710.792" cy="34.7301" rx="1.05661" ry="1.12032" fill="white"/>
<ellipse cx="45.1479" cy="146.763" rx="1.05658" ry="1.12035" fill="white"/>
<ellipse cx="203.635" cy="141.161" rx="1.05658" ry="1.12033" fill="white"/>
<ellipse cx="362.122" cy="135.56" rx="1.05663" ry="1.12033" fill="white"/>
<ellipse cx="520.608" cy="141.161" rx="1.05661" ry="1.12033" fill="white"/>
<ellipse cx="679.095" cy="146.763" rx="1.05655" ry="1.12035" fill="white"/>
<ellipse cx="108.543" cy="259.916" rx="1.05657" ry="1.12031" fill="white"/>
<ellipse cx="267.029" cy="254.314" rx="1.05658" ry="1.12033" fill="white"/>
<ellipse cx="425.516" cy="248.712" rx="1.0566" ry="1.12033" fill="white"/>
<ellipse cx="584.003" cy="254.314" rx="1.05655" ry="1.12033" fill="white"/>
<ellipse cx="742.49" cy="258.796" rx="1.05658" ry="1.12033" fill="white"/>
<ellipse cx="82.1281" cy="371.948" rx="1.05657" ry="1.12033" fill="white"/>
<ellipse cx="240.615" cy="366.347" rx="1.05657" ry="1.1203" fill="white"/>
<ellipse cx="399.102" cy="360.745" rx="1.05663" ry="1.12033" fill="white"/>
<ellipse cx="557.589" cy="366.347" rx="1.05658" ry="1.1203" fill="white"/>
<ellipse cx="716.075" cy="371.948" rx="1.05658" ry="1.12033" fill="white"/>
<ellipse cx="55.7138" cy="483.981" rx="1.05659" ry="1.12033" fill="white"/>
<ellipse cx="214.201" cy="478.379" rx="1.05658" ry="1.12033" fill="white"/>
<ellipse cx="372.687" cy="472.778" rx="1.05657" ry="1.12033" fill="white"/>
<ellipse cx="531.174" cy="478.379" rx="1.05658" ry="1.12033" fill="white"/>
<ellipse cx="689.661" cy="483.981" rx="1.05658" ry="1.12033" fill="white"/>
<ellipse cx="140.24" cy="596.014" rx="1.05658" ry="1.12033" fill="white"/>
<ellipse cx="298.727" cy="590.412" rx="1.05658" ry="1.1203" fill="white"/>
<ellipse cx="457.214" cy="584.81" rx="1.05664" ry="1.12033" fill="white"/>
<ellipse cx="615.7" cy="590.412" rx="1.05661" ry="1.1203" fill="white"/>
<ellipse cx="774.187" cy="594.893" rx="1.05658" ry="1.12033" fill="white"/>
<ellipse cx="41.4499" cy="706.926" rx="1.05658" ry="1.12033" fill="white"/>
<ellipse cx="199.937" cy="701.325" rx="1.0566" ry="1.12033" fill="white"/>
<ellipse cx="358.423" cy="695.723" rx="1.05663" ry="1.12033" fill="white"/>
<ellipse cx="516.91" cy="701.325" rx="1.05658" ry="1.12033" fill="white"/>
<ellipse cx="675.397" cy="706.926" rx="1.05658" ry="1.12033" fill="white"/>
<ellipse cx="53.6006" cy="804.395" rx="1.05657" ry="1.12033" fill="white"/>
<ellipse cx="212.087" cy="798.793" rx="1.05657" ry="1.1203" fill="white"/>
<ellipse cx="370.574" cy="793.191" rx="1.05663" ry="1.12036" fill="white"/>
<ellipse cx="529.061" cy="798.793" rx="1.05658" ry="1.1203" fill="white"/>
<ellipse cx="687.548" cy="804.395" rx="1.05658" ry="1.12033" fill="white"/>
<ellipse cx="92.1657" cy="924.27" rx="1.05657" ry="1.1203" fill="white"/>
<ellipse cx="250.652" cy="918.668" rx="1.05658" ry="1.1203" fill="white"/>
<ellipse cx="409.139" cy="913.067" rx="1.05654" ry="1.1203" fill="white"/>
<ellipse cx="567.626" cy="918.668" rx="1.05658" ry="1.1203" fill="white"/>
<ellipse cx="726.113" cy="924.27" rx="1.05649" ry="1.1203" fill="white"/>
<ellipse cx="717.908" cy="0.560165" rx="0.528286" ry="0.560165" fill="white"/>
<ellipse cx="797.152" cy="0.560165" rx="0.528289" ry="0.560165" fill="white"/>
<ellipse cx="876.395" cy="0.560165" rx="0.528289" ry="0.560165" fill="white"/>
<ellipse cx="955.638" cy="0.560165" rx="0.528281" ry="0.560165" fill="white"/>
<ellipse cx="1034.88" cy="0.560165" rx="0.528289" ry="0.560165" fill="white"/>
<ellipse cx="1114.13" cy="0.560165" rx="0.528289" ry="0.560165" fill="white"/>
<ellipse cx="1193.37" cy="0.560165" rx="0.52823" ry="0.560165" fill="white"/>
<ellipse cx="1272.61" cy="0.560165" rx="0.528274" ry="0.560165" fill="white"/>
<ellipse cx="1351.86" cy="0.560165" rx="0.528303" ry="0.560165" fill="white"/>
<ellipse cx="1431.1" cy="0.560165" rx="0.528303" ry="0.560165" fill="white"/>
<ellipse cx="754.889" cy="56.5764" rx="0.528289" ry="0.560165" fill="white"/>
<ellipse cx="834.132" cy="56.5764" rx="0.528299" ry="0.560165" fill="white"/>
<ellipse cx="913.375" cy="56.5764" rx="0.528289" ry="0.560165" fill="white"/>
<ellipse cx="992.619" cy="56.5764" rx="0.528274" ry="0.560165" fill="white"/>
<ellipse cx="1071.86" cy="56.5764" rx="0.528303" ry="0.560165" fill="white"/>
<ellipse cx="1151.11" cy="56.5764" rx="0.528289" ry="0.560165" fill="white"/>
<ellipse cx="1230.35" cy="56.5764" rx="0.528303" ry="0.560165" fill="white"/>
<ellipse cx="1309.59" cy="56.5764" rx="0.528274" ry="0.560165" fill="white"/>
<ellipse cx="1388.84" cy="56.5764" rx="0.528303" ry="0.560165" fill="white"/>
<ellipse cx="1468.08" cy="56.5764" rx="0.528303" ry="0.560165" fill="white"/>
<ellipse cx="739.04" cy="112.593" rx="0.528289" ry="0.560165" fill="white"/>
<ellipse cx="818.283" cy="112.593" rx="0.528289" ry="0.560165" fill="white"/>
<ellipse cx="897.527" cy="112.593" rx="0.528289" ry="0.560165" fill="white"/>
<ellipse cx="976.77" cy="112.593" rx="0.528303" ry="0.560165" fill="white"/>
<ellipse cx="1056.01" cy="112.593" rx="0.528289" ry="0.560165" fill="white"/>
<ellipse cx="1135.26" cy="112.593" rx="0.528289" ry="0.560165" fill="white"/>
<ellipse cx="1214.5" cy="112.593" rx="0.528274" ry="0.560165" fill="white"/>
<ellipse cx="1293.74" cy="112.593" rx="0.528303" ry="0.560165" fill="white"/>
<ellipse cx="1372.99" cy="112.593" rx="0.528303" ry="0.560165" fill="white"/>
<ellipse cx="1452.23" cy="112.593" rx="0.528274" ry="0.560165" fill="white"/>
<ellipse cx="754.889" cy="168.609" rx="0.528289" ry="0.560165" fill="white"/>
<ellipse cx="834.132" cy="168.609" rx="0.528299" ry="0.560165" fill="white"/>
<ellipse cx="913.375" cy="168.609" rx="0.528289" ry="0.560165" fill="white"/>
<ellipse cx="992.619" cy="168.609" rx="0.528274" ry="0.560165" fill="white"/>
<ellipse cx="1071.86" cy="168.609" rx="0.528303" ry="0.560165" fill="white"/>
<ellipse cx="1151.11" cy="168.609" rx="0.528289" ry="0.560165" fill="white"/>
<ellipse cx="1230.35" cy="168.609" rx="0.528303" ry="0.560165" fill="white"/>
<ellipse cx="1309.59" cy="168.609" rx="0.528274" ry="0.560165" fill="white"/>
<ellipse cx="1388.84" cy="168.609" rx="0.528303" ry="0.560165" fill="white"/>
<ellipse cx="1468.08" cy="168.609" rx="0.528303" ry="0.560165" fill="white"/>
<ellipse cx="728.474" cy="225.746" rx="0.528287" ry="0.560165" fill="white"/>
<ellipse cx="807.718" cy="225.746" rx="0.528289" ry="0.560165" fill="white"/>
<ellipse cx="886.961" cy="225.746" rx="0.528281" ry="0.560165" fill="white"/>
<ellipse cx="966.204" cy="225.746" rx="0.52831" ry="0.560165" fill="white"/>
<ellipse cx="1045.45" cy="225.746" rx="0.528289" ry="0.560165" fill="white"/>
<ellipse cx="1124.69" cy="225.746" rx="0.528289" ry="0.560165" fill="white"/>
<ellipse cx="1203.93" cy="225.746" rx="0.528332" ry="0.560165" fill="white"/>
<ellipse cx="1283.18" cy="225.746" rx="0.528274" ry="0.560165" fill="white"/>
<ellipse cx="1362.42" cy="225.746" rx="0.528303" ry="0.560165" fill="white"/>
<ellipse cx="1441.66" cy="225.746" rx="0.528274" ry="0.560165" fill="white"/>
<ellipse cx="760.171" cy="281.762" rx="0.528287" ry="0.560165" fill="white"/>
<ellipse cx="839.415" cy="281.762" rx="0.528289" ry="0.560165" fill="white"/>
<ellipse cx="918.658" cy="281.762" rx="0.52831" ry="0.560165" fill="white"/>
<ellipse cx="997.902" cy="281.762" rx="0.528289" ry="0.560165" fill="white"/>
<ellipse cx="1077.15" cy="281.762" rx="0.528289" ry="0.560165" fill="white"/>
<ellipse cx="1156.39" cy="281.762" rx="0.528332" ry="0.560165" fill="white"/>
<ellipse cx="1235.63" cy="281.762" rx="0.528216" ry="0.560165" fill="white"/>
<ellipse cx="1314.88" cy="281.762" rx="0.528303" ry="0.560165" fill="white"/>
<ellipse cx="1394.12" cy="281.762" rx="0.528274" ry="0.560165" fill="white"/>
<ellipse cx="749.606" cy="337.778" rx="0.528287" ry="0.560165" fill="white"/>
<ellipse cx="828.849" cy="337.778" rx="0.528274" ry="0.560165" fill="white"/>
<ellipse cx="908.092" cy="337.778" rx="0.528289" ry="0.560165" fill="white"/>
<ellipse cx="987.336" cy="337.778" rx="0.528318" ry="0.560165" fill="white"/>
<ellipse cx="1066.58" cy="337.778" rx="0.528289" ry="0.560165" fill="white"/>
<ellipse cx="1145.82" cy="337.778" rx="0.52823" ry="0.560165" fill="white"/>
<ellipse cx="1225.07" cy="337.778" rx="0.528332" ry="0.560165" fill="white"/>
<ellipse cx="1304.31" cy="337.778" rx="0.528303" ry="0.560165" fill="white"/>
<ellipse cx="1383.55" cy="337.778" rx="0.528303" ry="0.560165" fill="white"/>
<ellipse cx="1462.8" cy="337.778" rx="0.528274" ry="0.560165" fill="white"/>
<ellipse cx="781.303" cy="393.795" rx="0.528292" ry="0.56015" fill="white"/>
<ellipse cx="860.546" cy="393.795" rx="0.528289" ry="0.56015" fill="white"/>
<ellipse cx="939.79" cy="393.795" rx="0.52831" ry="0.56015" fill="white"/>
<ellipse cx="1019.03" cy="393.795" rx="0.528289" ry="0.56015" fill="white"/>
<ellipse cx="1098.28" cy="393.795" rx="0.528274" ry="0.56015" fill="white"/>
<ellipse cx="1177.52" cy="393.795" rx="0.528332" ry="0.56015" fill="white"/>
<ellipse cx="1256.76" cy="393.795" rx="0.528303" ry="0.56015" fill="white"/>
<ellipse cx="1336.01" cy="393.795" rx="0.528303" ry="0.56015" fill="white"/>
<ellipse cx="1415.25" cy="393.795" rx="0.528274" ry="0.56015" fill="white"/>
<ellipse cx="1494.49" cy="393.795" rx="0.528477" ry="0.56015" fill="white"/>
<ellipse cx="739.04" cy="449.811" rx="0.528289" ry="0.56015" fill="white"/>
<ellipse cx="818.283" cy="449.811" rx="0.528289" ry="0.56015" fill="white"/>
<ellipse cx="897.527" cy="449.811" rx="0.528289" ry="0.56015" fill="white"/>
<ellipse cx="976.77" cy="449.811" rx="0.528303" ry="0.56015" fill="white"/>
<ellipse cx="1056.01" cy="449.811" rx="0.528289" ry="0.56015" fill="white"/>
<ellipse cx="1135.26" cy="449.811" rx="0.528289" ry="0.56015" fill="white"/>
<ellipse cx="1214.5" cy="449.811" rx="0.528274" ry="0.56015" fill="white"/>
<ellipse cx="1293.74" cy="449.811" rx="0.528303" ry="0.56015" fill="white"/>
<ellipse cx="1372.99" cy="449.811" rx="0.528303" ry="0.56015" fill="white"/>
<ellipse cx="1452.23" cy="449.811" rx="0.528274" ry="0.56015" fill="white"/>
<ellipse cx="754.889" cy="505.827" rx="0.528289" ry="0.56015" fill="white"/>
<ellipse cx="834.132" cy="505.827" rx="0.528299" ry="0.56015" fill="white"/>
<ellipse cx="913.375" cy="505.827" rx="0.528289" ry="0.56015" fill="white"/>
<ellipse cx="992.619" cy="505.827" rx="0.528274" ry="0.56015" fill="white"/>
<ellipse cx="1071.86" cy="505.827" rx="0.528303" ry="0.56015" fill="white"/>
<ellipse cx="1151.11" cy="505.827" rx="0.528289" ry="0.56015" fill="white"/>
<ellipse cx="1230.35" cy="505.827" rx="0.528303" ry="0.56015" fill="white"/>
<ellipse cx="1309.59" cy="505.827" rx="0.528274" ry="0.56015" fill="white"/>
<ellipse cx="1388.84" cy="505.827" rx="0.528303" ry="0.56015" fill="white"/>
<ellipse cx="1468.08" cy="505.827" rx="0.528303" ry="0.56015" fill="white"/>
<ellipse cx="791.869" cy="567.445" rx="0.528285" ry="0.56015" fill="white"/>
<ellipse cx="871.112" cy="567.445" rx="0.528289" ry="0.56015" fill="white"/>
<ellipse cx="950.356" cy="567.445" rx="0.528281" ry="0.56015" fill="white"/>
<ellipse cx="1029.6" cy="567.445" rx="0.528289" ry="0.56015" fill="white"/>
<ellipse cx="1108.84" cy="567.445" rx="0.528332" ry="0.56015" fill="white"/>
<ellipse cx="1188.09" cy="567.445" rx="0.52823" ry="0.56015" fill="white"/>
<ellipse cx="1267.33" cy="567.445" rx="0.528303" ry="0.56015" fill="white"/>
<ellipse cx="1346.57" cy="567.445" rx="0.528274" ry="0.56015" fill="white"/>
<ellipse cx="1425.82" cy="567.445" rx="0.528274" ry="0.56015" fill="white"/>
<ellipse cx="1505.06" cy="567.445" rx="0.528303" ry="0.56015" fill="white"/>
<ellipse cx="760.171" cy="629.063" rx="0.528287" ry="0.560181" fill="white"/>
<ellipse cx="839.415" cy="629.063" rx="0.528289" ry="0.560181" fill="white"/>
<ellipse cx="918.658" cy="629.063" rx="0.52831" ry="0.560181" fill="white"/>
<ellipse cx="997.902" cy="629.063" rx="0.528289" ry="0.560181" fill="white"/>
<ellipse cx="1077.15" cy="629.063" rx="0.528289" ry="0.560181" fill="white"/>
<ellipse cx="1156.39" cy="629.063" rx="0.528332" ry="0.560181" fill="white"/>
<ellipse cx="1235.63" cy="629.063" rx="0.528216" ry="0.560181" fill="white"/>
<ellipse cx="1314.88" cy="629.063" rx="0.528303" ry="0.560181" fill="white"/>
<ellipse cx="1394.12" cy="629.063" rx="0.528274" ry="0.560181" fill="white"/>
<ellipse cx="1473.36" cy="629.063" rx="0.528274" ry="0.560181" fill="white"/>
<ellipse cx="802.435" cy="689.561" rx="0.528285" ry="0.560181" fill="white"/>
<ellipse cx="881.678" cy="689.561" rx="0.528281" ry="0.560181" fill="white"/>
<ellipse cx="960.922" cy="689.561" rx="0.52831" ry="0.560181" fill="white"/>
<ellipse cx="1040.16" cy="689.561" rx="0.528274" ry="0.560181" fill="white"/>
<ellipse cx="1119.41" cy="689.561" rx="0.528274" ry="0.560181" fill="white"/>
<ellipse cx="1198.65" cy="689.561" rx="0.528289" ry="0.560181" fill="white"/>
<ellipse cx="1277.9" cy="689.561" rx="0.528303" ry="0.560181" fill="white"/>
<ellipse cx="1357.14" cy="689.561" rx="0.528274" ry="0.560181" fill="white"/>
<ellipse cx="1436.38" cy="689.561" rx="0.528303" ry="0.560181" fill="white"/>
<ellipse cx="770.737" cy="751.179" rx="0.528287" ry="0.560181" fill="white"/>
<ellipse cx="849.981" cy="751.179" rx="0.528289" ry="0.560181" fill="white"/>
<ellipse cx="929.224" cy="751.179" rx="0.528296" ry="0.560181" fill="white"/>
<ellipse cx="1008.47" cy="751.179" rx="0.528289" ry="0.560181" fill="white"/>
<ellipse cx="1087.71" cy="751.179" rx="0.528274" ry="0.560181" fill="white"/>
<ellipse cx="1166.95" cy="751.179" rx="0.528274" ry="0.560181" fill="white"/>
<ellipse cx="1246.2" cy="751.179" rx="0.528303" ry="0.560181" fill="white"/>
<ellipse cx="1325.44" cy="751.179" rx="0.528303" ry="0.560181" fill="white"/>
<ellipse cx="1404.68" cy="751.179" rx="0.528274" ry="0.560181" fill="white"/>
<ellipse cx="1483.93" cy="751.179" rx="0.528303" ry="0.560181" fill="white"/>
<ellipse cx="739.04" cy="812.797" rx="0.528289" ry="0.56015" fill="white"/>
<ellipse cx="818.283" cy="812.797" rx="0.528289" ry="0.56015" fill="white"/>
<ellipse cx="897.527" cy="812.797" rx="0.528289" ry="0.56015" fill="white"/>
<ellipse cx="976.77" cy="812.797" rx="0.528303" ry="0.56015" fill="white"/>
<ellipse cx="1056.01" cy="812.797" rx="0.528289" ry="0.56015" fill="white"/>
<ellipse cx="1135.26" cy="812.797" rx="0.528289" ry="0.56015" fill="white"/>
<ellipse cx="1214.5" cy="812.797" rx="0.528274" ry="0.56015" fill="white"/>
<ellipse cx="1293.74" cy="812.797" rx="0.528303" ry="0.56015" fill="white"/>
<ellipse cx="1372.99" cy="812.797" rx="0.528303" ry="0.56015" fill="white"/>
<ellipse cx="1452.23" cy="812.797" rx="0.528274" ry="0.56015" fill="white"/>
<ellipse cx="770.737" cy="874.415" rx="0.528287" ry="0.56015" fill="white"/>
<ellipse cx="849.981" cy="874.415" rx="0.528289" ry="0.56015" fill="white"/>
<ellipse cx="929.224" cy="874.415" rx="0.528296" ry="0.56015" fill="white"/>
<ellipse cx="1008.47" cy="874.415" rx="0.528289" ry="0.56015" fill="white"/>
<ellipse cx="1087.71" cy="874.415" rx="0.528274" ry="0.56015" fill="white"/>
<ellipse cx="1166.95" cy="874.415" rx="0.528274" ry="0.56015" fill="white"/>
<ellipse cx="1246.2" cy="874.415" rx="0.528303" ry="0.56015" fill="white"/>
<ellipse cx="1325.44" cy="874.415" rx="0.528303" ry="0.56015" fill="white"/>
<ellipse cx="1404.68" cy="874.415" rx="0.528274" ry="0.56015" fill="white"/>
<ellipse cx="749.606" cy="930.431" rx="0.528287" ry="0.56015" fill="white"/>
<ellipse cx="828.849" cy="930.431" rx="0.528274" ry="0.56015" fill="white"/>
<ellipse cx="908.092" cy="930.431" rx="0.528289" ry="0.56015" fill="white"/>
<ellipse cx="987.336" cy="930.431" rx="0.528318" ry="0.56015" fill="white"/>
<ellipse cx="1066.58" cy="930.431" rx="0.528289" ry="0.56015" fill="white"/>
<ellipse cx="1145.82" cy="930.431" rx="0.52823" ry="0.56015" fill="white"/>
<ellipse cx="1225.07" cy="930.431" rx="0.528332" ry="0.56015" fill="white"/>
<ellipse cx="1304.31" cy="930.431" rx="0.528303" ry="0.56015" fill="white"/>
<ellipse cx="1383.55" cy="930.431" rx="0.528303" ry="0.56015" fill="white"/>
<ellipse cx="1383.55" cy="930.431" rx="0.528303" ry="0.56015" fill="white"/>
<ellipse cx="1483.93" cy="874.415" rx="0.528303" ry="0.56015" fill="white"/>
<ellipse cx="744.323" cy="6.16173" rx="0.528288" ry="0.560165" fill="white"/>
<ellipse cx="823.566" cy="6.16173" rx="0.528289" ry="0.560165" fill="white"/>
<ellipse cx="902.81" cy="6.16173" rx="0.528281" ry="0.560165" fill="white"/>
<ellipse cx="982.053" cy="6.16173" rx="0.528259" ry="0.560165" fill="white"/>
<ellipse cx="1061.3" cy="6.16173" rx="0.528289" ry="0.560165" fill="white"/>
<ellipse cx="1140.54" cy="6.16173" rx="0.52823" ry="0.560165" fill="white"/>
<ellipse cx="1219.78" cy="6.16173" rx="0.528303" ry="0.560165" fill="white"/>
<ellipse cx="1299.03" cy="6.16173" rx="0.528274" ry="0.560165" fill="white"/>
<ellipse cx="1378.27" cy="6.16173" rx="0.528274" ry="0.560165" fill="white"/>
<ellipse cx="1457.51" cy="6.16173" rx="0.528303" ry="0.560165" fill="white"/>
<ellipse cx="781.303" cy="62.1781" rx="0.528292" ry="0.560165" fill="white"/>
<ellipse cx="860.546" cy="62.1781" rx="0.528289" ry="0.560165" fill="white"/>
<ellipse cx="939.79" cy="62.1781" rx="0.52831" ry="0.560165" fill="white"/>
<ellipse cx="1019.03" cy="62.1781" rx="0.528289" ry="0.560165" fill="white"/>
<ellipse cx="1098.28" cy="62.1781" rx="0.528274" ry="0.560165" fill="white"/>
<ellipse cx="1177.52" cy="62.1781" rx="0.528332" ry="0.560165" fill="white"/>
<ellipse cx="1256.76" cy="62.1781" rx="0.528303" ry="0.560165" fill="white"/>
<ellipse cx="1336.01" cy="62.1781" rx="0.528303" ry="0.560165" fill="white"/>
<ellipse cx="1415.25" cy="62.1781" rx="0.528274" ry="0.560165" fill="white"/>
<ellipse cx="1494.49" cy="62.1781" rx="0.528477" ry="0.560165" fill="white"/>
<ellipse cx="765.454" cy="118.194" rx="0.528289" ry="0.560165" fill="white"/>
<ellipse cx="844.698" cy="118.194" rx="0.528289" ry="0.560165" fill="white"/>
<ellipse cx="923.941" cy="118.194" rx="0.528267" ry="0.560165" fill="white"/>
<ellipse cx="1003.18" cy="118.194" rx="0.528274" ry="0.560165" fill="white"/>
<ellipse cx="1082.43" cy="118.194" rx="0.528289" ry="0.560165" fill="white"/>
<ellipse cx="1161.67" cy="118.194" rx="0.528289" ry="0.560165" fill="white"/>
<ellipse cx="1240.91" cy="118.194" rx="0.528245" ry="0.560165" fill="white"/>
<ellipse cx="1320.16" cy="118.194" rx="0.528274" ry="0.560165" fill="white"/>
<ellipse cx="1399.4" cy="118.194" rx="0.528303" ry="0.560165" fill="white"/>
<ellipse cx="1478.65" cy="118.194" rx="0.528303" ry="0.560165" fill="white"/>
<ellipse cx="781.303" cy="174.211" rx="0.528292" ry="0.560165" fill="white"/>
<ellipse cx="860.546" cy="174.211" rx="0.528289" ry="0.560165" fill="white"/>
<ellipse cx="939.79" cy="174.211" rx="0.52831" ry="0.560165" fill="white"/>
<ellipse cx="1019.03" cy="174.211" rx="0.528289" ry="0.560165" fill="white"/>
<ellipse cx="1098.28" cy="174.211" rx="0.528274" ry="0.560165" fill="white"/>
<ellipse cx="1177.52" cy="174.211" rx="0.528332" ry="0.560165" fill="white"/>
<ellipse cx="1256.76" cy="174.211" rx="0.528303" ry="0.560165" fill="white"/>
<ellipse cx="1336.01" cy="174.211" rx="0.528303" ry="0.560165" fill="white"/>
<ellipse cx="1415.25" cy="174.211" rx="0.528274" ry="0.560165" fill="white"/>
<ellipse cx="1494.49" cy="174.211" rx="0.528477" ry="0.560165" fill="white"/>
<ellipse cx="754.889" cy="231.347" rx="0.528289" ry="0.560165" fill="white"/>
<ellipse cx="834.132" cy="231.347" rx="0.528299" ry="0.560165" fill="white"/>
<ellipse cx="913.375" cy="231.347" rx="0.528289" ry="0.560165" fill="white"/>
<ellipse cx="992.619" cy="231.347" rx="0.528274" ry="0.560165" fill="white"/>
<ellipse cx="1071.86" cy="231.347" rx="0.528303" ry="0.560165" fill="white"/>
<ellipse cx="1151.11" cy="231.347" rx="0.528289" ry="0.560165" fill="white"/>
<ellipse cx="1230.35" cy="231.347" rx="0.528303" ry="0.560165" fill="white"/>
<ellipse cx="1309.59" cy="231.347" rx="0.528274" ry="0.560165" fill="white"/>
<ellipse cx="1388.84" cy="231.347" rx="0.528303" ry="0.560165" fill="white"/>
<ellipse cx="1468.08" cy="231.347" rx="0.528303" ry="0.560165" fill="white"/>
<ellipse cx="786.586" cy="287.364" rx="0.528289" ry="0.560165" fill="white"/>
<ellipse cx="865.83" cy="287.364" rx="0.528289" ry="0.560165" fill="white"/>
<ellipse cx="945.073" cy="287.364" rx="0.528281" ry="0.560165" fill="white"/>
<ellipse cx="1024.32" cy="287.364" rx="0.528303" ry="0.560165" fill="white"/>
<ellipse cx="1103.56" cy="287.364" rx="0.528289" ry="0.560165" fill="white"/>
<ellipse cx="1182.8" cy="287.364" rx="0.528289" ry="0.560165" fill="white"/>
<ellipse cx="1262.05" cy="287.364" rx="0.528274" ry="0.560165" fill="white"/>
<ellipse cx="1341.29" cy="287.364" rx="0.528303" ry="0.560165" fill="white"/>
<ellipse cx="1420.53" cy="287.364" rx="0.528303" ry="0.560165" fill="white"/>
<ellipse cx="776.02" cy="343.38" rx="0.528281" ry="0.560165" fill="white"/>
<ellipse cx="855.264" cy="343.38" rx="0.528296" ry="0.560165" fill="white"/>
<ellipse cx="934.507" cy="343.38" rx="0.528259" ry="0.560165" fill="white"/>
<ellipse cx="1013.75" cy="343.38" rx="0.528289" ry="0.560165" fill="white"/>
<ellipse cx="1092.99" cy="343.38" rx="0.528289" ry="0.560165" fill="white"/>
<ellipse cx="1172.24" cy="343.38" rx="0.528289" ry="0.560165" fill="white"/>
<ellipse cx="1251.48" cy="343.38" rx="0.528332" ry="0.560165" fill="white"/>
<ellipse cx="1330.72" cy="343.38" rx="0.528274" ry="0.560165" fill="white"/>
<ellipse cx="1409.97" cy="343.38" rx="0.528303" ry="0.560165" fill="white"/>
<ellipse cx="1489.21" cy="343.38" rx="0.528187" ry="0.560165" fill="white"/>
<ellipse cx="807.718" cy="399.396" rx="0.528289" ry="0.56015" fill="white"/>
<ellipse cx="886.961" cy="399.396" rx="0.528281" ry="0.56015" fill="white"/>
<ellipse cx="966.204" cy="399.396" rx="0.52831" ry="0.56015" fill="white"/>
<ellipse cx="1045.45" cy="399.396" rx="0.528289" ry="0.56015" fill="white"/>
<ellipse cx="1124.69" cy="399.396" rx="0.528289" ry="0.56015" fill="white"/>
<ellipse cx="1203.93" cy="399.396" rx="0.528332" ry="0.56015" fill="white"/>
<ellipse cx="1283.18" cy="399.396" rx="0.528274" ry="0.56015" fill="white"/>
<ellipse cx="1362.42" cy="399.396" rx="0.528303" ry="0.56015" fill="white"/>
<ellipse cx="1441.66" cy="399.396" rx="0.528274" ry="0.56015" fill="white"/>
<ellipse cx="1520.91" cy="398.276" rx="0.528158" ry="0.56015" fill="white"/>
<ellipse cx="765.454" cy="455.413" rx="0.528289" ry="0.560181" fill="white"/>
<ellipse cx="844.698" cy="455.413" rx="0.528289" ry="0.560181" fill="white"/>
<ellipse cx="923.941" cy="455.413" rx="0.528267" ry="0.560181" fill="white"/>
<ellipse cx="1003.18" cy="455.413" rx="0.528274" ry="0.560181" fill="white"/>
<ellipse cx="1082.43" cy="455.413" rx="0.528289" ry="0.560181" fill="white"/>
<ellipse cx="1161.67" cy="455.413" rx="0.528289" ry="0.560181" fill="white"/>
<ellipse cx="1240.91" cy="455.413" rx="0.528245" ry="0.560181" fill="white"/>
<ellipse cx="1320.16" cy="455.413" rx="0.528274" ry="0.560181" fill="white"/>
<ellipse cx="1399.4" cy="455.413" rx="0.528303" ry="0.560181" fill="white"/>
<ellipse cx="1478.65" cy="455.413" rx="0.528303" ry="0.560181" fill="white"/>
<ellipse cx="781.303" cy="511.429" rx="0.528292" ry="0.560181" fill="white"/>
<ellipse cx="860.546" cy="511.429" rx="0.528289" ry="0.560181" fill="white"/>
<ellipse cx="939.79" cy="511.429" rx="0.52831" ry="0.560181" fill="white"/>
<ellipse cx="1019.03" cy="511.429" rx="0.528289" ry="0.560181" fill="white"/>
<ellipse cx="1098.28" cy="511.429" rx="0.528274" ry="0.560181" fill="white"/>
<ellipse cx="1177.52" cy="511.429" rx="0.528332" ry="0.560181" fill="white"/>
<ellipse cx="1256.76" cy="511.429" rx="0.528303" ry="0.560181" fill="white"/>
<ellipse cx="1336.01" cy="511.429" rx="0.528303" ry="0.560181" fill="white"/>
<ellipse cx="1415.25" cy="511.429" rx="0.528274" ry="0.560181" fill="white"/>
<ellipse cx="1494.49" cy="511.429" rx="0.528477" ry="0.560181" fill="white"/>
<ellipse cx="818.284" cy="573.047" rx="0.528289" ry="0.56015" fill="white"/>
<ellipse cx="897.527" cy="573.047" rx="0.528289" ry="0.56015" fill="white"/>
<ellipse cx="976.77" cy="573.047" rx="0.528303" ry="0.56015" fill="white"/>
<ellipse cx="1056.01" cy="573.047" rx="0.528289" ry="0.56015" fill="white"/>
<ellipse cx="1135.26" cy="573.047" rx="0.528289" ry="0.56015" fill="white"/>
<ellipse cx="1214.5" cy="573.047" rx="0.528274" ry="0.56015" fill="white"/>
<ellipse cx="1293.74" cy="573.047" rx="0.528303" ry="0.56015" fill="white"/>
<ellipse cx="1372.99" cy="573.047" rx="0.528303" ry="0.56015" fill="white"/>
<ellipse cx="1452.23" cy="573.047" rx="0.528274" ry="0.56015" fill="white"/>
<ellipse cx="1531.47" cy="571.927" rx="0.528303" ry="0.560181" fill="white"/>
<ellipse cx="786.586" cy="634.665" rx="0.528289" ry="0.56015" fill="white"/>
<ellipse cx="865.83" cy="634.665" rx="0.528289" ry="0.56015" fill="white"/>
<ellipse cx="945.073" cy="634.665" rx="0.528281" ry="0.56015" fill="white"/>
<ellipse cx="1024.32" cy="634.665" rx="0.528303" ry="0.56015" fill="white"/>
<ellipse cx="1103.56" cy="634.665" rx="0.528289" ry="0.56015" fill="white"/>
<ellipse cx="1182.8" cy="634.665" rx="0.528289" ry="0.56015" fill="white"/>
<ellipse cx="1262.05" cy="634.665" rx="0.528274" ry="0.56015" fill="white"/>
<ellipse cx="1341.29" cy="634.665" rx="0.528303" ry="0.56015" fill="white"/>
<ellipse cx="1420.53" cy="634.665" rx="0.528303" ry="0.56015" fill="white"/>
<ellipse cx="1499.78" cy="634.665" rx="0.528303" ry="0.56015" fill="white"/>
<ellipse cx="828.849" cy="695.163" rx="0.528274" ry="0.56015" fill="white"/>
<ellipse cx="908.092" cy="695.163" rx="0.528289" ry="0.56015" fill="white"/>
<ellipse cx="987.336" cy="695.163" rx="0.528318" ry="0.56015" fill="white"/>
<ellipse cx="1066.58" cy="695.163" rx="0.528289" ry="0.56015" fill="white"/>
<ellipse cx="1145.82" cy="695.163" rx="0.52823" ry="0.56015" fill="white"/>
<ellipse cx="1225.07" cy="695.163" rx="0.528332" ry="0.56015" fill="white"/>
<ellipse cx="1304.31" cy="695.163" rx="0.528303" ry="0.56015" fill="white"/>
<ellipse cx="1383.55" cy="695.163" rx="0.528303" ry="0.56015" fill="white"/>
<ellipse cx="1462.8" cy="695.163" rx="0.528274" ry="0.56015" fill="white"/>
<ellipse cx="797.152" cy="756.781" rx="0.528289" ry="0.560181" fill="white"/>
<ellipse cx="876.395" cy="756.781" rx="0.528289" ry="0.560181" fill="white"/>
<ellipse cx="955.639" cy="756.781" rx="0.528281" ry="0.560181" fill="white"/>
<ellipse cx="1034.88" cy="756.781" rx="0.528289" ry="0.560181" fill="white"/>
<ellipse cx="1114.13" cy="756.781" rx="0.528289" ry="0.560181" fill="white"/>
<ellipse cx="1193.37" cy="756.781" rx="0.52823" ry="0.560181" fill="white"/>
<ellipse cx="1272.61" cy="756.781" rx="0.528274" ry="0.560181" fill="white"/>
<ellipse cx="1351.86" cy="756.781" rx="0.528303" ry="0.560181" fill="white"/>
<ellipse cx="1431.1" cy="756.781" rx="0.528303" ry="0.560181" fill="white"/>
<ellipse cx="1510.34" cy="756.781" rx="0.528303" ry="0.560181" fill="white"/>
<ellipse cx="765.454" cy="818.399" rx="0.528289" ry="0.560181" fill="white"/>
<ellipse cx="844.698" cy="818.399" rx="0.528289" ry="0.560181" fill="white"/>
<ellipse cx="923.941" cy="818.399" rx="0.528267" ry="0.560181" fill="white"/>
<ellipse cx="1003.18" cy="818.399" rx="0.528274" ry="0.560181" fill="white"/>
<ellipse cx="1082.43" cy="818.399" rx="0.528289" ry="0.560181" fill="white"/>
<ellipse cx="1161.67" cy="818.399" rx="0.528289" ry="0.560181" fill="white"/>
<ellipse cx="1240.91" cy="818.399" rx="0.528245" ry="0.560181" fill="white"/>
<ellipse cx="1320.16" cy="818.399" rx="0.528274" ry="0.560181" fill="white"/>
<ellipse cx="1399.4" cy="818.399" rx="0.528303" ry="0.560181" fill="white"/>
<ellipse cx="1478.65" cy="818.399" rx="0.528303" ry="0.560181" fill="white"/>
<ellipse cx="797.152" cy="880.017" rx="0.528289" ry="0.56015" fill="white"/>
<ellipse cx="876.395" cy="880.017" rx="0.528289" ry="0.56015" fill="white"/>
<ellipse cx="955.639" cy="880.017" rx="0.528281" ry="0.56015" fill="white"/>
<ellipse cx="1034.88" cy="880.017" rx="0.528289" ry="0.56015" fill="white"/>
<ellipse cx="1114.13" cy="880.017" rx="0.528289" ry="0.56015" fill="white"/>
<ellipse cx="1193.37" cy="880.017" rx="0.52823" ry="0.56015" fill="white"/>
<ellipse cx="1272.61" cy="880.017" rx="0.528274" ry="0.56015" fill="white"/>
<ellipse cx="1351.86" cy="880.017" rx="0.528303" ry="0.56015" fill="white"/>
<ellipse cx="1431.1" cy="880.017" rx="0.528303" ry="0.56015" fill="white"/>
<ellipse cx="776.02" cy="936.033" rx="0.528281" ry="0.56015" fill="white"/>
<ellipse cx="855.264" cy="936.033" rx="0.528296" ry="0.56015" fill="white"/>
<ellipse cx="934.507" cy="936.033" rx="0.528259" ry="0.56015" fill="white"/>
<ellipse cx="1013.75" cy="936.033" rx="0.528289" ry="0.56015" fill="white"/>
<ellipse cx="1092.99" cy="936.033" rx="0.528289" ry="0.56015" fill="white"/>
<ellipse cx="1172.24" cy="936.033" rx="0.528289" ry="0.56015" fill="white"/>
<ellipse cx="1251.48" cy="936.033" rx="0.528332" ry="0.56015" fill="white"/>
<ellipse cx="1330.72" cy="936.033" rx="0.528274" ry="0.56015" fill="white"/>
<ellipse cx="1409.97" cy="936.033" rx="0.528303" ry="0.56015" fill="white"/>
<ellipse cx="1409.97" cy="936.033" rx="0.528303" ry="0.56015" fill="white"/>
<ellipse cx="1510.34" cy="880.017" rx="0.528303" ry="0.56015" fill="white"/>
<ellipse cx="688.324" cy="28.5684" rx="0.528287" ry="0.560165" fill="white"/>
<ellipse cx="767.568" cy="28.5684" rx="0.528287" ry="0.560165" fill="white"/>
<ellipse cx="846.811" cy="28.5684" rx="0.528303" ry="0.560165" fill="white"/>
<ellipse cx="926.054" cy="28.5684" rx="0.528267" ry="0.560165" fill="white"/>
<ellipse cx="1005.3" cy="28.5684" rx="0.528289" ry="0.560165" fill="white"/>
<ellipse cx="1084.54" cy="28.5684" rx="0.528289" ry="0.560165" fill="white"/>
<ellipse cx="1163.78" cy="28.5684" rx="0.528332" ry="0.560165" fill="white"/>
<ellipse cx="1243.03" cy="28.5684" rx="0.528303" ry="0.560165" fill="white"/>
<ellipse cx="1322.27" cy="28.5684" rx="0.528274" ry="0.560165" fill="white"/>
<ellipse cx="1401.51" cy="28.5684" rx="0.528274" ry="0.560165" fill="white"/>
<ellipse cx="725.304" cy="84.5846" rx="0.528287" ry="0.560165" fill="white"/>
<ellipse cx="804.548" cy="84.5846" rx="0.528289" ry="0.560165" fill="white"/>
<ellipse cx="883.791" cy="84.5846" rx="0.528289" ry="0.560165" fill="white"/>
<ellipse cx="963.034" cy="84.5846" rx="0.528267" ry="0.560165" fill="white"/>
<ellipse cx="1042.28" cy="84.5846" rx="0.528274" ry="0.560165" fill="white"/>
<ellipse cx="1121.52" cy="84.5846" rx="0.528303" ry="0.560165" fill="white"/>
<ellipse cx="1200.76" cy="84.5846" rx="0.528332" ry="0.560165" fill="white"/>
<ellipse cx="1280.01" cy="84.5846" rx="0.528274" ry="0.560165" fill="white"/>
<ellipse cx="1359.25" cy="84.5846" rx="0.528303" ry="0.560165" fill="white"/>
<ellipse cx="1438.49" cy="84.5846" rx="0.528274" ry="0.560165" fill="white"/>
<ellipse cx="709.456" cy="140.601" rx="0.528287" ry="0.560165" fill="white"/>
<ellipse cx="788.699" cy="140.601" rx="0.528289" ry="0.560165" fill="white"/>
<ellipse cx="867.943" cy="140.601" rx="0.528289" ry="0.560165" fill="white"/>
<ellipse cx="947.186" cy="140.601" rx="0.528281" ry="0.560165" fill="white"/>
<ellipse cx="1026.43" cy="140.601" rx="0.528289" ry="0.560165" fill="white"/>
<ellipse cx="1105.67" cy="140.601" rx="0.528332" ry="0.560165" fill="white"/>
<ellipse cx="1184.92" cy="140.601" rx="0.528289" ry="0.560165" fill="white"/>
<ellipse cx="1264.16" cy="140.601" rx="0.528303" ry="0.560165" fill="white"/>
<ellipse cx="1343.4" cy="140.601" rx="0.528274" ry="0.560165" fill="white"/>
<ellipse cx="1422.65" cy="140.601" rx="0.528274" ry="0.560165" fill="white"/>
<ellipse cx="725.304" cy="196.617" rx="0.528287" ry="0.560165" fill="white"/>
<ellipse cx="804.548" cy="196.617" rx="0.528289" ry="0.560165" fill="white"/>
<ellipse cx="883.791" cy="196.617" rx="0.528289" ry="0.560165" fill="white"/>
<ellipse cx="963.034" cy="196.617" rx="0.528267" ry="0.560165" fill="white"/>
<ellipse cx="1042.28" cy="196.617" rx="0.528274" ry="0.560165" fill="white"/>
<ellipse cx="1121.52" cy="196.617" rx="0.528303" ry="0.560165" fill="white"/>
<ellipse cx="1200.76" cy="196.617" rx="0.528332" ry="0.560165" fill="white"/>
<ellipse cx="1280.01" cy="196.617" rx="0.528274" ry="0.560165" fill="white"/>
<ellipse cx="1359.25" cy="196.617" rx="0.528303" ry="0.560165" fill="white"/>
<ellipse cx="1438.49" cy="196.617" rx="0.528274" ry="0.560165" fill="white"/>
<ellipse cx="698.89" cy="253.754" rx="0.528287" ry="0.560165" fill="white"/>
<ellipse cx="778.133" cy="253.754" rx="0.528279" ry="0.560165" fill="white"/>
<ellipse cx="857.377" cy="253.754" rx="0.528289" ry="0.560165" fill="white"/>
<ellipse cx="936.62" cy="253.754" rx="0.528289" ry="0.560165" fill="white"/>
<ellipse cx="1015.86" cy="253.754" rx="0.528289" ry="0.560165" fill="white"/>
<ellipse cx="1095.11" cy="253.754" rx="0.528289" ry="0.560165" fill="white"/>
<ellipse cx="1174.35" cy="253.754" rx="0.52823" ry="0.560165" fill="white"/>
<ellipse cx="1253.59" cy="253.754" rx="0.528274" ry="0.560165" fill="white"/>
<ellipse cx="1332.84" cy="253.754" rx="0.528274" ry="0.560165" fill="white"/>
<ellipse cx="1412.08" cy="253.754" rx="0.528303" ry="0.560165" fill="white"/>
<ellipse cx="730.587" cy="309.77" rx="0.528287" ry="0.560165" fill="white"/>
<ellipse cx="809.831" cy="309.77" rx="0.528289" ry="0.560165" fill="white"/>
<ellipse cx="889.074" cy="309.77" rx="0.528289" ry="0.560165" fill="white"/>
<ellipse cx="968.318" cy="309.77" rx="0.528289" ry="0.560165" fill="white"/>
<ellipse cx="1047.56" cy="309.77" rx="0.528289" ry="0.560165" fill="white"/>
<ellipse cx="1126.8" cy="309.77" rx="0.52823" ry="0.560165" fill="white"/>
<ellipse cx="1206.05" cy="309.77" rx="0.528289" ry="0.560165" fill="white"/>
<ellipse cx="1285.29" cy="309.77" rx="0.528274" ry="0.560165" fill="white"/>
<ellipse cx="1364.53" cy="309.77" rx="0.528303" ry="0.560165" fill="white"/>
<ellipse cx="720.022" cy="365.786" rx="0.528287" ry="0.56015" fill="white"/>
<ellipse cx="799.265" cy="365.786" rx="0.528289" ry="0.56015" fill="white"/>
<ellipse cx="878.508" cy="365.786" rx="0.528289" ry="0.56015" fill="white"/>
<ellipse cx="957.752" cy="365.786" rx="0.528267" ry="0.56015" fill="white"/>
<ellipse cx="1037" cy="365.786" rx="0.528289" ry="0.56015" fill="white"/>
<ellipse cx="1116.24" cy="365.786" rx="0.528332" ry="0.56015" fill="white"/>
<ellipse cx="1195.48" cy="365.786" rx="0.528289" ry="0.56015" fill="white"/>
<ellipse cx="1274.73" cy="365.786" rx="0.528274" ry="0.56015" fill="white"/>
<ellipse cx="1353.97" cy="365.786" rx="0.528274" ry="0.56015" fill="white"/>
<ellipse cx="1433.21" cy="365.786" rx="0.528303" ry="0.56015" fill="white"/>
<ellipse cx="751.719" cy="421.803" rx="0.528288" ry="0.560181" fill="white"/>
<ellipse cx="830.962" cy="421.803" rx="0.528289" ry="0.560181" fill="white"/>
<ellipse cx="910.206" cy="421.803" rx="0.528289" ry="0.560181" fill="white"/>
<ellipse cx="989.449" cy="421.803" rx="0.528289" ry="0.560181" fill="white"/>
<ellipse cx="1068.69" cy="421.803" rx="0.528289" ry="0.560181" fill="white"/>
<ellipse cx="1147.94" cy="421.803" rx="0.528289" ry="0.560181" fill="white"/>
<ellipse cx="1227.18" cy="421.803" rx="0.528216" ry="0.560181" fill="white"/>
<ellipse cx="1306.42" cy="421.803" rx="0.528274" ry="0.560181" fill="white"/>
<ellipse cx="1385.67" cy="421.803" rx="0.528303" ry="0.560181" fill="white"/>
<ellipse cx="1464.91" cy="421.803" rx="0.528274" ry="0.560181" fill="white"/>
<ellipse cx="709.456" cy="477.819" rx="0.528287" ry="0.56015" fill="white"/>
<ellipse cx="788.699" cy="477.819" rx="0.528289" ry="0.56015" fill="white"/>
<ellipse cx="867.943" cy="477.819" rx="0.528289" ry="0.56015" fill="white"/>
<ellipse cx="947.186" cy="477.819" rx="0.528281" ry="0.56015" fill="white"/>
<ellipse cx="1026.43" cy="477.819" rx="0.528289" ry="0.56015" fill="white"/>
<ellipse cx="1105.67" cy="477.819" rx="0.528332" ry="0.56015" fill="white"/>
<ellipse cx="1184.92" cy="477.819" rx="0.528289" ry="0.56015" fill="white"/>
<ellipse cx="1264.16" cy="477.819" rx="0.528303" ry="0.56015" fill="white"/>
<ellipse cx="1343.4" cy="477.819" rx="0.528274" ry="0.56015" fill="white"/>
<ellipse cx="1422.65" cy="477.819" rx="0.528274" ry="0.56015" fill="white"/>
<ellipse cx="725.304" cy="533.836" rx="0.528287" ry="0.560181" fill="white"/>
<ellipse cx="804.548" cy="533.836" rx="0.528289" ry="0.560181" fill="white"/>
<ellipse cx="883.791" cy="533.836" rx="0.528289" ry="0.560181" fill="white"/>
<ellipse cx="963.034" cy="533.836" rx="0.528267" ry="0.560181" fill="white"/>
<ellipse cx="1042.28" cy="533.836" rx="0.528274" ry="0.560181" fill="white"/>
<ellipse cx="1121.52" cy="533.836" rx="0.528303" ry="0.560181" fill="white"/>
<ellipse cx="1200.76" cy="533.836" rx="0.528332" ry="0.560181" fill="white"/>
<ellipse cx="1280.01" cy="533.836" rx="0.528274" ry="0.560181" fill="white"/>
<ellipse cx="1359.25" cy="533.836" rx="0.528303" ry="0.560181" fill="white"/>
<ellipse cx="1438.49" cy="533.836" rx="0.528274" ry="0.560181" fill="white"/>
<ellipse cx="762.285" cy="595.453" rx="0.528287" ry="0.56015" fill="white"/>
<ellipse cx="841.528" cy="595.453" rx="0.528274" ry="0.56015" fill="white"/>
<ellipse cx="920.771" cy="595.453" rx="0.528296" ry="0.56015" fill="white"/>
<ellipse cx="1000.01" cy="595.453" rx="0.528289" ry="0.56015" fill="white"/>
<ellipse cx="1079.26" cy="595.453" rx="0.528274" ry="0.56015" fill="white"/>
<ellipse cx="1158.5" cy="595.453" rx="0.528289" ry="0.56015" fill="white"/>
<ellipse cx="1237.75" cy="595.453" rx="0.528332" ry="0.56015" fill="white"/>
<ellipse cx="1316.99" cy="595.453" rx="0.528303" ry="0.56015" fill="white"/>
<ellipse cx="1396.23" cy="595.453" rx="0.528274" ry="0.56015" fill="white"/>
<ellipse cx="1475.48" cy="595.453" rx="0.528274" ry="0.56015" fill="white"/>
<ellipse cx="730.587" cy="657.071" rx="0.528287" ry="0.560181" fill="white"/>
<ellipse cx="809.831" cy="657.071" rx="0.528289" ry="0.560181" fill="white"/>
<ellipse cx="889.074" cy="657.071" rx="0.528289" ry="0.560181" fill="white"/>
<ellipse cx="968.318" cy="657.071" rx="0.528289" ry="0.560181" fill="white"/>
<ellipse cx="1047.56" cy="657.071" rx="0.528289" ry="0.560181" fill="white"/>
<ellipse cx="1126.8" cy="657.071" rx="0.52823" ry="0.560181" fill="white"/>
<ellipse cx="1206.05" cy="657.071" rx="0.528289" ry="0.560181" fill="white"/>
<ellipse cx="1285.29" cy="657.071" rx="0.528274" ry="0.560181" fill="white"/>
<ellipse cx="1364.53" cy="657.071" rx="0.528303" ry="0.560181" fill="white"/>
<ellipse cx="1443.78" cy="657.071" rx="0.528274" ry="0.560181" fill="white"/>
<ellipse cx="772.851" cy="717.569" rx="0.528292" ry="0.560119" fill="white"/>
<ellipse cx="852.094" cy="717.569" rx="0.528274" ry="0.560119" fill="white"/>
<ellipse cx="931.337" cy="717.569" rx="0.528318" ry="0.560119" fill="white"/>
<ellipse cx="1010.58" cy="717.569" rx="0.528289" ry="0.560119" fill="white"/>
<ellipse cx="1089.82" cy="717.569" rx="0.528274" ry="0.560119" fill="white"/>
<ellipse cx="1169.07" cy="717.569" rx="0.528303" ry="0.560119" fill="white"/>
<ellipse cx="1248.31" cy="717.569" rx="0.528332" ry="0.560119" fill="white"/>
<ellipse cx="1327.55" cy="717.569" rx="0.528274" ry="0.560119" fill="white"/>
<ellipse cx="1406.8" cy="717.569" rx="0.528303" ry="0.560119" fill="white"/>
<ellipse cx="741.153" cy="779.187" rx="0.528287" ry="0.560181" fill="white"/>
<ellipse cx="820.397" cy="779.187" rx="0.528274" ry="0.560181" fill="white"/>
<ellipse cx="899.64" cy="779.187" rx="0.528289" ry="0.560181" fill="white"/>
<ellipse cx="978.883" cy="779.187" rx="0.528318" ry="0.560181" fill="white"/>
<ellipse cx="1058.13" cy="779.187" rx="0.528289" ry="0.560181" fill="white"/>
<ellipse cx="1137.37" cy="779.187" rx="0.528289" ry="0.560181" fill="white"/>
<ellipse cx="1216.61" cy="779.187" rx="0.528303" ry="0.560181" fill="white"/>
<ellipse cx="1295.86" cy="779.187" rx="0.528274" ry="0.560181" fill="white"/>
<ellipse cx="1375.1" cy="779.187" rx="0.528274" ry="0.560181" fill="white"/>
<ellipse cx="1454.34" cy="779.187" rx="0.528303" ry="0.560181" fill="white"/>
<ellipse cx="709.456" cy="840.805" rx="0.528287" ry="0.56015" fill="white"/>
<ellipse cx="788.699" cy="840.805" rx="0.528289" ry="0.56015" fill="white"/>
<ellipse cx="867.943" cy="840.805" rx="0.528289" ry="0.56015" fill="white"/>
<ellipse cx="947.186" cy="840.805" rx="0.528281" ry="0.56015" fill="white"/>
<ellipse cx="1026.43" cy="840.805" rx="0.528289" ry="0.56015" fill="white"/>
<ellipse cx="1105.67" cy="840.805" rx="0.528332" ry="0.56015" fill="white"/>
<ellipse cx="1184.92" cy="840.805" rx="0.528289" ry="0.56015" fill="white"/>
<ellipse cx="1264.16" cy="840.805" rx="0.528303" ry="0.56015" fill="white"/>
<ellipse cx="1343.4" cy="840.805" rx="0.528274" ry="0.56015" fill="white"/>
<ellipse cx="1422.65" cy="840.805" rx="0.528274" ry="0.56015" fill="white"/>
<ellipse cx="741.153" cy="902.423" rx="0.528287" ry="0.560088" fill="white"/>
<ellipse cx="820.397" cy="902.423" rx="0.528274" ry="0.560088" fill="white"/>
<ellipse cx="899.64" cy="902.423" rx="0.528289" ry="0.560088" fill="white"/>
<ellipse cx="978.883" cy="902.423" rx="0.528318" ry="0.560088" fill="white"/>
<ellipse cx="1058.13" cy="902.423" rx="0.528289" ry="0.560088" fill="white"/>
<ellipse cx="1137.37" cy="902.423" rx="0.528289" ry="0.560088" fill="white"/>
<ellipse cx="1216.61" cy="902.423" rx="0.528303" ry="0.560088" fill="white"/>
<ellipse cx="1295.86" cy="902.423" rx="0.528274" ry="0.560088" fill="white"/>
<ellipse cx="1375.1" cy="902.423" rx="0.528274" ry="0.560088" fill="white"/>
<ellipse cx="1454.34" cy="902.423" rx="0.528303" ry="0.560088" fill="white"/>
<ellipse cx="727.418" cy="79.5433" rx="1.05658" ry="1.12033" fill="white"/>
<ellipse cx="885.904" cy="85.1448" rx="1.05658" ry="1.12032" fill="white"/>
<ellipse cx="1044.39" cy="79.5433" rx="1.05658" ry="1.12033" fill="white"/>
<ellipse cx="1202.88" cy="73.9416" rx="1.05654" ry="1.12032" fill="white"/>
<ellipse cx="1361.36" cy="79.5433" rx="1.05658" ry="1.12033" fill="white"/>
<ellipse cx="1519.85" cy="85.1448" rx="1.05647" ry="1.12032" fill="white"/>
<ellipse cx="790.812" cy="191.576" rx="1.05657" ry="1.12033" fill="white"/>
<ellipse cx="949.299" cy="197.178" rx="1.05655" ry="1.12033" fill="white"/>
<ellipse cx="1107.79" cy="191.576" rx="1.05654" ry="1.12033" fill="white"/>
<ellipse cx="1266.27" cy="185.974" rx="1.05658" ry="1.12033" fill="white"/>
<ellipse cx="1424.76" cy="191.576" rx="1.05655" ry="1.12033" fill="white"/>
<ellipse cx="1583.25" cy="197.178" rx="1.05658" ry="1.12033" fill="white"/>
<ellipse cx="764.398" cy="304.729" rx="1.05658" ry="1.12033" fill="white"/>
<ellipse cx="922.885" cy="310.33" rx="1.05658" ry="1.12033" fill="white"/>
<ellipse cx="1081.37" cy="304.729" rx="1.05658" ry="1.12033" fill="white"/>
<ellipse cx="1239.86" cy="299.127" rx="1.05661" ry="1.12031" fill="white"/>
<ellipse cx="1398.34" cy="304.729" rx="1.05655" ry="1.12033" fill="white"/>
<ellipse cx="1556.83" cy="309.21" rx="1.05658" ry="1.12033" fill="white"/>
<ellipse cx="737.983" cy="416.762" rx="1.05658" ry="1.12033" fill="white"/>
<ellipse cx="896.47" cy="422.363" rx="1.05657" ry="1.12033" fill="white"/>
<ellipse cx="1054.96" cy="416.762" rx="1.05657" ry="1.12033" fill="white"/>
<ellipse cx="1213.44" cy="411.16" rx="1.05664" ry="1.12033" fill="white"/>
<ellipse cx="1371.93" cy="416.762" rx="1.05658" ry="1.12033" fill="white"/>
<ellipse cx="1530.42" cy="421.243" rx="1.05647" ry="1.12033" fill="white"/>
<ellipse cx="822.51" cy="528.794" rx="1.05659" ry="1.12033" fill="white"/>
<ellipse cx="980.996" cy="534.396" rx="1.05658" ry="1.12036" fill="white"/>
<ellipse cx="1139.48" cy="528.794" rx="1.05657" ry="1.12033" fill="white"/>
<ellipse cx="1297.97" cy="523.192" rx="1.05658" ry="1.12033" fill="white"/>
<ellipse cx="1456.46" cy="528.794" rx="1.05658" ry="1.12033" fill="white"/>
<ellipse cx="723.72" cy="640.827" rx="1.05658" ry="1.12033" fill="white"/>
<ellipse cx="882.206" cy="646.428" rx="1.05657" ry="1.12033" fill="white"/>
<ellipse cx="1040.69" cy="640.827" rx="1.05658" ry="1.12033" fill="white"/>
<ellipse cx="1199.18" cy="635.225" rx="1.05658" ry="1.12033" fill="white"/>
<ellipse cx="1357.67" cy="640.827" rx="1.05658" ry="1.12033" fill="white"/>
<ellipse cx="1516.15" cy="645.308" rx="1.05649" ry="1.12036" fill="white"/>
<ellipse cx="735.87" cy="737.175" rx="1.05658" ry="1.12033" fill="white"/>
<ellipse cx="894.357" cy="742.777" rx="1.05658" ry="1.12033" fill="white"/>
<ellipse cx="1052.84" cy="737.175" rx="1.05658" ry="1.12033" fill="white"/>
<ellipse cx="1211.33" cy="731.573" rx="1.05655" ry="1.12033" fill="white"/>
<ellipse cx="1369.82" cy="737.175" rx="1.05658" ry="1.12033" fill="white"/>
<ellipse cx="1528.3" cy="742.777" rx="1.05658" ry="1.12033" fill="white"/>
<ellipse cx="774.435" cy="857.05" rx="1.05658" ry="1.12033" fill="white"/>
<ellipse cx="932.922" cy="862.652" rx="1.05655" ry="1.1203" fill="white"/>
<ellipse cx="1091.41" cy="857.05" rx="1.05658" ry="1.12033" fill="white"/>
<ellipse cx="1249.9" cy="851.449" rx="1.05652" ry="1.12033" fill="white"/>
<ellipse cx="1408.38" cy="857.05" rx="1.05655" ry="1.12033" fill="white"/>
<ellipse cx="1566.87" cy="862.652" rx="1.05661" ry="1.1203" fill="white"/>
<ellipse cx="843.641" cy="34.7301" rx="1.05657" ry="1.12032" fill="white"/>
<ellipse cx="1002.13" cy="29.1286" rx="1.05657" ry="1.12032" fill="white"/>
<ellipse cx="1160.61" cy="23.5269" rx="1.05657" ry="1.12033" fill="white"/>
<ellipse cx="1319.1" cy="29.1286" rx="1.05658" ry="1.12032" fill="white"/>
<ellipse cx="1477.59" cy="34.7301" rx="1.05661" ry="1.12032" fill="white"/>
<ellipse cx="811.944" cy="146.763" rx="1.05658" ry="1.12035" fill="white"/>
<ellipse cx="970.431" cy="141.161" rx="1.05658" ry="1.12033" fill="white"/>
<ellipse cx="1128.92" cy="135.56" rx="1.05663" ry="1.12033" fill="white"/>
<ellipse cx="1287.4" cy="141.161" rx="1.05661" ry="1.12033" fill="white"/>
<ellipse cx="1445.89" cy="146.763" rx="1.05655" ry="1.12035" fill="white"/>
<ellipse cx="716.852" cy="254.314" rx="1.05658" ry="1.12033" fill="white"/>
<ellipse cx="875.339" cy="259.916" rx="1.05657" ry="1.12031" fill="white"/>
<ellipse cx="1033.83" cy="254.314" rx="1.05658" ry="1.12033" fill="white"/>
<ellipse cx="1192.31" cy="248.712" rx="1.0566" ry="1.12033" fill="white"/>
<ellipse cx="1350.8" cy="254.314" rx="1.05655" ry="1.12033" fill="white"/>
<ellipse cx="1509.29" cy="258.796" rx="1.05658" ry="1.12033" fill="white"/>
<ellipse cx="848.924" cy="371.948" rx="1.05657" ry="1.12033" fill="white"/>
<ellipse cx="1007.41" cy="366.347" rx="1.05657" ry="1.1203" fill="white"/>
<ellipse cx="1165.9" cy="360.745" rx="1.05663" ry="1.12033" fill="white"/>
<ellipse cx="1324.38" cy="366.347" rx="1.05658" ry="1.1203" fill="white"/>
<ellipse cx="1482.87" cy="371.948" rx="1.05658" ry="1.12033" fill="white"/>
<ellipse cx="822.51" cy="483.981" rx="1.05659" ry="1.12033" fill="white"/>
<ellipse cx="980.996" cy="478.379" rx="1.05658" ry="1.12033" fill="white"/>
<ellipse cx="1139.48" cy="472.778" rx="1.05657" ry="1.12033" fill="white"/>
<ellipse cx="1297.97" cy="478.379" rx="1.05658" ry="1.12033" fill="white"/>
<ellipse cx="1456.46" cy="483.981" rx="1.05658" ry="1.12033" fill="white"/>
<ellipse cx="748.549" cy="590.412" rx="1.05658" ry="1.1203" fill="white"/>
<ellipse cx="907.036" cy="596.014" rx="1.05658" ry="1.12033" fill="white"/>
<ellipse cx="1065.52" cy="590.412" rx="1.05658" ry="1.1203" fill="white"/>
<ellipse cx="1224.01" cy="584.81" rx="1.05664" ry="1.12033" fill="white"/>
<ellipse cx="1382.5" cy="590.412" rx="1.05661" ry="1.1203" fill="white"/>
<ellipse cx="1540.98" cy="594.893" rx="1.05658" ry="1.12033" fill="white"/>
<ellipse cx="808.246" cy="706.926" rx="1.05658" ry="1.12033" fill="white"/>
<ellipse cx="966.732" cy="701.325" rx="1.0566" ry="1.12033" fill="white"/>
<ellipse cx="1125.22" cy="695.723" rx="1.05663" ry="1.12033" fill="white"/>
<ellipse cx="1283.71" cy="701.325" rx="1.05658" ry="1.12033" fill="white"/>
<ellipse cx="1442.19" cy="706.926" rx="1.05658" ry="1.12033" fill="white"/>
<ellipse cx="820.397" cy="804.395" rx="1.05657" ry="1.12033" fill="white"/>
<ellipse cx="978.883" cy="798.793" rx="1.05657" ry="1.1203" fill="white"/>
<ellipse cx="1137.37" cy="793.191" rx="1.05663" ry="1.12036" fill="white"/>
<ellipse cx="1295.86" cy="798.793" rx="1.05658" ry="1.1203" fill="white"/>
<ellipse cx="1454.34" cy="804.395" rx="1.05658" ry="1.12033" fill="white"/>
<ellipse cx="671.057" cy="916.12" rx="1.05658" ry="1.1203" fill="white"/>
<ellipse cx="858.962" cy="924.27" rx="1.05657" ry="1.1203" fill="white"/>
<ellipse cx="1017.45" cy="918.668" rx="1.05658" ry="1.1203" fill="white"/>
<ellipse cx="1175.94" cy="913.067" rx="1.05654" ry="1.1203" fill="white"/>
<ellipse cx="1334.42" cy="918.668" rx="1.05658" ry="1.1203" fill="white"/>
<ellipse cx="1492.91" cy="924.27" rx="1.05649" ry="1.1203" fill="white"/>
</svg>
